<?xml version="1.0" encoding="UTF-8" standalone="no"?>
<!-- Created with Inkscape (http://www.inkscape.org/) -->

<svg
   xmlns:dc="http://purl.org/dc/elements/1.1/"
   xmlns:cc="http://creativecommons.org/ns#"
   xmlns:rdf="http://www.w3.org/1999/02/22-rdf-syntax-ns#"
   xmlns:svg="http://www.w3.org/2000/svg"
   xmlns="http://www.w3.org/2000/svg"
   xmlns:sodipodi="http://sodipodi.sourceforge.net/DTD/sodipodi-0.dtd"
   xmlns:inkscape="http://www.inkscape.org/namespaces/inkscape"
   width="136.68726mm"
   height="131.20271mm"
   viewBox="0 0 136.68726 131.20271"
   version="1.1"
   id="svg20061"
   inkscape:version="0.92.2 (unknown)"
   sodipodi:docname="fresnel_reflectance.svg">
  <defs
     id="defs20055">
    <clipPath
       clipPathUnits="userSpaceOnUse"
       id="clipPath18870">
      <path
         d="M 0,0 H 2384 V 3370 H 0 Z"
         id="path18868"
         inkscape:connector-curvature="0" />
    </clipPath>
    <clipPath
       clipPathUnits="userSpaceOnUse"
       id="clipPath18880">
      <path
         d="M 0,0 H 1935.93 V 1874.77 H 0 Z"
         id="path18878"
         inkscape:connector-curvature="0" />
    </clipPath>
  </defs>
  <sodipodi:namedview
     id="base"
     pagecolor="#ffffff"
     bordercolor="#666666"
     borderopacity="1.0"
     inkscape:pageopacity="0.0"
     inkscape:pageshadow="2"
     inkscape:zoom="0.98994949"
     inkscape:cx="117.69872"
     inkscape:cy="150.35447"
     inkscape:document-units="mm"
     inkscape:current-layer="layer1"
     showgrid="false"
     fit-margin-top="0"
     fit-margin-left="0"
     fit-margin-right="0"
     fit-margin-bottom="0"
     inkscape:window-width="1919"
     inkscape:window-height="1051"
     inkscape:window-x="1"
     inkscape:window-y="0"
     inkscape:window-maximized="1" />
  <metadata
     id="metadata20058">
    <rdf:RDF>
      <cc:Work
         rdf:about="">
        <dc:format>image/svg+xml</dc:format>
        <dc:type
           rdf:resource="http://purl.org/dc/dcmitype/StillImage" />
        <dc:title></dc:title>
      </cc:Work>
    </rdf:RDF>
  </metadata>
  <g
     inkscape:label="Layer 1"
     inkscape:groupmode="layer"
     id="layer1"
     transform="translate(-34.78037,-17.356664)">
    <g
       id="g18862"
       transform="matrix(0.30735333,0,0,-0.30735333,34.780295,148.55946)">
      <g
         id="g18864">
        <g
           id="g18866"
           clip-path="url(#clipPath18870)">
          <g
             id="g18872"
             transform="scale(0.229721)">
            <g
               id="g18874">
              <g
                 id="g18876"
                 clip-path="url(#clipPath18880)">
                <path
                   d="m 110.551,295.332 h 27.426 m 1762.573,0 h -27.42"
                   style="fill:none;stroke:#231f20;stroke-width:4.35311985;stroke-linecap:butt;stroke-linejoin:miter;stroke-miterlimit:10;stroke-dasharray:none;stroke-opacity:1"
                   id="path18882"
                   inkscape:connector-curvature="0" />
                <path
                   d="m 110.008,583.336 h 27.422 m 1762.57,0 h -27.41"
                   style="fill:none;stroke:#231f20;stroke-width:4.35311985;stroke-linecap:butt;stroke-linejoin:miter;stroke-miterlimit:10;stroke-dasharray:none;stroke-opacity:1"
                   id="path18884"
                   inkscape:connector-curvature="0" />
                <path
                   d="m 110.008,871.332 h 27.422 m 1762.57,0 h -27.41"
                   style="fill:none;stroke:#231f20;stroke-width:4.35311985;stroke-linecap:butt;stroke-linejoin:miter;stroke-miterlimit:10;stroke-dasharray:none;stroke-opacity:1"
                   id="path18886"
                   inkscape:connector-curvature="0" />
                <path
                   d="m 110.008,1159.33 h 27.422 m 1762.57,0 h -27.41"
                   style="fill:none;stroke:#231f20;stroke-width:4.35311985;stroke-linecap:butt;stroke-linejoin:miter;stroke-miterlimit:10;stroke-dasharray:none;stroke-opacity:1"
                   id="path18888"
                   inkscape:connector-curvature="0" />
                <path
                   d="m 110.008,1447.33 h 27.422 m 1762.57,0 h -27.41"
                   style="fill:none;stroke:#231f20;stroke-width:4.35311985;stroke-linecap:butt;stroke-linejoin:miter;stroke-miterlimit:10;stroke-dasharray:none;stroke-opacity:1"
                   id="path18890"
                   inkscape:connector-curvature="0" />
                <path
                   d="m 110.008,1303.33 h 27.422 m 1762.57,0 h -27.41"
                   style="fill:none;stroke:#231f20;stroke-width:4.35311985;stroke-linecap:butt;stroke-linejoin:miter;stroke-miterlimit:10;stroke-dasharray:none;stroke-opacity:1"
                   id="path18892"
                   inkscape:connector-curvature="0" />
                <path
                   d="m 110.008,1015.33 h 27.422 m 1762.57,0 h -27.41"
                   style="fill:none;stroke:#231f20;stroke-width:4.35311985;stroke-linecap:butt;stroke-linejoin:miter;stroke-miterlimit:10;stroke-dasharray:none;stroke-opacity:1"
                   id="path18894"
                   inkscape:connector-curvature="0" />
                <path
                   d="m 110.008,727.336 h 27.422 m 1762.57,0 h -27.41"
                   style="fill:none;stroke:#231f20;stroke-width:4.35311985;stroke-linecap:butt;stroke-linejoin:miter;stroke-miterlimit:10;stroke-dasharray:none;stroke-opacity:1"
                   id="path18896"
                   inkscape:connector-curvature="0" />
                <path
                   d="m 110.008,439.328 h 27.422 m 1762.57,0 h -27.41"
                   style="fill:none;stroke:#231f20;stroke-width:4.35311985;stroke-linecap:butt;stroke-linejoin:miter;stroke-miterlimit:10;stroke-dasharray:none;stroke-opacity:1"
                   id="path18898"
                   inkscape:connector-curvature="0" />
                <path
                   d="m 111.098,1735.33 h 27.422 m 1758.22,-4.36 -23.07,4.36"
                   style="fill:none;stroke:#231f20;stroke-width:4.35311985;stroke-linecap:butt;stroke-linejoin:miter;stroke-miterlimit:10;stroke-dasharray:none;stroke-opacity:1"
                   id="path18900"
                   inkscape:connector-curvature="0" />
                <path
                   d="m 110.008,655.371 v 27.43 m 0,692.579 v -27.43"
                   style="fill:none;stroke:#231f20;stroke-width:4.35311985;stroke-linecap:butt;stroke-linejoin:miter;stroke-miterlimit:10;stroke-dasharray:none;stroke-opacity:1"
                   id="path18902"
                   inkscape:connector-curvature="0" />
                <path
                   d="m 308.945,294.063 v 27.429"
                   style="fill:none;stroke:#231f20;stroke-width:4.35311985;stroke-linecap:butt;stroke-linejoin:miter;stroke-miterlimit:10;stroke-dasharray:none;stroke-opacity:1"
                   id="path18904"
                   inkscape:connector-curvature="0" />
                <path
                   d="m 308.945,1736.69 v -27.43"
                   style="fill:none;stroke:#231f20;stroke-width:4.35311985;stroke-linecap:butt;stroke-linejoin:miter;stroke-miterlimit:10;stroke-dasharray:none;stroke-opacity:1"
                   id="path18906"
                   inkscape:connector-curvature="0" />
                <path
                   d="m 507.883,294.063 v 27.429"
                   style="fill:none;stroke:#231f20;stroke-width:4.35311985;stroke-linecap:butt;stroke-linejoin:miter;stroke-miterlimit:10;stroke-dasharray:none;stroke-opacity:1"
                   id="path18908"
                   inkscape:connector-curvature="0" />
                <path
                   d="m 507.883,1736.69 v -27.43"
                   style="fill:none;stroke:#231f20;stroke-width:4.35311985;stroke-linecap:butt;stroke-linejoin:miter;stroke-miterlimit:10;stroke-dasharray:none;stroke-opacity:1"
                   id="path18910"
                   inkscape:connector-curvature="0" />
                <path
                   d="m 706.82,294.063 v 27.429"
                   style="fill:none;stroke:#231f20;stroke-width:4.35311985;stroke-linecap:butt;stroke-linejoin:miter;stroke-miterlimit:10;stroke-dasharray:none;stroke-opacity:1"
                   id="path18912"
                   inkscape:connector-curvature="0" />
                <path
                   d="m 706.82,1736.69 v -27.43"
                   style="fill:none;stroke:#231f20;stroke-width:4.35311985;stroke-linecap:butt;stroke-linejoin:miter;stroke-miterlimit:10;stroke-dasharray:none;stroke-opacity:1"
                   id="path18914"
                   inkscape:connector-curvature="0" />
                <path
                   d="m 905.758,294.063 v 27.429"
                   style="fill:none;stroke:#231f20;stroke-width:4.35311985;stroke-linecap:butt;stroke-linejoin:miter;stroke-miterlimit:10;stroke-dasharray:none;stroke-opacity:1"
                   id="path18916"
                   inkscape:connector-curvature="0" />
                <path
                   d="m 905.758,1736.69 v -27.43"
                   style="fill:none;stroke:#231f20;stroke-width:4.35311985;stroke-linecap:butt;stroke-linejoin:miter;stroke-miterlimit:10;stroke-dasharray:none;stroke-opacity:1"
                   id="path18918"
                   inkscape:connector-curvature="0" />
                <path
                   d="m 1104.26,294.063 v 27.429"
                   style="fill:none;stroke:#231f20;stroke-width:4.35311985;stroke-linecap:butt;stroke-linejoin:miter;stroke-miterlimit:10;stroke-dasharray:none;stroke-opacity:1"
                   id="path18920"
                   inkscape:connector-curvature="0" />
                <path
                   d="m 1104.26,1736.69 v -27.43"
                   style="fill:none;stroke:#231f20;stroke-width:4.35311985;stroke-linecap:butt;stroke-linejoin:miter;stroke-miterlimit:10;stroke-dasharray:none;stroke-opacity:1"
                   id="path18922"
                   inkscape:connector-curvature="0" />
                <path
                   d="m 1303.2,294.063 v 27.429"
                   style="fill:none;stroke:#231f20;stroke-width:4.35311985;stroke-linecap:butt;stroke-linejoin:miter;stroke-miterlimit:10;stroke-dasharray:none;stroke-opacity:1"
                   id="path18924"
                   inkscape:connector-curvature="0" />
                <path
                   d="m 1303.2,1736.69 v -27.43"
                   style="fill:none;stroke:#231f20;stroke-width:4.35311985;stroke-linecap:butt;stroke-linejoin:miter;stroke-miterlimit:10;stroke-dasharray:none;stroke-opacity:1"
                   id="path18926"
                   inkscape:connector-curvature="0" />
                <path
                   d="m 1502.13,294.063 v 27.429"
                   style="fill:none;stroke:#231f20;stroke-width:4.35311985;stroke-linecap:butt;stroke-linejoin:miter;stroke-miterlimit:10;stroke-dasharray:none;stroke-opacity:1"
                   id="path18928"
                   inkscape:connector-curvature="0" />
                <path
                   d="m 1502.13,1736.69 v -27.43"
                   style="fill:none;stroke:#231f20;stroke-width:4.35311985;stroke-linecap:butt;stroke-linejoin:miter;stroke-miterlimit:10;stroke-dasharray:none;stroke-opacity:1"
                   id="path18930"
                   inkscape:connector-curvature="0" />
                <path
                   d="m 1701.07,294.063 v 27.429"
                   style="fill:none;stroke:#231f20;stroke-width:4.35311985;stroke-linecap:butt;stroke-linejoin:miter;stroke-miterlimit:10;stroke-dasharray:none;stroke-opacity:1"
                   id="path18932"
                   inkscape:connector-curvature="0" />
                <path
                   d="m 1701.07,1736.69 v -27.43"
                   style="fill:none;stroke:#231f20;stroke-width:4.35311985;stroke-linecap:butt;stroke-linejoin:miter;stroke-miterlimit:10;stroke-dasharray:none;stroke-opacity:1"
                   id="path18934"
                   inkscape:connector-curvature="0" />
                <path
                   d="m 1900,655.371 v 27.43 m 0,692.579 v -27.43"
                   style="fill:none;stroke:#231f20;stroke-width:4.35311985;stroke-linecap:butt;stroke-linejoin:miter;stroke-miterlimit:10;stroke-dasharray:none;stroke-opacity:1"
                   id="path18936"
                   inkscape:connector-curvature="0" />
                <g
                   id="g18938"
                   transform="scale(4.35312)">
                  <text
                     transform="matrix(1,0,0,-1,11.7714,63.4531)"
                     style="font-variant:normal;font-weight:normal;font-size:14px;font-family:TimesNewRomanPSMT;-inkscape-font-specification:TimesNewRomanPSMT;writing-mode:lr-tb;fill:#231f20;fill-opacity:1;fill-rule:nonzero;stroke:none"
                     id="text18964">
                    <tspan
                       x="0"
                       y="0"
                       id="tspan18940">0</tspan>
                    <tspan
                       x="0"
                       y="-330.5"
                       id="tspan18942">1</tspan>
                    <tspan
                       x="-10.5007 -3.5007 -0.00069999998"
                       y="-33.951"
                       sodipodi:role="line"
                       id="tspan18944">0.1</tspan>
                    <tspan
                       x="-10.5007 -3.5007 -0.00069999998"
                       y="-66.900597"
                       sodipodi:role="line"
                       id="tspan18946">0.2</tspan>
                    <tspan
                       x="-10.5007 -3.5007 -0.00069999998"
                       y="-99.849297"
                       sodipodi:role="line"
                       id="tspan18948">0.3</tspan>
                    <tspan
                       x="-10.5007 -3.5007 -0.00069999998"
                       y="-132.8007"
                       sodipodi:role="line"
                       id="tspan18950">0.4</tspan>
                    <tspan
                       x="-10.5007 -3.5007 -0.00069999998"
                       y="-165.75031"
                       sodipodi:role="line"
                       id="tspan18952">0.5</tspan>
                    <tspan
                       x="-10.5007 -3.5007 -0.00069999998"
                       y="-198.70081"
                       sodipodi:role="line"
                       id="tspan18954">0.6</tspan>
                    <tspan
                       x="-10.5007 -3.5007 -0.00069999998"
                       y="-231.65041"
                       sodipodi:role="line"
                       id="tspan18956">0.7</tspan>
                    <tspan
                       x="-10.5007 -3.5007 -0.00069999998"
                       y="-264.60001"
                       sodipodi:role="line"
                       id="tspan18958">0.8</tspan>
                    <tspan
                       x="-10.5007 -3.5007 -0.00069999998"
                       y="-297.54959"
                       sodipodi:role="line"
                       id="tspan18960">0.9</tspan>
                    <tspan
                       x="10.0001 52.203098 59.203098 97.906662 104.90666 143.61021 150.61021 189.31378 196.31378 235.01833 242.01833 280.72189 287.72189 326.42545 333.42545 372.12817 379.12817 417.8327 424.8327"
                       y="11.9994"
                       sodipodi:role="line"
                       id="tspan18962">0102030405060708090</tspan>
                  </text>
                </g>
                <path
                   d="m 791.203,156.082 c -2.793,-2.164 -4.551,-3.414 -5.265,-3.75 -1.071,-0.496 -2.211,-0.742 -3.422,-0.742 -1.883,0 -3.434,0.644 -4.657,1.93 -1.218,1.289 -1.828,2.988 -1.828,5.089 0,1.332 0.293,2.477 0.891,3.454 0.816,1.347 2.23,2.621 4.242,3.808 2.016,1.192 5.359,2.641 10.039,4.344 v 1.07 c 0,2.719 -0.43,4.586 -1.289,5.594 -0.863,1.016 -2.117,1.519 -3.766,1.519 -1.25,0 -2.242,-0.335 -2.976,-1.007 -0.754,-0.68 -1.129,-1.45 -1.129,-2.325 l 0.059,-1.726 c 0,-0.914 -0.235,-1.613 -0.7,-2.11 -0.464,-0.5 -1.074,-0.746 -1.832,-0.746 -0.734,0 -1.332,0.258 -1.8,0.774 -0.465,0.515 -0.7,1.222 -0.7,2.113 0,1.703 0.875,3.274 2.621,4.703 1.747,1.426 4.196,2.141 7.348,2.141 2.422,0 4.406,-0.41 5.957,-1.219 1.168,-0.617 2.031,-1.582 2.582,-2.887 0.36,-0.855 0.539,-2.597 0.539,-5.238 v -9.254 c 0,-2.597 0.051,-4.191 0.145,-4.777 0.101,-0.586 0.265,-0.977 0.492,-1.176 0.226,-0.195 0.492,-0.297 0.789,-0.297 0.316,0 0.598,0.071 0.836,0.207 0.418,0.258 1.219,0.981 2.41,2.176 v -1.668 c -2.223,-2.973 -4.348,-4.465 -6.367,-4.465 -0.977,0 -1.746,0.336 -2.324,1.012 -0.575,0.676 -0.871,1.824 -0.895,3.453 z m 0,1.934 v 10.382 c -2.992,-1.187 -4.926,-2.031 -5.801,-2.527 -1.566,-0.871 -2.687,-1.785 -3.359,-2.738 -0.676,-0.953 -1.016,-1.992 -1.016,-3.125 0,-1.43 0.43,-2.613 1.282,-3.551 0.851,-0.945 1.836,-1.418 2.945,-1.418 1.508,0 3.492,0.988 5.949,2.977"
                   style="fill:#231f20;fill-opacity:1;fill-rule:nonzero;stroke:none"
                   id="path18966"
                   inkscape:connector-curvature="0" />
                <path
                   d="m 810.758,174.441 c 3.191,3.848 6.238,5.774 9.133,5.774 1.488,0 2.769,-0.371 3.839,-1.117 1.071,-0.743 1.926,-1.969 2.563,-3.676 0.434,-1.188 0.652,-3.012 0.652,-5.473 v -11.636 c 0,-1.727 0.137,-2.895 0.418,-3.512 0.215,-0.496 0.571,-0.883 1.055,-1.156 0.488,-0.282 1.387,-0.418 2.691,-0.418 v -1.071 h -13.476 v 1.071 h 0.566 c 1.266,0 2.153,0.195 2.66,0.578 0.508,0.39 0.86,0.957 1.059,1.711 0.078,0.3 0.117,1.226 0.117,2.797 v 11.16 c 0,2.48 -0.324,4.281 -0.969,5.402 -0.644,1.117 -1.726,1.68 -3.253,1.68 -2.364,0 -4.715,-1.289 -7.055,-3.867 v -14.375 c 0,-1.844 0.105,-2.985 0.328,-3.418 0.277,-0.579 0.656,-1 1.144,-1.27 0.489,-0.266 1.473,-0.398 2.961,-0.398 v -1.071 h -13.48 v 1.071 h 0.594 c 1.39,0 2.324,0.351 2.812,1.05 0.488,0.707 0.731,2.051 0.731,4.036 v 10.117 c 0,3.273 -0.075,5.269 -0.227,5.98 -0.148,0.715 -0.371,1.199 -0.683,1.461 -0.309,0.262 -0.715,0.387 -1.235,0.387 -0.555,0 -1.219,-0.149 -1.992,-0.449 l -0.445,1.07 8.214,3.336 h 1.278 v -5.774"
                   style="fill:#231f20;fill-opacity:1;fill-rule:nonzero;stroke:none"
                   id="path18968"
                   inkscape:connector-curvature="0" />
                <path
                   d="m 840.574,162.094 c -1.668,0.808 -2.949,1.945 -3.84,3.406 -0.89,1.453 -1.336,3.07 -1.336,4.836 0,2.699 1.016,5.019 3.047,6.961 2.035,1.941 4.641,2.918 7.813,2.918 2.601,0 4.851,-0.633 6.758,-1.902 h 5.773 c 0.852,0 1.348,-0.028 1.488,-0.075 0.133,-0.05 0.235,-0.136 0.293,-0.258 0.118,-0.175 0.18,-0.496 0.18,-0.949 0,-0.515 -0.047,-0.875 -0.148,-1.07 -0.059,-0.098 -0.164,-0.184 -0.313,-0.238 -0.148,-0.063 -0.648,-0.09 -1.5,-0.09 h -3.547 c 1.117,-1.43 1.668,-3.254 1.668,-5.473 0,-2.543 -0.969,-4.715 -2.914,-6.523 -1.949,-1.805 -4.555,-2.707 -7.828,-2.707 -1.352,0 -2.727,0.199 -4.137,0.597 -0.875,-0.754 -1.461,-1.414 -1.769,-1.976 -0.305,-0.571 -0.461,-1.051 -0.461,-1.446 0,-0.335 0.164,-0.66 0.488,-0.984 0.328,-0.316 0.969,-0.543 1.922,-0.683 0.559,-0.079 1.945,-0.149 4.164,-0.208 4.09,-0.097 6.738,-0.238 7.945,-0.414 1.848,-0.261 3.321,-0.945 4.422,-2.054 1.098,-1.11 1.653,-2.477 1.653,-4.106 0,-2.242 -1.055,-4.347 -3.157,-6.312 -3.097,-2.895 -7.133,-4.344 -12.109,-4.344 -3.828,0 -7.063,0.867 -9.699,2.59 -1.489,0.992 -2.235,2.023 -2.235,3.094 0,0.476 0.11,0.953 0.328,1.429 0.336,0.735 1.032,1.754 2.082,3.063 0.137,0.179 1.153,1.25 3.036,3.215 -1.032,0.617 -1.758,1.164 -2.188,1.648 -0.43,0.492 -0.64,1.039 -0.64,1.656 0,0.692 0.281,1.508 0.847,2.442 0.567,0.929 1.871,2.25 3.914,3.957 z m -0.297,-9.938 c -0.937,-1.015 -1.636,-1.957 -2.117,-2.832 -0.472,-0.871 -0.711,-1.672 -0.711,-2.406 0,-0.953 0.578,-1.789 1.727,-2.504 1.98,-1.226 4.851,-1.84 8.597,-1.84 3.575,0 6.207,0.625 7.903,1.883 1.695,1.262 2.547,2.609 2.547,4.035 0,1.031 -0.508,1.766 -1.52,2.203 -1.031,0.438 -3.074,0.692 -6.129,0.778 -4.465,0.117 -7.898,0.347 -10.297,0.683 z m 5.477,26.629 c -1.473,0 -2.699,-0.586 -3.691,-1.754 -0.993,-1.168 -1.489,-2.968 -1.489,-5.386 0,-3.133 0.676,-5.563 2.024,-7.293 1.031,-1.305 2.343,-1.965 3.925,-1.965 1.512,0 2.754,0.566 3.723,1.699 0.973,1.133 1.457,2.91 1.457,5.328 0,3.152 -0.683,5.625 -2.055,7.41 -1.007,1.309 -2.308,1.961 -3.894,1.961"
                   style="fill:#231f20;fill-opacity:1;fill-rule:nonzero;stroke:none"
                   id="path18970"
                   inkscape:connector-curvature="0" />
                <path
                   d="m 873.129,194.465 v -36.152 c 0,-1.704 0.125,-2.836 0.371,-3.391 0.25,-0.555 0.633,-0.977 1.145,-1.266 0.519,-0.289 1.48,-0.429 2.886,-0.429 v -1.071 h -13.359 v 1.071 c 1.25,0 2.101,0.125 2.558,0.386 0.458,0.258 0.817,0.684 1.071,1.282 0.258,0.589 0.39,1.73 0.39,3.418 v 24.757 c 0,3.075 -0.07,4.969 -0.211,5.668 -0.14,0.703 -0.359,1.188 -0.671,1.446 -0.309,0.261 -0.696,0.386 -1.172,0.386 -0.516,0 -1.172,-0.156 -1.965,-0.472 l -0.504,1.039 8.121,3.328 h 1.34"
                   style="fill:#231f20;fill-opacity:1;fill-rule:nonzero;stroke:none"
                   id="path18972"
                   inkscape:connector-curvature="0" />
                <path
                   d="m 885.273,169.145 c -0.023,-4.047 0.961,-7.223 2.946,-9.52 1.98,-2.305 4.312,-3.453 6.992,-3.453 1.785,0 3.336,0.488 4.656,1.473 1.321,0.98 2.426,2.664 3.317,5.043 l 0.921,-0.594 c -0.414,-2.719 -1.625,-5.196 -3.628,-7.422 -2.004,-2.238 -4.516,-3.352 -7.532,-3.352 -3.273,0 -6.07,1.274 -8.406,3.825 -2.328,2.546 -3.496,5.972 -3.496,10.281 0,4.664 1.195,8.297 3.59,10.906 2.387,2.606 5.387,3.914 9,3.914 3.058,0 5.562,-1.012 7.527,-3.019 1.965,-2.012 2.945,-4.711 2.945,-8.082 z m 0,1.726 h 12.614 c -0.094,1.746 -0.305,2.977 -0.621,3.688 -0.5,1.113 -1.243,1.988 -2.223,2.621 -0.977,0.633 -2.004,0.953 -3.078,0.953 -1.649,0 -3.121,-0.645 -4.418,-1.918 -1.301,-1.285 -2.059,-3.063 -2.274,-5.344"
                   style="fill:#231f20;fill-opacity:1;fill-rule:nonzero;stroke:none"
                   id="path18974"
                   inkscape:connector-curvature="0" />
                <path
                   d="m 936.305,180.215 c 4.129,0 7.437,-1.567 9.941,-4.703 2.121,-2.676 3.18,-5.75 3.18,-9.223 0,-2.441 -0.586,-4.91 -1.754,-7.41 -1.168,-2.5 -2.785,-4.383 -4.836,-5.652 -2.055,-1.274 -4.34,-1.907 -6.859,-1.907 -4.106,0 -7.372,1.637 -9.789,4.91 -2.047,2.758 -3.067,5.852 -3.067,9.286 0,2.496 0.625,4.988 1.863,7.449 1.239,2.473 2.871,4.297 4.895,5.476 2.023,1.18 4.164,1.774 6.426,1.774 z m -0.926,-1.934 c -1.047,0 -2.106,-0.316 -3.168,-0.933 -1.059,-0.633 -1.914,-1.727 -2.574,-3.293 -0.653,-1.567 -0.977,-3.578 -0.977,-6.043 0,-3.965 0.785,-7.387 2.363,-10.262 1.579,-2.879 3.653,-4.316 6.235,-4.316 1.926,0 3.512,0.793 4.762,2.382 1.25,1.582 1.875,4.313 1.875,8.18 0,4.844 -1.043,8.652 -3.125,11.426 -1.407,1.906 -3.207,2.859 -5.391,2.859"
                   style="fill:#231f20;fill-opacity:1;fill-rule:nonzero;stroke:none"
                   id="path18976"
                   inkscape:connector-curvature="0" />
                <path
                   d="m 964.098,177.266 v -17.911 c 0,-2.539 0.277,-4.144 0.836,-4.82 0.73,-0.875 1.714,-1.308 2.941,-1.308 h 2.473 v -1.071 h -16.282 v 1.071 h 1.227 c 0.789,0 1.512,0.199 2.172,0.593 0.652,0.395 1.105,0.93 1.348,1.61 0.253,0.672 0.375,1.984 0.375,3.925 v 17.911 h -5.297 v 2.144 h 5.297 v 1.789 c 0,2.715 0.441,5.02 1.308,6.903 0.871,1.882 2.207,3.41 4.008,4.562 1.793,1.168 3.812,1.746 6.055,1.746 2.078,0 3.996,-0.676 5.742,-2.023 1.152,-0.895 1.722,-1.899 1.722,-3.004 0,-0.598 -0.257,-1.16 -0.769,-1.68 -0.52,-0.527 -1.07,-0.793 -1.668,-0.793 -0.457,0 -0.941,0.16 -1.441,0.492 -0.508,0.325 -1.129,1.032 -1.864,2.11 -0.734,1.086 -1.406,1.812 -2.023,2.191 -0.613,0.379 -1.301,0.567 -2.051,0.567 -0.914,0 -1.687,-0.247 -2.324,-0.731 -0.633,-0.488 -1.094,-1.242 -1.367,-2.266 -0.278,-1.019 -0.418,-3.652 -0.418,-7.898 v -1.965 h 7.023 v -2.144 h -7.023"
                   style="fill:#231f20;fill-opacity:1;fill-rule:nonzero;stroke:none"
                   id="path18978"
                   inkscape:connector-curvature="0" />
                <path
                   d="m 998.379,180.215 v -21.902 c 0,-1.704 0.121,-2.844 0.371,-3.403 0.25,-0.57 0.617,-0.992 1.105,-1.265 0.485,-0.282 1.375,-0.418 2.665,-0.418 v -1.071 h -13.247 v 1.071 c 1.332,0 2.223,0.125 2.68,0.386 0.453,0.258 0.82,0.684 1.086,1.282 0.27,0.589 0.399,1.73 0.399,3.418 v 10.503 c 0,2.957 -0.086,4.872 -0.266,5.743 -0.141,0.636 -0.356,1.078 -0.656,1.324 -0.297,0.254 -0.707,0.375 -1.219,0.375 -0.559,0 -1.227,-0.149 -2.024,-0.449 l -0.414,1.07 8.207,3.336 z m -2.469,14.25 c 0.832,0 1.543,-0.289 2.125,-0.875 0.586,-0.582 0.879,-1.297 0.879,-2.125 0,-0.832 -0.293,-1.547 -0.879,-2.145 -0.582,-0.593 -1.293,-0.89 -2.125,-0.89 -0.836,0 -1.551,0.297 -2.14,0.89 -0.598,0.598 -0.899,1.313 -0.899,2.145 0,0.828 0.297,1.543 0.879,2.125 0.586,0.586 1.301,0.875 2.16,0.875"
                   style="fill:#231f20;fill-opacity:1;fill-rule:nonzero;stroke:none"
                   id="path18980"
                   inkscape:connector-curvature="0" />
                <path
                   d="m 1013.86,174.441 c 3.18,3.848 6.23,5.774 9.13,5.774 1.49,0 2.76,-0.371 3.83,-1.117 1.08,-0.743 1.93,-1.969 2.57,-3.676 0.43,-1.188 0.65,-3.012 0.65,-5.473 v -11.636 c 0,-1.727 0.14,-2.895 0.42,-3.512 0.22,-0.496 0.57,-0.883 1.06,-1.156 0.48,-0.282 1.38,-0.418 2.69,-0.418 v -1.071 h -13.48 v 1.071 h 0.56 c 1.27,0 2.16,0.195 2.67,0.578 0.5,0.39 0.85,0.957 1.05,1.711 0.08,0.3 0.12,1.226 0.12,2.797 v 11.16 c 0,2.48 -0.33,4.281 -0.97,5.402 -0.64,1.117 -1.73,1.68 -3.25,1.68 -2.36,0 -4.71,-1.289 -7.05,-3.867 v -14.375 c 0,-1.844 0.1,-2.985 0.32,-3.418 0.28,-0.579 0.66,-1 1.15,-1.27 0.48,-0.266 1.47,-0.398 2.96,-0.398 v -1.071 h -13.48 v 1.071 h 0.59 c 1.39,0 2.33,0.351 2.81,1.05 0.49,0.707 0.74,2.051 0.74,4.036 v 10.117 c 0,3.273 -0.09,5.269 -0.23,5.98 -0.15,0.715 -0.38,1.199 -0.68,1.461 -0.31,0.262 -0.72,0.387 -1.24,0.387 -0.55,0 -1.22,-0.149 -1.99,-0.449 l -0.45,1.07 8.21,3.336 h 1.29 v -5.774"
                   style="fill:#231f20;fill-opacity:1;fill-rule:nonzero;stroke:none"
                   id="path18982"
                   inkscape:connector-curvature="0" />
                <path
                   d="m 1059.53,162.512 c -0.73,-3.598 -2.17,-6.352 -4.31,-8.293 -2.15,-1.93 -4.52,-2.899 -7.11,-2.899 -3.1,0 -5.8,1.301 -8.1,3.899 -2.3,2.597 -3.45,6.109 -3.45,10.535 0,4.281 1.28,7.766 3.83,10.441 2.54,2.68 5.6,4.02 9.17,4.02 2.68,0 4.88,-0.711 6.61,-2.129 1.72,-1.414 2.59,-2.891 2.59,-4.418 0,-0.754 -0.24,-1.363 -0.74,-1.832 -0.48,-0.461 -1.16,-0.699 -2.03,-0.699 -1.17,0 -2.05,0.379 -2.65,1.133 -0.34,0.418 -0.56,1.21 -0.67,2.382 -0.11,1.164 -0.51,2.059 -1.21,2.676 -0.69,0.598 -1.65,0.895 -2.88,0.895 -1.99,0 -3.58,-0.739 -4.79,-2.203 -1.61,-1.942 -2.41,-4.516 -2.41,-7.707 0,-3.25 0.8,-6.129 2.4,-8.618 1.59,-2.488 3.75,-3.73 6.47,-3.73 1.94,0 3.69,0.66 5.23,1.992 1.09,0.914 2.15,2.57 3.19,4.969 l 0.86,-0.414"
                   style="fill:#231f20;fill-opacity:1;fill-rule:nonzero;stroke:none"
                   id="path18984"
                   inkscape:connector-curvature="0" />
                <path
                   d="m 1072.84,180.215 v -21.902 c 0,-1.704 0.12,-2.844 0.36,-3.403 0.25,-0.57 0.62,-0.992 1.11,-1.265 0.48,-0.282 1.37,-0.418 2.66,-0.418 v -1.071 h -13.24 v 1.071 c 1.33,0 2.22,0.125 2.68,0.386 0.45,0.258 0.82,0.684 1.08,1.282 0.27,0.589 0.4,1.73 0.4,3.418 v 10.503 c 0,2.957 -0.09,4.872 -0.26,5.743 -0.15,0.636 -0.36,1.078 -0.66,1.324 -0.29,0.254 -0.7,0.375 -1.22,0.375 -0.55,0 -1.23,-0.149 -2.02,-0.449 l -0.42,1.07 8.21,3.336 z m -2.48,14.25 c 0.84,0 1.55,-0.289 2.13,-0.875 0.58,-0.582 0.88,-1.297 0.88,-2.125 0,-0.832 -0.3,-1.547 -0.88,-2.145 -0.58,-0.593 -1.29,-0.89 -2.13,-0.89 -0.83,0 -1.54,0.297 -2.14,0.89 -0.59,0.598 -0.89,1.313 -0.89,2.145 0,0.828 0.29,1.543 0.87,2.125 0.59,0.586 1.31,0.875 2.16,0.875"
                   style="fill:#231f20;fill-opacity:1;fill-rule:nonzero;stroke:none"
                   id="path18986"
                   inkscape:connector-curvature="0" />
                <path
                   d="m 1099.61,155.219 c -1.33,-1.387 -2.63,-2.387 -3.9,-2.992 -1.26,-0.602 -2.63,-0.907 -4.1,-0.907 -2.97,0 -5.57,1.243 -7.8,3.735 -2.22,2.488 -3.33,5.687 -3.33,9.597 0,3.907 1.23,7.485 3.69,10.731 2.46,3.238 5.62,4.863 9.49,4.863 2.41,0 4.39,-0.766 5.95,-2.289 v 5.027 c 0,3.118 -0.07,5.028 -0.22,5.743 -0.14,0.711 -0.38,1.199 -0.7,1.457 -0.31,0.261 -0.71,0.386 -1.19,0.386 -0.52,0 -1.2,-0.156 -2.05,-0.472 l -0.39,1.039 8.12,3.328 h 1.34 v -31.512 c 0,-3.187 0.08,-5.14 0.23,-5.844 0.15,-0.707 0.39,-1.199 0.71,-1.472 0.33,-0.278 0.71,-0.418 1.15,-0.418 0.53,0 1.25,0.172 2.14,0.504 l 0.33,-1.039 -8.1,-3.364 h -1.37 z m 0,2.082 v 14.047 c -0.11,1.347 -0.47,2.582 -1.07,3.691 -0.59,1.106 -1.38,1.949 -2.36,2.512 -0.98,0.57 -1.94,0.847 -2.87,0.847 -1.75,0 -3.31,-0.781 -4.67,-2.351 -1.81,-2.063 -2.71,-5.078 -2.71,-9.043 0,-4.012 0.87,-7.078 2.61,-9.211 1.75,-2.133 3.69,-3.199 5.84,-3.199 1.8,0 3.55,0.898 5.23,2.707"
                   style="fill:#231f20;fill-opacity:1;fill-rule:nonzero;stroke:none"
                   id="path18988"
                   inkscape:connector-curvature="0" />
                <path
                   d="m 1115.42,169.145 c -0.03,-4.047 0.96,-7.223 2.94,-9.52 1.99,-2.305 4.32,-3.453 7,-3.453 1.78,0 3.34,0.488 4.65,1.473 1.32,0.98 2.43,2.664 3.32,5.043 l 0.92,-0.594 c -0.41,-2.719 -1.62,-5.196 -3.63,-7.422 -2,-2.238 -4.51,-3.352 -7.53,-3.352 -3.27,0 -6.07,1.274 -8.41,3.825 -2.32,2.546 -3.49,5.972 -3.49,10.281 0,4.664 1.2,8.297 3.59,10.906 2.39,2.606 5.39,3.914 9,3.914 3.06,0 5.56,-1.012 7.52,-3.019 1.97,-2.012 2.95,-4.711 2.95,-8.082 z m 0,1.726 h 12.61 c -0.09,1.746 -0.3,2.977 -0.62,3.688 -0.5,1.113 -1.24,1.988 -2.21,2.621 -0.99,0.633 -2.02,0.953 -3.09,0.953 -1.65,0 -3.12,-0.645 -4.42,-1.918 -1.3,-1.285 -2.06,-3.063 -2.27,-5.344"
                   style="fill:#231f20;fill-opacity:1;fill-rule:nonzero;stroke:none"
                   id="path18990"
                   inkscape:connector-curvature="0" />
                <path
                   d="m 1145.83,174.441 c 3.19,3.848 6.24,5.774 9.13,5.774 1.49,0 2.77,-0.371 3.84,-1.117 1.08,-0.743 1.93,-1.969 2.56,-3.676 0.44,-1.188 0.66,-3.012 0.66,-5.473 v -11.636 c 0,-1.727 0.14,-2.895 0.41,-3.512 0.22,-0.496 0.57,-0.883 1.06,-1.156 0.49,-0.282 1.38,-0.418 2.69,-0.418 v -1.071 h -13.48 v 1.071 h 0.57 c 1.27,0 2.16,0.195 2.66,0.578 0.51,0.39 0.86,0.957 1.06,1.711 0.08,0.3 0.12,1.226 0.12,2.797 v 11.16 c 0,2.48 -0.32,4.281 -0.97,5.402 -0.64,1.117 -1.73,1.68 -3.26,1.68 -2.36,0 -4.71,-1.289 -7.05,-3.867 v -14.375 c 0,-1.844 0.11,-2.985 0.32,-3.418 0.28,-0.579 0.67,-1 1.15,-1.27 0.49,-0.266 1.47,-0.398 2.96,-0.398 v -1.071 h -13.48 v 1.071 h 0.6 c 1.39,0 2.32,0.351 2.81,1.05 0.49,0.707 0.73,2.051 0.73,4.036 v 10.117 c 0,3.273 -0.07,5.269 -0.22,5.98 -0.15,0.715 -0.38,1.199 -0.69,1.461 -0.31,0.262 -0.72,0.387 -1.24,0.387 -0.55,0 -1.22,-0.149 -1.99,-0.449 l -0.44,1.07 8.21,3.336 h 1.28 v -5.774"
                   style="fill:#231f20;fill-opacity:1;fill-rule:nonzero;stroke:none"
                   id="path18992"
                   inkscape:connector-curvature="0" />
                <path
                   d="m 1191.5,162.512 c -0.73,-3.598 -2.17,-6.352 -4.31,-8.293 -2.14,-1.93 -4.51,-2.899 -7.11,-2.899 -3.1,0 -5.79,1.301 -8.1,3.899 -2.29,2.597 -3.45,6.109 -3.45,10.535 0,4.281 1.28,7.766 3.83,10.441 2.55,2.68 5.6,4.02 9.18,4.02 2.68,0 4.87,-0.711 6.6,-2.129 1.73,-1.414 2.59,-2.891 2.59,-4.418 0,-0.754 -0.24,-1.363 -0.72,-1.832 -0.49,-0.461 -1.17,-0.699 -2.05,-0.699 -1.17,0 -2.05,0.379 -2.64,1.133 -0.34,0.418 -0.56,1.21 -0.67,2.382 -0.11,1.164 -0.52,2.059 -1.21,2.676 -0.69,0.598 -1.65,0.895 -2.89,0.895 -1.98,0 -3.58,-0.739 -4.79,-2.203 -1.6,-1.942 -2.41,-4.516 -2.41,-7.707 0,-3.25 0.8,-6.129 2.4,-8.618 1.59,-2.488 3.76,-3.73 6.47,-3.73 1.94,0 3.69,0.66 5.24,1.992 1.09,0.914 2.15,2.57 3.18,4.969 l 0.86,-0.414"
                   style="fill:#231f20;fill-opacity:1;fill-rule:nonzero;stroke:none"
                   id="path18994"
                   inkscape:connector-curvature="0" />
                <path
                   d="m 1199.99,169.145 c -0.02,-4.047 0.96,-7.223 2.94,-9.52 1.99,-2.305 4.32,-3.453 7,-3.453 1.78,0 3.33,0.488 4.66,1.473 1.31,0.98 2.42,2.664 3.31,5.043 l 0.92,-0.594 c -0.41,-2.719 -1.62,-5.196 -3.62,-7.422 -2.01,-2.238 -4.52,-3.352 -7.54,-3.352 -3.27,0 -6.07,1.274 -8.4,3.825 -2.33,2.546 -3.5,5.972 -3.5,10.281 0,4.664 1.19,8.297 3.59,10.906 2.39,2.606 5.39,3.914 9,3.914 3.06,0 5.56,-1.012 7.53,-3.019 1.96,-2.012 2.94,-4.711 2.94,-8.082 z m 0,1.726 h 12.62 c -0.1,1.746 -0.31,2.977 -0.63,3.688 -0.5,1.113 -1.24,1.988 -2.21,2.621 -0.99,0.633 -2.02,0.953 -3.09,0.953 -1.64,0 -3.12,-0.645 -4.41,-1.918 -1.31,-1.285 -2.07,-3.063 -2.28,-5.344"
                   style="fill:#231f20;fill-opacity:1;fill-rule:nonzero;stroke:none"
                   id="path18996"
                   inkscape:connector-curvature="0" />
                <path
                   d="m 1242,184.41 c 4.15,7.074 8.79,10.672 13.36,10.672 5.61,0 9.21,-5.062 9.21,-13.965 0,-7.137 -2.26,-14.515 -6.34,-20.609 -4.03,-6.039 -8.48,-9.086 -12.57,-9.086 -5.37,0 -9.08,5.18 -9.08,14.148 0,5.789 1.83,12.68 5.42,18.84 z m -0.42,-23.902 c 0,-4.875 1.83,-7.438 4.27,-7.438 4.2,0 8.54,6.645 11.83,19.813 h -14.21 c -1.22,-4.879 -1.89,-9.024 -1.89,-12.375 z m 18.05,25.367 c 0,4.996 -1.59,7.621 -4.64,7.621 -3.9,0 -7.81,-6.098 -10.91,-18.234 h 14.21 c 0.85,3.965 1.34,7.437 1.34,10.613"
                   style="fill:#231f20;fill-opacity:1;fill-rule:nonzero;stroke:none"
                   id="path18998"
                   inkscape:connector-curvature="0" />
                <path
                   d="m 1275.84,162.684 -4.2,-14.899 c -0.29,-1.012 -0.43,-1.609 -0.43,-1.808 0,-0.227 0.06,-0.414 0.2,-0.551 0.14,-0.141 0.29,-0.215 0.48,-0.215 0.21,0 0.47,0.113 0.77,0.34 0.8,0.64 1.61,1.547 2.44,2.722 l 0.74,-0.488 c -0.96,-1.476 -2.1,-2.715 -3.4,-3.722 -0.96,-0.75 -1.88,-1.125 -2.76,-1.125 -0.58,0 -1.06,0.175 -1.43,0.519 -0.37,0.348 -0.55,0.785 -0.55,1.305 0,0.527 0.18,1.398 0.53,2.617 l 2.77,9.523 c 0.45,1.559 0.68,2.539 0.68,2.93 0,0.316 -0.11,0.566 -0.34,0.766 -0.22,0.203 -0.51,0.3 -0.89,0.3 -0.32,0 -0.97,-0.078 -1.94,-0.234 v 0.828 z m -0.27,8.437 c 0.59,0 1.09,-0.203 1.51,-0.613 0.4,-0.414 0.61,-0.914 0.61,-1.512 0,-0.582 -0.21,-1.078 -0.62,-1.496 -0.42,-0.422 -0.92,-0.629 -1.5,-0.629 -0.59,0 -1.09,0.207 -1.5,0.629 -0.42,0.418 -0.63,0.914 -0.63,1.496 0,0.598 0.21,1.098 0.62,1.512 0.4,0.41 0.91,0.613 1.51,0.613"
                   style="fill:#231f20;fill-opacity:1;fill-rule:nonzero;stroke:none"
                   id="path19000"
                   inkscape:connector-curvature="0" />
                <g
                   id="g19002"
                   transform="scale(4.35312)">
                  <text
                     transform="matrix(1,0,0,-1,9.43918,416.672)"
                     style="font-style:italic;font-variant:normal;font-size:14px;font-family:TimesNewRomanPS;-inkscape-font-specification:TimesNewRomanPS-ItalicMT;writing-mode:lr-tb;fill:#231f20;fill-opacity:1;fill-rule:nonzero;stroke:none"
                     id="text19006">
                    <tspan
                       x="0"
                       y="0"
                       id="tspan19004">R</tspan>
                  </text>
                  <text
                     transform="matrix(1,0,0,-1,17.99088,413.672)"
                     style="font-style:italic;font-variant:normal;font-size:10px;font-family:TimesNewRomanPS;-inkscape-font-specification:TimesNewRomanPS-ItalicMT;writing-mode:lr-tb;fill:#231f20;fill-opacity:1;fill-rule:nonzero;stroke:none"
                     id="text19010">
                    <tspan
                       x="0"
                       y="0"
                       id="tspan19008">F</tspan>
                  </text>
                </g>
                <path
                   d="M 0.523438,0.523438 H 1935.4134 V 120.20744 H 0.523438 Z"
                   style="fill:none;stroke:#222021;stroke-width:1.04474998;stroke-linecap:round;stroke-linejoin:round;stroke-miterlimit:10;stroke-dasharray:none;stroke-opacity:1"
                   id="path19012"
                   inkscape:connector-curvature="0" />
                <g
                   id="g19014"
                   transform="scale(4.35312)">
                  <text
                     transform="matrix(1,0,0,-1,254.096,9.81965)"
                     style="font-variant:normal;font-weight:normal;font-size:14px;font-family:TimesNewRomanPSMT;-inkscape-font-specification:TimesNewRomanPSMT;writing-mode:lr-tb;fill:#231f20;fill-opacity:1;fill-rule:nonzero;stroke:none"
                     id="text19018">
                    <tspan
                       x="0 7 10.892 17.108 28 35 42"
                       y="0"
                       sodipodi:role="line"
                       id="tspan19016">diamond</tspan>
                  </text>
                </g>
                <path
                   d="m 1003.63,60.8477 h 72.11"
                   style="fill:none;stroke:#f19c1b;stroke-width:8.70623016;stroke-linecap:round;stroke-linejoin:round;stroke-miterlimit:10;stroke-dasharray:none;stroke-opacity:1"
                   id="path19020"
                   inkscape:connector-curvature="0" />
                <g
                   id="g19022"
                   transform="scale(4.35312)">
                  <text
                     transform="matrix(1,0,0,-1,31.7023,9.42034)"
                     style="font-variant:normal;font-weight:normal;font-size:14px;font-family:TimesNewRomanPSMT;-inkscape-font-specification:TimesNewRomanPSMT;writing-mode:lr-tb;fill:#231f20;fill-opacity:1;fill-rule:nonzero;stroke:none"
                     id="text19026">
                    <tspan
                       x="0 6.2160001 13.216 20.216 27.216 33.431999"
                       y="0"
                       sodipodi:role="line"
                       id="tspan19024">copper</tspan>
                  </text>
                </g>
                <path
                   d="M 35.0195,59.1055 H 107.129"
                   style="fill:none;stroke:#ef3120;stroke-width:8.70623016;stroke-linecap:round;stroke-linejoin:round;stroke-miterlimit:10;stroke-dasharray:none;stroke-opacity:1"
                   id="path19028"
                   inkscape:connector-curvature="0" />
                <path
                   d="M 35.0195,46.0469 H 107.129"
                   style="fill:none;stroke:#ef3120;stroke-width:8.70623016;stroke-linecap:round;stroke-linejoin:round;stroke-miterlimit:10;stroke-dasharray:none;stroke-opacity:1"
                   id="path19030"
                   inkscape:connector-curvature="0" />
                <path
                   d="M 35.0195,72.1641 H 107.129"
                   style="fill:none;stroke:#ef3120;stroke-width:8.70623016;stroke-linecap:round;stroke-linejoin:round;stroke-miterlimit:10;stroke-dasharray:none;stroke-opacity:1"
                   id="path19032"
                   inkscape:connector-curvature="0" />
                <g
                   id="g19034"
                   transform="scale(4.35312)">
                  <text
                     transform="matrix(1,0,0,-1,102.938,9.95336)"
                     style="font-variant:normal;font-weight:normal;font-size:14px;font-family:TimesNewRomanPSMT;-inkscape-font-specification:TimesNewRomanPSMT;writing-mode:lr-tb;fill:#231f20;fill-opacity:1;fill-rule:nonzero;stroke:none"
                     id="text19038">
                    <tspan
                       x="0 6.2160001 10.108 17.108 28 31.892 38.891998 45.891998"
                       y="0"
                       sodipodi:role="line"
                       id="tspan19036">aluminum</tspan>
                  </text>
                </g>
                <path
                   d="m 354.16,61.4258 h 72.106"
                   style="fill:none;stroke:#5b349a;stroke-width:8.70623016;stroke-linecap:round;stroke-linejoin:round;stroke-miterlimit:10;stroke-dasharray:none;stroke-opacity:1"
                   id="path19040"
                   inkscape:connector-curvature="0" />
                <path
                   d="m 354.16,48.3672 h 72.106"
                   style="fill:none;stroke:#5b349a;stroke-width:8.70623016;stroke-linecap:round;stroke-linejoin:round;stroke-miterlimit:10;stroke-dasharray:none;stroke-opacity:1"
                   id="path19042"
                   inkscape:connector-curvature="0" />
                <path
                   d="m 354.16,74.4844 h 72.106"
                   style="fill:none;stroke:#5b349a;stroke-width:8.70623016;stroke-linecap:round;stroke-linejoin:round;stroke-miterlimit:10;stroke-dasharray:none;stroke-opacity:1"
                   id="path19044"
                   inkscape:connector-curvature="0" />
                <g
                   id="g19046"
                   transform="scale(4.35312)">
                  <text
                     transform="matrix(1,0,0,-1,193.894,9.88606)"
                     style="font-variant:normal;font-weight:normal;font-size:14px;font-family:TimesNewRomanPSMT;-inkscape-font-specification:TimesNewRomanPSMT;writing-mode:lr-tb;fill:#231f20;fill-opacity:1;fill-rule:nonzero;stroke:none"
                     id="text19050">
                    <tspan
                       x="0 3.892 8.5539999 15.554"
                       y="0"
                       sodipodi:role="line"
                       id="tspan19048">iron</tspan>
                  </text>
                </g>
                <path
                   d="m 744.91,61.1406 h 72.11"
                   style="fill:none;stroke:#6d7479;stroke-width:8.70623016;stroke-linecap:round;stroke-linejoin:round;stroke-miterlimit:10;stroke-dasharray:none;stroke-opacity:1"
                   id="path19052"
                   inkscape:connector-curvature="0" />
                <g
                   id="g19054"
                   transform="scale(4.35312)">
                  <text
                     transform="matrix(1,0,0,-1,340.438,10.2872)"
                     style="font-variant:normal;font-weight:normal;font-size:14px;font-family:TimesNewRomanPSMT;-inkscape-font-specification:TimesNewRomanPSMT;writing-mode:lr-tb;fill:#231f20;fill-opacity:1;fill-rule:nonzero;stroke:none"
                     id="text19058">
                    <tspan
                       x="0 7 10.892 17.108 22.554001"
                       y="0"
                       sodipodi:role="line"
                       id="tspan19056">glass</tspan>
                  </text>
                </g>
                <path
                   d="m 1378.65,61.8086 h 72.11"
                   style="fill:none;stroke:#31ac4b;stroke-width:8.70623016;stroke-linecap:round;stroke-linejoin:round;stroke-miterlimit:10;stroke-dasharray:none;stroke-opacity:1"
                   id="path19060"
                   inkscape:connector-curvature="0" />
                <g
                   id="g19062"
                   transform="scale(4.35312)">
                  <text
                     transform="matrix(1,0,0,-1,407.47,10.3527)"
                     style="font-variant:normal;font-weight:normal;font-size:14px;font-family:TimesNewRomanPSMT;-inkscape-font-specification:TimesNewRomanPSMT;writing-mode:lr-tb;fill:#231f20;fill-opacity:1;fill-rule:nonzero;stroke:none"
                     id="text19066">
                    <tspan
                       x="0 10.108 16.323999 20.216 26.431999"
                       y="0"
                       sodipodi:role="line"
                       id="tspan19064">water</tspan>
                  </text>
                </g>
                <path
                   d="m 1670.78,61.0352 h 72.11"
                   style="fill:none;stroke:#35a7e3;stroke-width:8.70623016;stroke-linecap:round;stroke-linejoin:round;stroke-miterlimit:10;stroke-dasharray:none;stroke-opacity:1"
                   id="path19068"
                   inkscape:connector-curvature="0" />
                <path
                   d="m 114.391,1665.07 h 35.148 m 0,0 h 20.301 m 0,0 h 19.418 m 0,0 h 20.297 m 0,0 h 19.422 m 0,0 h 20.296 m 0,0 h 19.415 m 0,0 h 20.3 m 0,0 h 19.418 m 0,0 h 20.297 m 0,0 h 19.422 m 0,0 h 20.301 m 0,0 h 19.41 m 0,0 h 20.297 m 0,0 h 19.426 m 0,0 h 20.296 m 0,0 h 20.297 m 0,0 h 19.418 m 0,0 h 20.305 m 0,0 h 19.41 m 0,0 h 20.301 m 0,0 h 19.422 m 0,0 h 20.297 m 0,0 h 19.41 m 0,0 h 20.305 m 0,0 h 19.418 m 0,0 h 20.296 m 0,0 h 19.422 m 0,0 20.297,-1 m 0,0 h 19.414 m 0,0 h 20.305 m 0,0 h 19.418 m 0,0 h 20.297 m 0,0 h 20.297 m 0,0 h 19.418 m 0,0 20.3,-1.01 m 0,0 h 19.414 m 0,0 h 20.305 m 0,0 h 19.418 m 0,0 20.293,-1.01 m 0,0 h 19.422 m 0,0 h 20.301 m 0,0 19.414,-1.01 m 0,0 h 20.301 m 0,0 h 19.41 m 0,0 20.31,-1 m 0,0 h 19.42 m 0,0 20.29,-1.01 m 0,0 h 20.31 m 0,0 h 19.41 m 0,0 20.29,-1.01 m 0,0 h 19.42 m 0,0 20.3,-1.01 m 0,0 19.42,-1.01 m 0,0 h 20.3 m 0,0 19.42,-1 m 0,0 h 20.3 m 0,0 19.42,-1.01 m 0,0 h 20.28 m 0,0 19.43,-1.01 m 0,0 h 20.3 m 0,0 19.41,-1.01 m 0,0 h 20.31 m 0,0 19.41,-1.01 m 0,0 h 20.3 m 0,0 h 20.3 m 0,0 19.41,-1 m 0,0 h 20.31 m 0,0 19.41,1 m 0,0 h 20.3 m 0,0 19.42,1.01 m 0,0 h 20.3 m 0,0 19.42,2.02 m 0,0 20.29,1.01 m 0,0 19.42,2.01 m 0,0 20.3,2.02 m 0,0 19.42,3.02 m 0,0 20.3,4.03 m 0,0 19.42,4.04 m 0,0 20.3,4.03 m 0,0 19.41,6.05 m 0,0 20.3,6.05 m 0,0 20.3,6.04 m 0,0 19.42,7.06 m 0,0 20.31,7.05 m 0,0 19.4,8.07 m 0,0 20.31,7.05 m 0,0 19.42,8.06 m 0,0 15.94,1.71"
                   style="fill:none;stroke:#ef3120;stroke-width:8.70623016;stroke-linecap:round;stroke-linejoin:round;stroke-miterlimit:10;stroke-dasharray:none;stroke-opacity:1"
                   id="path19070"
                   inkscape:connector-curvature="0" />
                <path
                   d="m 114.391,1217.54 h 35.148 m 0,0 h 20.301 m 0,0 h 19.418 m 0,0 h 20.297 m 0,0 h 19.422 m 0,0 h 20.296 m 0,0 h 19.415 m 0,0 h 20.3 m 0,0 h 19.418 m 0,0 h 20.297 m 0,0 h 19.422 m 0,0 h 20.301 m 0,0 h 19.41 m 0,0 h 20.297 m 0,0 h 19.426 m 0,0 h 20.296 m 0,0 h 20.297 m 0,0 h 19.418 m 0,0 h 20.305 m 0,0 h 19.41 m 0,0 h 20.301 m 0,0 h 19.422 m 0,0 h 20.297 m 0,0 h 19.41 m 0,0 h 20.305 m 0,0 h 19.418 m 0,0 h 20.296 m 0,0 h 19.422 m 0,0 20.297,-1.01 m 0,0 h 19.414 m 0,0 h 20.305 m 0,0 h 19.418 m 0,0 h 20.297 m 0,0 h 20.297 m 0,0 h 19.418 m 0,0 h 20.3 m 0,0 h 19.414 m 0,0 20.305,-1.01 m 0,0 h 19.418 m 0,0 h 20.293 m 0,0 h 19.422 m 0,0 h 20.301 m 0,0 h 19.414 m 0,0 h 20.301 m 0,0 19.41,-1 m 0,0 h 20.31 m 0,0 h 19.42 m 0,0 h 20.29 m 0,0 h 20.31 m 0,0 h 19.41 m 0,0 h 20.29 m 0,0 h 19.42 m 0,0 h 20.3 m 0,0 19.42,1 m 0,0 h 20.3 m 0,0 h 19.42 m 0,0 20.3,1.01 m 0,0 19.42,1.01 m 0,0 20.28,1 m 0,0 19.43,1.01 m 0,0 20.3,1.01 m 0,0 19.41,1.01 m 0,0 20.31,2.02 m 0,0 19.41,2.01 m 0,0 20.3,3.03 m 0,0 20.3,3.02 m 0,0 19.41,4.03 m 0,0 20.31,4.03 m 0,0 19.41,5.04 m 0,0 20.3,6.05 m 0,0 19.42,6.05 m 0,0 20.3,8.06 m 0,0 19.42,8.06 m 0,0 20.29,11.1 m 0,0 19.42,11.08 m 0,0 20.3,13.1 m 0,0 19.42,15.13 m 0,0 20.3,17.13 m 0,0 19.42,20.16 m 0,0 20.3,22.17 m 0,0 19.41,25.2 m 0,0 20.3,28.22 m 0,0 20.3,31.25 m 0,0 19.42,34.27 m 0,0 20.31,39.31 m 0,0 19.4,42.34 m 0,0 20.31,47.37 m 0,0 19.42,50.4 m 0,0 15.94,50.09"
                   style="fill:none;stroke:#ef3120;stroke-width:8.70623016;stroke-linecap:round;stroke-linejoin:round;stroke-miterlimit:10;stroke-dasharray:none;stroke-opacity:1"
                   id="path19072"
                   inkscape:connector-curvature="0" />
                <path
                   d="m 114.391,1068.36 h 35.148 m 0,0 h 20.301 m 0,0 h 19.418 m 0,0 h 20.297 m 0,0 h 19.422 m 0,0 h 20.296 m 0,0 h 19.415 m 0,0 h 20.3 m 0,0 h 19.418 m 0,0 h 20.297 m 0,0 h 19.422 m 0,0 h 20.301 m 0,0 h 19.41 m 0,0 h 20.297 m 0,0 h 19.426 m 0,0 h 20.296 m 0,0 h 20.297 m 0,0 h 19.418 m 0,0 h 20.305 m 0,0 h 19.41 m 0,0 h 20.301 m 0,0 h 19.422 m 0,0 h 20.297 m 0,0 h 19.41 m 0,0 h 20.305 m 0,0 h 19.418 m 0,0 h 20.296 m 0,0 h 19.422 m 0,0 h 20.297 m 0,0 h 19.414 m 0,0 h 20.305 m 0,0 h 19.418 m 0,0 h 20.297 m 0,0 h 20.297 m 0,0 19.418,1 m 0,0 h 20.3 m 0,0 h 19.414 m 0,0 h 20.305 m 0,0 h 19.418 m 0,0 h 20.293 m 0,0 h 19.422 m 0,0 h 20.301 m 0,0 19.414,1.02 m 0,0 h 20.301 m 0,0 h 19.41 m 0,0 h 20.31 m 0,0 19.42,1 m 0,0 h 20.29 m 0,0 20.31,1.01 m 0,0 h 19.41 m 0,0 20.29,1 m 0,0 19.42,1.02 m 0,0 20.3,1 m 0,0 19.42,1.01 m 0,0 20.3,1.01 m 0,0 19.42,1.01 m 0,0 20.3,2.01 m 0,0 19.42,1.01 m 0,0 20.28,2.02 m 0,0 19.43,3.02 m 0,0 20.3,2.02 m 0,0 19.41,3.02 m 0,0 20.31,3.02 m 0,0 19.41,4.04 m 0,0 20.3,4.03 m 0,0 20.3,5.04 m 0,0 19.41,6.04 m 0,0 20.31,6.06 m 0,0 19.41,7.05 m 0,0 20.3,8.06 m 0,0 19.42,9.08 m 0,0 20.3,10.07 m 0,0 19.42,12.1 m 0,0 20.29,13.1 m 0,0 19.42,15.13 m 0,0 20.3,16.12 m 0,0 19.42,19.15 m 0,0 20.3,22.18 m 0,0 19.42,24.19 m 0,0 20.3,26.21 m 0,0 19.41,31.25 m 0,0 20.3,33.26 m 0,0 20.3,38.3 m 0,0 19.42,42.34 m 0,0 20.31,47.37 m 0,0 19.4,52.41 m 0,0 20.31,57.46 m 0,0 19.42,62.49 m 0,0 15.94,64.2"
                   style="fill:none;stroke:#ef3120;stroke-width:8.70623016;stroke-linecap:round;stroke-linejoin:round;stroke-miterlimit:10;stroke-dasharray:none;stroke-opacity:1"
                   id="path19074"
                   inkscape:connector-curvature="0" />
                <path
                   d="m 114.391,1109.68 h 35.148 m 0,0 h 20.301 m 0,0 h 19.418 m 0,0 h 20.297 m 0,0 h 19.422 m 0,0 h 20.296 m 0,0 h 19.415 m 0,0 h 20.3 m 0,0 h 19.418 m 0,0 h 20.297 m 0,0 h 19.422 m 0,0 h 20.301 m 0,0 h 19.41 m 0,0 h 20.297 m 0,0 h 19.426 m 0,0 h 20.296 m 0,0 h 20.297 m 0,0 h 19.418 m 0,0 h 20.305 m 0,0 19.41,-1 m 0,0 h 20.301 m 0,0 h 19.422 m 0,0 h 20.297 m 0,0 h 19.41 m 0,0 h 20.305 m 0,0 h 19.418 m 0,0 h 20.296 m 0,0 19.422,-1.01 m 0,0 h 20.297 m 0,0 h 19.414 m 0,0 h 20.305 m 0,0 19.418,-1.01 m 0,0 h 20.297 m 0,0 h 20.297 m 0,0 19.418,-1.01 m 0,0 h 20.3 m 0,0 h 19.414 m 0,0 20.305,-1.01 m 0,0 h 19.418 m 0,0 20.293,-1.01 m 0,0 19.422,-1 m 0,0 h 20.301 m 0,0 19.414,-1.01 m 0,0 20.301,-1.01 m 0,0 h 19.41 m 0,0 20.31,-1.01 m 0,0 19.42,-1 m 0,0 20.29,-1.01 m 0,0 20.31,-1.01 m 0,0 19.41,-1.01 m 0,0 20.29,-2.01 m 0,0 19.42,-1.01 m 0,0 20.3,-1.01 m 0,0 19.42,-2.02 m 0,0 20.3,-1 m 0,0 19.42,-1.01 m 0,0 20.3,-2.01 m 0,0 19.42,-2.02 m 0,0 20.28,-1.01 m 0,0 19.43,-2.02 m 0,0 20.3,-2.01 m 0,0 19.41,-1.01 m 0,0 20.31,-2.02 m 0,0 19.41,-1 m 0,0 20.3,-2.02 m 0,0 20.3,-1.01 m 0,0 19.41,-1 m 0,0 20.31,-1.02 m 0,0 19.41,-1 m 0,0 h 20.3 m 0,0 h 19.42 m 0,0 20.3,1 m 0,0 19.42,2.02 m 0,0 20.29,3.03 m 0,0 19.42,5.04 m 0,0 20.3,6.05 m 0,0 19.42,8.06 m 0,0 20.3,11.08 m 0,0 19.42,14.12 m 0,0 20.3,19.15 m 0,0 19.41,23.18 m 0,0 20.3,29.23 m 0,0 20.3,37.29 m 0,0 19.42,47.38 m 0,0 20.31,58.47 m 0,0 19.4,72.57 m 0,0 20.31,88.7 m 0,0 19.42,108.86 m 0,0 15.94,127.7"
                   style="fill:none;stroke:#6d7479;stroke-width:8.70623016;stroke-linecap:round;stroke-linejoin:round;stroke-miterlimit:10;stroke-dasharray:none;stroke-opacity:1"
                   id="path19076"
                   inkscape:connector-curvature="0" />
                <path
                   d="m 114.391,1610.65 h 35.148 m 0,0 h 20.301 m 0,0 h 19.418 m 0,0 h 20.297 m 0,0 h 19.422 m 0,0 h 20.296 m 0,0 h 19.415 m 0,0 h 20.3 m 0,0 h 19.418 m 0,0 h 20.297 m 0,0 h 19.422 m 0,0 h 20.301 m 0,0 h 19.41 m 0,0 h 20.297 m 0,0 h 19.426 m 0,0 h 20.296 m 0,0 h 20.297 m 0,0 h 19.418 m 0,0 h 20.305 m 0,0 h 19.41 m 0,0 h 20.301 m 0,0 h 19.422 m 0,0 h 20.297 m 0,0 19.41,-1.01 m 0,0 h 20.305 m 0,0 h 19.418 m 0,0 h 20.296 m 0,0 h 19.422 m 0,0 h 20.297 m 0,0 h 19.414 m 0,0 h 20.305 m 0,0 19.418,-1.01 m 0,0 h 20.297 m 0,0 h 20.297 m 0,0 h 19.418 m 0,0 20.3,-1.01 m 0,0 h 19.414 m 0,0 h 20.305 m 0,0 19.418,-1.01 m 0,0 h 20.293 m 0,0 h 19.422 m 0,0 20.301,-1 m 0,0 19.414,-1.01 m 0,0 h 20.301 m 0,0 19.41,-1.01 m 0,0 h 20.31 m 0,0 19.42,-1.01 m 0,0 20.29,-1.01 m 0,0 20.31,-1 m 0,0 19.41,-1.02 m 0,0 20.29,-1 m 0,0 19.42,-1.01 m 0,0 20.3,-1 m 0,0 19.42,-1.01 m 0,0 20.3,-2.02 m 0,0 19.42,-1.01 m 0,0 20.3,-2.02 m 0,0 19.42,-1.01 m 0,0 20.28,-2.01 m 0,0 19.43,-2.01 m 0,0 20.3,-2.02 m 0,0 19.41,-3.02 m 0,0 20.31,-2.02 m 0,0 19.41,-3.02 m 0,0 20.3,-3.03 m 0,0 20.3,-3.02 m 0,0 19.41,-3.03 m 0,0 20.31,-4.03 m 0,0 19.41,-4.03 m 0,0 20.3,-4.03 m 0,0 19.42,-4.03 m 0,0 20.3,-5.04 m 0,0 19.42,-5.04 m 0,0 20.29,-5.04 m 0,0 19.42,-5.04 m 0,0 20.3,-6.05 m 0,0 19.42,-5.04 m 0,0 20.3,-5.04 m 0,0 19.42,-5.04 m 0,0 20.3,-4.03 m 0,0 19.41,-2.02 m 0,0 20.3,1.01 m 0,0 20.3,5.04 m 0,0 19.42,11.09 m 0,0 20.31,19.15 m 0,0 19.4,29.23 m 0,0 20.31,43.34 m 0,0 19.42,56.45 m 0,0 15.94,63.19"
                   style="fill:none;stroke:#5b349a;stroke-width:8.70623016;stroke-linecap:round;stroke-linejoin:round;stroke-miterlimit:10;stroke-dasharray:none;stroke-opacity:1"
                   id="path19078"
                   inkscape:connector-curvature="0" />
                <path
                   d="m 114.906,1622.74 h 34.633 m 0,0 h 20.301 m 0,0 h 19.418 m 0,0 h 20.297 m 0,0 h 19.422 m 0,0 h 20.296 m 0,0 h 19.415 m 0,0 h 20.3 m 0,0 h 19.418 m 0,0 h 20.297 m 0,0 h 19.422 m 0,0 h 20.301 m 0,0 h 19.41 m 0,0 h 20.297 m 0,0 h 19.426 m 0,0 h 20.296 m 0,0 h 20.297 m 0,0 h 19.418 m 0,0 h 20.305 m 0,0 h 19.41 m 0,0 h 20.301 m 0,0 h 19.422 m 0,0 h 20.297 m 0,0 h 19.41 m 0,0 h 20.305 m 0,0 h 19.418 m 0,0 20.296,-1.01 m 0,0 h 19.422 m 0,0 h 20.297 m 0,0 h 19.414 m 0,0 h 20.305 m 0,0 h 19.418 m 0,0 h 20.297 m 0,0 20.297,-1.01 m 0,0 h 19.418 m 0,0 h 20.3 m 0,0 h 19.414 m 0,0 20.305,-1 m 0,0 h 19.418 m 0,0 h 20.293 m 0,0 19.422,-1.01 m 0,0 h 20.301 m 0,0 19.414,-1.01 m 0,0 h 20.301 m 0,0 19.41,-1.01 m 0,0 h 20.31 m 0,0 19.42,-1.01 m 0,0 20.29,-1 m 0,0 h 20.31 m 0,0 19.41,-1.01 m 0,0 20.29,-1.01 m 0,0 19.42,-1.01 m 0,0 20.3,-1 m 0,0 19.42,-1.01 m 0,0 20.3,-1.01 m 0,0 19.42,-2.02 m 0,0 20.3,-1 m 0,0 19.42,-1.01 m 0,0 20.28,-2.02 m 0,0 19.43,-2.01 m 0,0 20.3,-2.02 m 0,0 19.41,-1.01 m 0,0 20.31,-3.02 m 0,0 19.41,-2.02 m 0,0 20.3,-2.02 m 0,0 20.3,-3.02 m 0,0 19.41,-2.01 m 0,0 20.31,-3.03 m 0,0 19.41,-3.02 m 0,0 20.3,-3.03 m 0,0 19.42,-4.03 m 0,0 20.3,-3.02 m 0,0 19.42,-4.03 m 0,0 20.29,-3.03 m 0,0 19.42,-4.03 m 0,0 20.3,-3.03 m 0,0 19.42,-3.02 m 0,0 20.3,-3.02 m 0,0 19.42,-1.01 m 0,0 20.3,-1.01 m 0,0 19.41,2.02 m 0,0 20.3,4.03 m 0,0 20.3,8.06 m 0,0 19.42,12.1 m 0,0 20.31,18.14 m 0,0 19.4,25.2 m 0,0 20.31,33.27 m 0,0 19.42,40.31 m 0,0 15.94,41.02"
                   style="fill:none;stroke:#5b349a;stroke-width:8.70623016;stroke-linecap:round;stroke-linejoin:round;stroke-miterlimit:10;stroke-dasharray:none;stroke-opacity:1"
                   id="path19080"
                   inkscape:connector-curvature="0" />
                <path
                   d="m 114.77,1626.77 h 34.769 m 0,0 h 20.301 m 0,0 h 19.418 m 0,0 h 20.297 m 0,0 h 19.422 m 0,0 h 20.296 m 0,0 h 19.415 m 0,0 h 20.3 m 0,0 h 19.418 m 0,0 h 20.297 m 0,0 h 19.422 m 0,0 h 20.301 m 0,0 h 19.41 m 0,0 h 20.297 m 0,0 h 19.426 m 0,0 h 20.296 m 0,0 h 20.297 m 0,0 h 19.418 m 0,0 h 20.305 m 0,0 h 19.41 m 0,0 h 20.301 m 0,0 h 19.422 m 0,0 h 20.297 m 0,0 h 19.41 m 0,0 h 20.305 m 0,0 19.418,-1 m 0,0 h 20.296 m 0,0 h 19.422 m 0,0 h 20.297 m 0,0 h 19.414 m 0,0 h 20.305 m 0,0 h 19.418 m 0,0 h 20.297 m 0,0 20.297,-1.01 m 0,0 h 19.418 m 0,0 h 20.3 m 0,0 h 19.414 m 0,0 20.305,-1.01 m 0,0 h 19.418 m 0,0 h 20.293 m 0,0 19.422,-1.01 m 0,0 h 20.301 m 0,0 h 19.414 m 0,0 20.301,-1.01 m 0,0 h 19.41 m 0,0 20.31,-1.01 m 0,0 h 19.42 m 0,0 20.29,-1 m 0,0 20.31,-1.01 m 0,0 h 19.41 m 0,0 20.29,-1.01 m 0,0 19.42,-1.01 m 0,0 20.3,-1.01 m 0,0 19.42,-1 m 0,0 20.3,-1.01 m 0,0 19.42,-1.01 m 0,0 20.3,-1.01 m 0,0 19.42,-1 m 0,0 20.28,-1.01 m 0,0 19.43,-2.02 m 0,0 20.3,-1.01 m 0,0 19.41,-2.01 m 0,0 20.31,-1.01 m 0,0 19.41,-2.02 m 0,0 20.3,-2.02 m 0,0 20.3,-2.01 m 0,0 19.41,-2.01 m 0,0 20.31,-2.02 m 0,0 19.41,-2.02 m 0,0 20.3,-2.02 m 0,0 19.42,-2.01 m 0,0 20.3,-2.01 m 0,0 19.42,-2.02 m 0,0 20.29,-2.01 m 0,0 19.42,-1.01 m 0,0 20.3,-1.01 m 0,0 19.42,-1.01 m 0,0 h 20.3 m 0,0 19.42,2.02 m 0,0 20.3,2.01 m 0,0 19.41,5.04 m 0,0 20.3,7.06 m 0,0 20.3,9.07 m 0,0 19.42,13.1 m 0,0 20.31,16.13 m 0,0 19.4,21.17 m 0,0 20.31,24.19 m 0,0 19.42,27.21 m 0,0 15.94,25.9"
                   style="fill:none;stroke:#5b349a;stroke-width:8.70623016;stroke-linecap:round;stroke-linejoin:round;stroke-miterlimit:10;stroke-dasharray:none;stroke-opacity:1"
                   id="path19082"
                   inkscape:connector-curvature="0" />
                <path
                   d="m 114.391,543.207 h 35.148 m 0,0 h 20.301 m 0,0 h 19.418 m 0,0 h 20.297 m 0,0 h 19.422 m 0,0 h 20.296 m 0,0 h 19.415 m 0,0 h 20.3 m 0,0 h 19.418 m 0,0 h 20.297 m 0,0 h 19.422 m 0,0 h 20.301 m 0,0 h 19.41 m 0,0 h 20.297 m 0,0 h 19.426 m 0,0 h 20.296 m 0,0 h 20.297 m 0,0 h 19.418 m 0,0 20.305,1.008 m 0,0 h 19.41 m 0,0 h 20.301 m 0,0 h 19.422 m 0,0 h 20.297 m 0,0 h 19.41 m 0,0 h 20.305 m 0,0 19.418,1.008 m 0,0 h 20.296 m 0,0 h 19.422 m 0,0 h 20.297 m 0,0 19.414,1.004 m 0,0 h 20.305 m 0,0 h 19.418 m 0,0 20.297,1.015 m 0,0 h 20.297 m 0,0 19.418,1.004 m 0,0 20.3,0.996 m 0,0 h 19.414 m 0,0 20.305,1.02 m 0,0 19.418,1.008 m 0,0 20.293,1.015 m 0,0 19.422,0.996 m 0,0 20.301,1.016 m 0,0 19.414,1.008 m 0,0 20.301,1.008 m 0,0 19.41,2.003 m 0,0 20.31,1.024 m 0,0 19.42,2.012 m 0,0 20.29,2.015 m 0,0 20.31,2.012 m 0,0 19.41,2.012 m 0,0 20.29,3.031 m 0,0 19.42,2.023 m 0,0 20.3,3.012 m 0,0 19.42,3.027 m 0,0 20.3,4.028 m 0,0 19.42,4.039 m 0,0 20.3,4.027 m 0,0 19.42,4.031 m 0,0 20.28,5.039 m 0,0 19.43,6.059 m 0,0 20.3,6.035 m 0,0 19.41,6.055 m 0,0 20.31,7.051 m 0,0 19.41,8.066 m 0,0 20.3,8.066 m 0,0 20.3,10.083 m 0,0 19.41,10.074 m 0,0 20.31,11.09 m 0,0 19.41,13.097 m 0,0 20.3,14.11 m 0,0 19.42,15.129 m 0,0 20.3,17.14 m 0,0 19.42,19.137 m 0,0 20.29,20.164 m 0,0 19.42,24.191 m 0,0 20.3,25.203 m 0,0 19.42,29.231 m 0,0 20.3,33.262 m 0,0 19.42,36.281 m 0,0 20.3,41.332 m 0,0 19.41,47.376 m 0,0 20.3,53.42 m 0,0 20.3,60.48 m 0,0 19.42,68.54 m 0,0 20.31,79.63 m 0,0 19.4,91.73 m 0,0 20.31,105.83 m 0,0 19.42,123.98 m 0,0 15.94,139.8"
                   style="fill:none;stroke:#f19c1b;stroke-width:8.70623016;stroke-linecap:round;stroke-linejoin:round;stroke-miterlimit:10;stroke-dasharray:none;stroke-opacity:1"
                   id="path19084"
                   inkscape:connector-curvature="0" />
                <path
                   d="m 114.391,361.773 h 35.148 m 0,0 h 20.301 m 0,0 h 19.418 m 0,0 h 20.297 m 0,0 h 19.422 m 0,0 h 20.296 m 0,0 h 19.415 m 0,0 20.3,1.008 m 0,0 h 19.418 m 0,0 h 20.297 m 0,0 h 19.422 m 0,0 h 20.301 m 0,0 h 19.41 m 0,0 h 20.297 m 0,0 h 19.426 m 0,0 h 20.296 m 0,0 h 20.297 m 0,0 h 19.418 m 0,0 h 20.305 m 0,0 h 19.41 m 0,0 h 20.301 m 0,0 h 19.422 m 0,0 h 20.297 m 0,0 19.41,1.004 m 0,0 h 20.305 m 0,0 h 19.418 m 0,0 h 20.296 m 0,0 h 19.422 m 0,0 20.297,1.008 m 0,0 h 19.414 m 0,0 20.305,1.004 m 0,0 h 19.418 m 0,0 20.297,1.004 m 0,0 h 20.297 m 0,0 19.418,1.019 m 0,0 h 20.3 m 0,0 19.414,1.012 m 0,0 20.305,1.004 m 0,0 19.418,1.012 m 0,0 20.293,1.004 m 0,0 19.422,1.003 m 0,0 20.301,2.016 m 0,0 19.414,1.008 m 0,0 20.301,2.019 m 0,0 19.41,2.016 m 0,0 20.31,2.016 m 0,0 19.42,2.015 m 0,0 20.29,2.016 m 0,0 20.31,3.023 m 0,0 19.41,3.024 m 0,0 20.29,3.027 m 0,0 19.42,4.028 m 0,0 20.3,3.031 m 0,0 19.42,5.031 m 0,0 20.3,4.039 m 0,0 19.42,5.039 m 0,0 20.3,6.043 m 0,0 19.42,6.047 m 0,0 20.28,7.062 m 0,0 19.43,8.067 m 0,0 20.3,8.058 m 0,0 19.41,9.075 m 0,0 20.31,10.078 m 0,0 19.41,11.082 m 0,0 20.3,11.094 m 0,0 20.3,14.109 m 0,0 19.41,14.109 m 0,0 20.31,16.125 m 0,0 19.41,17.145 m 0,0 20.3,19.141 m 0,0 19.42,21.171 m 0,0 20.3,24.192 m 0,0 19.42,25.203 m 0,0 20.29,28.223 m 0,0 19.42,31.242 m 0,0 20.3,34.269 m 0,0 19.42,38.305 m 0,0 20.3,42.336 m 0,0 19.42,46.371 m 0,0 20.3,51.41 m 0,0 19.41,57.449 m 0,0 20.3,63.501 m 0,0 20.3,69.55 m 0,0 19.42,78.62 m 0,0 20.31,86.69 m 0,0 19.4,97.77 m 0,0 20.31,107.85 m 0,0 19.42,121.96 m 0,0 15.94,131.74"
                   style="fill:none;stroke:#45ba3a;stroke-width:8.70623016;stroke-linecap:round;stroke-linejoin:round;stroke-miterlimit:10;stroke-dasharray:none;stroke-opacity:1"
                   id="path19086"
                   inkscape:connector-curvature="0" />
                <path
                   d="m 114.391,324.477 h 35.148 m 0,0 h 20.301 m 0,0 h 19.418 m 0,0 h 20.297 m 0,0 h 19.422 m 0,0 h 20.296 m 0,0 h 19.415 m 0,0 h 20.3 m 0,0 h 19.418 m 0,0 h 20.297 m 0,0 h 19.422 m 0,0 h 20.301 m 0,0 h 19.41 m 0,0 h 20.297 m 0,0 h 19.426 m 0,0 h 20.296 m 0,0 h 20.297 m 0,0 h 19.418 m 0,0 h 20.305 m 0,0 h 19.41 m 0,0 20.301,1.007 m 0,0 h 19.422 m 0,0 h 20.297 m 0,0 h 19.41 m 0,0 h 20.305 m 0,0 h 19.418 m 0,0 h 20.296 m 0,0 h 19.422 m 0,0 20.297,1.012 m 0,0 h 19.414 m 0,0 h 20.305 m 0,0 h 19.418 m 0,0 20.297,1.008 m 0,0 h 20.297 m 0,0 19.418,1 m 0,0 h 20.3 m 0,0 19.414,1.016 m 0,0 h 20.305 m 0,0 19.418,1 m 0,0 20.293,1.003 m 0,0 19.422,1.016 m 0,0 20.301,1.008 m 0,0 19.414,1.012 m 0,0 20.301,1.004 m 0,0 19.41,1.011 m 0,0 20.31,2.008 m 0,0 19.42,1.004 m 0,0 20.29,2.027 m 0,0 20.31,2.016 m 0,0 19.41,2.016 m 0,0 20.29,3.015 m 0,0 19.42,3.035 m 0,0 20.3,3.024 m 0,0 19.42,3.015 m 0,0 20.3,4.039 m 0,0 19.42,4.024 m 0,0 20.3,5.051 m 0,0 19.42,5.031 m 0,0 20.28,5.039 m 0,0 19.43,7.066 m 0,0 20.3,7.051 m 0,0 19.41,7.059 m 0,0 20.31,9.07 m 0,0 19.41,10.074 m 0,0 20.3,10.082 m 0,0 20.3,12.102 m 0,0 19.41,13.094 m 0,0 20.31,15.121 m 0,0 19.41,16.129 m 0,0 20.3,18.144 m 0,0 19.42,20.156 m 0,0 20.3,22.18 m 0,0 19.42,25.192 m 0,0 20.29,28.226 m 0,0 19.42,30.246 m 0,0 20.3,35.27 m 0,0 19.42,38.312 m 0,0 20.3,43.34 m 0,0 19.42,47.375 m 0,0 20.3,53.422 m 0,0 19.41,60.469 m 0,0 20.3,66.531 m 0,0 20.3,75.601 m 0,0 19.42,83.66 m 0,0 20.31,93.74 m 0,0 19.4,105.84 m 0,0 20.31,117.93 m 0,0 19.42,133.05 m 0,0 15.94,144.84"
                   style="fill:none;stroke:#35a7e3;stroke-width:8.70623016;stroke-linecap:round;stroke-linejoin:round;stroke-miterlimit:10;stroke-dasharray:none;stroke-opacity:1"
                   id="path19088"
                   inkscape:connector-curvature="0" />
                <path
                   d="m 110.008,295.367 h 1790 v 1440.02 h -1790 z"
                   style="fill:none;stroke:#231f20;stroke-width:4.35311985;stroke-linecap:butt;stroke-linejoin:miter;stroke-miterlimit:10;stroke-dasharray:none;stroke-opacity:1"
                   id="path19090"
                   inkscape:connector-curvature="0" />
                <path
                   d="m 110.008,1591.33 h 27.422 m 1762.57,0 h -27.41"
                   style="fill:none;stroke:#231f20;stroke-width:4.35311985;stroke-linecap:butt;stroke-linejoin:miter;stroke-miterlimit:10;stroke-dasharray:none;stroke-opacity:1"
                   id="path19092"
                   inkscape:connector-curvature="0" />
              </g>
            </g>
          </g>
        </g>
      </g>
    </g>
  </g>
</svg>
