<?xml version="1.0" encoding="UTF-8" standalone="no"?>
<!-- Created with Inkscape (http://www.inkscape.org/) -->

<svg
   xmlns:dc="http://purl.org/dc/elements/1.1/"
   xmlns:cc="http://creativecommons.org/ns#"
   xmlns:rdf="http://www.w3.org/1999/02/22-rdf-syntax-ns#"
   xmlns:svg="http://www.w3.org/2000/svg"
   xmlns="http://www.w3.org/2000/svg"
   xmlns:sodipodi="http://sodipodi.sourceforge.net/DTD/sodipodi-0.dtd"
   xmlns:inkscape="http://www.inkscape.org/namespaces/inkscape"
   width="170.88298mm"
   height="68.757233mm"
   viewBox="0 0 170.88298 68.757233"
   version="1.1"
   id="svg23885"
   inkscape:version="0.92.2 (unknown)"
   sodipodi:docname="microfacet_masking.svg">
  <defs
     id="defs23879">
    <clipPath
       clipPathUnits="userSpaceOnUse"
       id="clipPath23240">
      <path
         d="M 0,0 H 2384 V 3370 H 0 Z"
         id="path23238"
         inkscape:connector-curvature="0" />
    </clipPath>
    <clipPath
       clipPathUnits="userSpaceOnUse"
       id="clipPath23250">
      <path
         d="M 0,0.140625 H 1675.23 V 709.69562 H 0 Z"
         id="path23248"
         inkscape:connector-curvature="0" />
    </clipPath>
  </defs>
  <sodipodi:namedview
     id="base"
     pagecolor="#ffffff"
     bordercolor="#666666"
     borderopacity="1.0"
     inkscape:pageopacity="0.0"
     inkscape:pageshadow="2"
     inkscape:zoom="0.7"
     inkscape:cx="42.559367"
     inkscape:cy="17.557859"
     inkscape:document-units="mm"
     inkscape:current-layer="layer1"
     showgrid="false"
     fit-margin-top="0"
     fit-margin-left="0"
     fit-margin-right="0"
     fit-margin-bottom="0"
     inkscape:window-width="1919"
     inkscape:window-height="1051"
     inkscape:window-x="1"
     inkscape:window-y="0"
     inkscape:window-maximized="1" />
  <metadata
     id="metadata23882">
    <rdf:RDF>
      <cc:Work
         rdf:about="">
        <dc:format>image/svg+xml</dc:format>
        <dc:type
           rdf:resource="http://purl.org/dc/dcmitype/StillImage" />
        <dc:title></dc:title>
      </cc:Work>
    </rdf:RDF>
  </metadata>
  <g
     inkscape:label="Layer 1"
     inkscape:groupmode="layer"
     id="layer1"
     transform="translate(-21.147796,-22.984478)">
    <g
       id="g23232"
       transform="matrix(0.44404219,0,0,-0.44404219,21.147573,91.756057)">
      <g
         id="g23234">
        <g
           id="g23236"
           clip-path="url(#clipPath23240)">
          <g
             id="g23242"
             transform="scale(0.229721)">
            <g
               id="g23244">
              <g
                 id="g23246"
                 clip-path="url(#clipPath23250)">
                <path
                   d="m 31.043,641.652 c 6.9531,-2.855 11.4179,-5.304 16.9375,-8.168 l 2.1211,21.856 c -2.1485,-0.774 -10.8164,-3.289 -18.1914,-4.754 -7.8907,-1.574 -14.9961,-2.484 -19.5625,-2.609 4.4531,-1.004 11.2539,-3.262 18.6953,-6.325"
                   style="fill:#ffffff;fill-opacity:1;fill-rule:nonzero;stroke:none"
                   id="path23252"
                   inkscape:connector-curvature="0" />
                <path
                   d="M 1671.56,486.789 41.707,645.102"
                   style="fill:none;stroke:#4f4c4c;stroke-width:4.35311985;stroke-linecap:butt;stroke-linejoin:miter;stroke-miterlimit:4;stroke-dasharray:none;stroke-opacity:1"
                   id="path23254"
                   inkscape:connector-curvature="0" />
                <path
                   d="m 31.043,641.652 c 6.9531,-2.855 11.4179,-5.304 16.9375,-8.168 l 2.1211,21.856 c -2.1485,-0.774 -10.8164,-3.289 -18.1914,-4.754 -7.8907,-1.574 -14.9961,-2.484 -19.5625,-2.609 4.4531,-1.004 11.2539,-3.262 18.6953,-6.325"
                   style="fill:#4f4c4c;fill-opacity:1;fill-rule:nonzero;stroke:none"
                   id="path23256"
                   inkscape:connector-curvature="0" />
                <path
                   d="M 193.703,484.762 H 1672.68"
                   style="fill:none;stroke:#33b540;stroke-width:13.05930042;stroke-linecap:butt;stroke-linejoin:miter;stroke-miterlimit:4;stroke-dasharray:none;stroke-opacity:1"
                   id="path23258"
                   inkscape:connector-curvature="0" />
                <path
                   d="m 193.977,484.488 21.554,4.992 26.836,-4.585 35.297,-14.911 0.379,24.813 16.453,-0.25 10.637,12.375 22.625,-6.617 23.472,-16.086 47.34,29.109 16.055,-17.41 22.848,-8.824 22.672,-7.356 23.234,16.102 35.445,-14.617 44.078,27.207 22.578,2.57 14.176,-12.754 20.407,-14.937 14.402,-14.852 18.734,12.254 27.781,1.059 49.477,29.109 16.777,3.922 16.489,-14.879 16.422,-2.34 14.722,6.043 22.59,-8.703 26.84,-4.586 14.398,-14.848 14.145,-14.586 33.414,12.703 44.348,27.754 49.568,1.227 28.73,-17.16 31.02,-4.391 18.51,-1.941 10.26,-12.43 16.45,-0.254 23.18,11.922 11.37,-8.262 59.58,36.184 39.4,-2.434 16.2,-16.968 18.29,-16.735 37.41,-13.109 14.13,10.613 59.85,34.824 19.96,-1.156 22.76,-14.976 33.17,-0.504 28.79,-12.981 23.74,17.649 14.69,-14.696 19.59,4.899 59.59,35.371 24.14,2.676 14.38,-16.934 27.59,-17.031"
                   style="fill:none;stroke:#176fc1;stroke-width:8.70623016;stroke-linecap:butt;stroke-linejoin:round;stroke-miterlimit:10;stroke-dasharray:none;stroke-opacity:1"
                   id="path23260"
                   inkscape:connector-curvature="0" />
                <path
                   d="M 15.2266,649.09 4.34375,499.996"
                   style="fill:none;stroke:#33b540;stroke-width:8.70623016;stroke-linecap:butt;stroke-linejoin:miter;stroke-miterlimit:4;stroke-dasharray:none;stroke-opacity:1"
                   id="path23262"
                   inkscape:connector-curvature="0" />
                <path
                   d="m 21.6289,494.328 c 6.9649,-2.832 11.4375,-5.258 16.9727,-8.094 l 2.0234,21.868 c -2.1445,-0.789 -10.8047,-3.344 -18.1719,-4.84 -7.8828,-1.61 -14.98435,-2.551 -19.54685,-2.699 4.45703,-0.985 11.26565,-3.211 18.72265,-6.235"
                   style="fill:#ffffff;fill-opacity:1;fill-rule:nonzero;stroke:none"
                   id="path23264"
                   inkscape:connector-curvature="0" />
                <path
                   d="M 195.297,482.738 32.2773,497.82"
                   style="fill:none;stroke:#4f4c4c;stroke-width:4.35311985;stroke-linecap:butt;stroke-linejoin:miter;stroke-miterlimit:4;stroke-dasharray:none;stroke-opacity:1"
                   id="path23266"
                   inkscape:connector-curvature="0" />
                <path
                   d="m 21.6289,494.328 c 6.9649,-2.832 11.4375,-5.258 16.9727,-8.094 l 2.0234,21.868 c -2.1445,-0.789 -10.8047,-3.344 -18.1719,-4.84 -7.8828,-1.61 -14.98435,-2.551 -19.54685,-2.699 4.45703,-0.985 11.26565,-3.211 18.72265,-6.235"
                   style="fill:#4f4c4c;fill-opacity:1;fill-rule:nonzero;stroke:none"
                   id="path23268"
                   inkscape:connector-curvature="0" />
                <path
                   d="m 263.082,528.566 -3.355,-37.093"
                   style="fill:none;stroke:#ed1c24;stroke-width:8.70623016;stroke-linecap:butt;stroke-linejoin:miter;stroke-miterlimit:4;stroke-dasharray:none;stroke-opacity:1"
                   id="path23270"
                   inkscape:connector-curvature="0" />
                <path
                   d="m 276.668,486.102 c 6.98,-2.789 11.469,-5.188 17.02,-7.997 l 1.898,21.879 c -2.141,-0.8 -10.785,-3.402 -18.145,-4.945 -7.875,-1.648 -14.968,-2.633 -19.531,-2.805 4.465,-0.957 11.285,-3.148 18.758,-6.132"
                   style="fill:#ffffff;fill-opacity:1;fill-rule:nonzero;stroke:none"
                   id="path23272"
                   inkscape:connector-curvature="0" />
                <path
                   d="m 348.199,484.371 -60.902,5.289"
                   style="fill:none;stroke:#4f4c4c;stroke-width:4.35311985;stroke-linecap:butt;stroke-linejoin:miter;stroke-miterlimit:4;stroke-dasharray:none;stroke-opacity:1"
                   id="path23274"
                   inkscape:connector-curvature="0" />
                <path
                   d="m 276.668,486.102 c 6.98,-2.789 11.469,-5.188 17.02,-7.997 l 1.898,21.879 c -2.141,-0.8 -10.785,-3.402 -18.145,-4.945 -7.875,-1.648 -14.968,-2.633 -19.531,-2.805 4.465,-0.957 11.285,-3.148 18.758,-6.132"
                   style="fill:#4f4c4c;fill-opacity:1;fill-rule:nonzero;stroke:none"
                   id="path23276"
                   inkscape:connector-curvature="0" />
                <path
                   d="m 278.82,522.09 c 6.961,-2.836 11.43,-5.266 16.965,-8.113 l 2.047,21.863 c -2.148,-0.785 -10.809,-3.324 -18.176,-4.817 -7.886,-1.601 -14.988,-2.535 -19.551,-2.675 4.454,-0.989 11.262,-3.223 18.715,-6.258"
                   style="fill:#ffffff;fill-opacity:1;fill-rule:nonzero;stroke:none"
                   id="path23278"
                   inkscape:connector-curvature="0" />
                <path
                   d="M 400.074,515.207 289.473,525.57"
                   style="fill:none;stroke:#4f4c4c;stroke-width:4.35311985;stroke-linecap:butt;stroke-linejoin:miter;stroke-miterlimit:4;stroke-dasharray:none;stroke-opacity:1"
                   id="path23280"
                   inkscape:connector-curvature="0" />
                <path
                   d="m 278.82,522.09 c 6.961,-2.836 11.43,-5.266 16.965,-8.113 l 2.047,21.863 c -2.148,-0.785 -10.809,-3.324 -18.176,-4.817 -7.886,-1.601 -14.988,-2.535 -19.551,-2.675 4.454,-0.989 11.262,-3.223 18.715,-6.258"
                   style="fill:#4f4c4c;fill-opacity:1;fill-rule:nonzero;stroke:none"
                   id="path23282"
                   inkscape:connector-curvature="0" />
                <path
                   d="m 428.047,521.398 -2.902,-34.277"
                   style="fill:none;stroke:#ed1c24;stroke-width:8.70623016;stroke-linecap:butt;stroke-linejoin:miter;stroke-miterlimit:4;stroke-dasharray:none;stroke-opacity:1"
                   id="path23284"
                   inkscape:connector-curvature="0" />
                <path
                   d="m 442.086,481.75 c 6.98,-2.789 11.469,-5.187 17.019,-7.996 l 1.899,21.879 c -2.141,-0.801 -10.789,-3.403 -18.145,-4.945 -7.871,-1.653 -14.968,-2.633 -19.531,-2.809 4.465,-0.957 11.285,-3.145 18.758,-6.129"
                   style="fill:#ffffff;fill-opacity:1;fill-rule:nonzero;stroke:none"
                   id="path23286"
                   inkscape:connector-curvature="0" />
                <path
                   d="m 513.617,480.016 -60.902,5.289"
                   style="fill:none;stroke:#4f4c4c;stroke-width:4.35311985;stroke-linecap:butt;stroke-linejoin:miter;stroke-miterlimit:4;stroke-dasharray:none;stroke-opacity:1"
                   id="path23288"
                   inkscape:connector-curvature="0" />
                <path
                   d="m 442.086,481.75 c 6.98,-2.789 11.469,-5.187 17.019,-7.996 l 1.899,21.879 c -2.141,-0.801 -10.789,-3.403 -18.145,-4.945 -7.871,-1.653 -14.968,-2.633 -19.531,-2.809 4.465,-0.957 11.285,-3.145 18.758,-6.129"
                   style="fill:#4f4c4c;fill-opacity:1;fill-rule:nonzero;stroke:none"
                   id="path23290"
                   inkscape:connector-curvature="0" />
                <path
                   d="m 445.336,515.254 c 6.969,-2.813 11.449,-5.231 16.992,-8.059 l 1.981,21.868 c -2.149,-0.79 -10.797,-3.36 -18.161,-4.872 -7.886,-1.621 -14.984,-2.578 -19.546,-2.734 4.461,-0.973 11.273,-3.191 18.734,-6.203"
                   style="fill:#ffffff;fill-opacity:1;fill-rule:nonzero;stroke:none"
                   id="path23292"
                   inkscape:connector-curvature="0" />
                <path
                   d="M 563.988,508.977 455.98,518.77"
                   style="fill:none;stroke:#4f4c4c;stroke-width:4.35311985;stroke-linecap:butt;stroke-linejoin:miter;stroke-miterlimit:4;stroke-dasharray:none;stroke-opacity:1"
                   id="path23294"
                   inkscape:connector-curvature="0" />
                <path
                   d="m 445.336,515.254 c 6.969,-2.813 11.449,-5.231 16.992,-8.059 l 1.981,21.868 c -2.149,-0.79 -10.797,-3.36 -18.161,-4.872 -7.886,-1.621 -14.984,-2.578 -19.546,-2.734 4.461,-0.973 11.273,-3.191 18.734,-6.203"
                   style="fill:#4f4c4c;fill-opacity:1;fill-rule:nonzero;stroke:none"
                   id="path23296"
                   inkscape:connector-curvature="0" />
                <path
                   d="M 593.824,523.574 590.926,488.57"
                   style="fill:none;stroke:#ed1c24;stroke-width:8.70623016;stroke-linecap:butt;stroke-linejoin:miter;stroke-miterlimit:4;stroke-dasharray:none;stroke-opacity:1"
                   id="path23298"
                   inkscape:connector-curvature="0" />
                <path
                   d="m 607.918,482.512 c 7.02,-2.692 11.539,-5.032 17.129,-7.758 l 1.598,21.898 c -2.133,-0.828 -10.739,-3.55 -18.075,-5.195 -7.851,-1.758 -14.937,-2.84 -19.492,-3.074 4.473,-0.899 11.324,-2.992 18.84,-5.871"
                   style="fill:#ffffff;fill-opacity:1;fill-rule:nonzero;stroke:none"
                   id="path23300"
                   inkscape:connector-curvature="0" />
                <path
                   d="m 680.711,481.676 -62.215,4.539"
                   style="fill:none;stroke:#4f4c4c;stroke-width:4.35311985;stroke-linecap:butt;stroke-linejoin:miter;stroke-miterlimit:4;stroke-dasharray:none;stroke-opacity:1"
                   id="path23302"
                   inkscape:connector-curvature="0" />
                <path
                   d="m 607.918,482.512 c 7.02,-2.692 11.539,-5.032 17.129,-7.758 l 1.598,21.898 c -2.133,-0.828 -10.739,-3.55 -18.075,-5.195 -7.851,-1.758 -14.937,-2.84 -19.492,-3.074 4.473,-0.899 11.324,-2.992 18.84,-5.871"
                   style="fill:#4f4c4c;fill-opacity:1;fill-rule:nonzero;stroke:none"
                   id="path23304"
                   inkscape:connector-curvature="0" />
                <path
                   d="m 611.117,517.43 c 6.969,-2.813 11.449,-5.231 16.988,-8.059 l 1.981,21.871 c -2.145,-0.793 -10.793,-3.363 -18.16,-4.875 -7.883,-1.621 -14.985,-2.578 -19.539,-2.734 4.457,-0.973 11.269,-3.192 18.73,-6.203"
                   style="fill:#ffffff;fill-opacity:1;fill-rule:nonzero;stroke:none"
                   id="path23306"
                   inkscape:connector-curvature="0" />
                <path
                   d="m 729.77,511.152 -108.008,9.793"
                   style="fill:none;stroke:#4f4c4c;stroke-width:4.35311985;stroke-linecap:butt;stroke-linejoin:miter;stroke-miterlimit:4;stroke-dasharray:none;stroke-opacity:1"
                   id="path23308"
                   inkscape:connector-curvature="0" />
                <path
                   d="m 611.117,517.43 c 6.969,-2.813 11.449,-5.231 16.988,-8.059 l 1.981,21.871 c -2.145,-0.793 -10.793,-3.363 -18.16,-4.875 -7.883,-1.621 -14.985,-2.578 -19.539,-2.734 4.457,-0.973 11.269,-3.192 18.73,-6.203"
                   style="fill:#4f4c4c;fill-opacity:1;fill-rule:nonzero;stroke:none"
                   id="path23310"
                   inkscape:connector-curvature="0" />
                <path
                   d="M 814.93,513.238 812.57,480.59"
                   style="fill:none;stroke:#ed1c24;stroke-width:8.70623016;stroke-linecap:butt;stroke-linejoin:miter;stroke-miterlimit:4;stroke-dasharray:none;stroke-opacity:1"
                   id="path23312"
                   inkscape:connector-curvature="0" />
                <path
                   d="m 828.836,474.895 c 7.023,-2.692 11.543,-5.032 17.133,-7.762 l 1.601,21.902 c -2.132,-0.832 -10.742,-3.551 -18.078,-5.191 -7.851,-1.762 -14.933,-2.844 -19.492,-3.078 4.477,-0.895 11.324,-2.993 18.836,-5.871"
                   style="fill:#ffffff;fill-opacity:1;fill-rule:nonzero;stroke:none"
                   id="path23314"
                   inkscape:connector-curvature="0" />
                <path
                   d="m 906.527,473.699 -67.105,4.895"
                   style="fill:none;stroke:#4f4c4c;stroke-width:4.35311985;stroke-linecap:butt;stroke-linejoin:miter;stroke-miterlimit:4;stroke-dasharray:none;stroke-opacity:1"
                   id="path23316"
                   inkscape:connector-curvature="0" />
                <path
                   d="m 828.836,474.895 c 7.023,-2.692 11.543,-5.032 17.133,-7.762 l 1.601,21.902 c -2.132,-0.832 -10.742,-3.551 -18.078,-5.191 -7.851,-1.762 -14.933,-2.844 -19.492,-3.078 4.477,-0.895 11.324,-2.993 18.836,-5.871"
                   style="fill:#4f4c4c;fill-opacity:1;fill-rule:nonzero;stroke:none"
                   id="path23318"
                   inkscape:connector-curvature="0" />
                <path
                   d="m 832.219,507.094 c 6.969,-2.817 11.449,-5.231 16.992,-8.063 l 1.98,21.871 c -2.148,-0.793 -10.796,-3.359 -18.16,-4.875 -7.886,-1.621 -14.984,-2.574 -19.543,-2.734 4.457,-0.973 11.27,-3.188 18.731,-6.199"
                   style="fill:#ffffff;fill-opacity:1;fill-rule:nonzero;stroke:none"
                   id="path23320"
                   inkscape:connector-curvature="0" />
                <path
                   d="m 950.871,500.813 -108.008,9.796"
                   style="fill:none;stroke:#4f4c4c;stroke-width:4.35311985;stroke-linecap:butt;stroke-linejoin:miter;stroke-miterlimit:4;stroke-dasharray:none;stroke-opacity:1"
                   id="path23322"
                   inkscape:connector-curvature="0" />
                <path
                   d="m 832.219,507.094 c 6.969,-2.817 11.449,-5.231 16.992,-8.063 l 1.98,21.871 c -2.148,-0.793 -10.796,-3.359 -18.16,-4.875 -7.886,-1.621 -14.984,-2.574 -19.543,-2.734 4.457,-0.973 11.27,-3.188 18.731,-6.199"
                   style="fill:#4f4c4c;fill-opacity:1;fill-rule:nonzero;stroke:none"
                   id="path23324"
                   inkscape:connector-curvature="0" />
                <path
                   d="m 1062.33,518.68 -3.26,-42.262"
                   style="fill:none;stroke:#ed1c24;stroke-width:8.70623016;stroke-linecap:butt;stroke-linejoin:miter;stroke-miterlimit:4;stroke-dasharray:none;stroke-opacity:1"
                   id="path23326"
                   inkscape:connector-curvature="0" />
                <path
                   d="m 1076.6,470.906 c 7.02,-2.695 11.54,-5.031 17.13,-7.761 l 1.6,21.898 c -2.13,-0.828 -10.74,-3.547 -18.08,-5.191 -7.85,-1.762 -14.93,-2.84 -19.48,-3.075 4.47,-0.894 11.32,-2.992 18.83,-5.871"
                   style="fill:#ffffff;fill-opacity:1;fill-rule:nonzero;stroke:none"
                   id="path23328"
                   inkscape:connector-curvature="0" />
                <path
                   d="m 1154.29,469.707 -67.11,4.898"
                   style="fill:none;stroke:#4f4c4c;stroke-width:4.35311985;stroke-linecap:butt;stroke-linejoin:miter;stroke-miterlimit:4;stroke-dasharray:none;stroke-opacity:1"
                   id="path23330"
                   inkscape:connector-curvature="0" />
                <path
                   d="m 1076.6,470.906 c 7.02,-2.695 11.54,-5.031 17.13,-7.761 l 1.6,21.898 c -2.13,-0.828 -10.74,-3.547 -18.08,-5.191 -7.85,-1.762 -14.93,-2.84 -19.48,-3.075 4.47,-0.894 11.32,-2.992 18.83,-5.871"
                   style="fill:#4f4c4c;fill-opacity:1;fill-rule:nonzero;stroke:none"
                   id="path23332"
                   inkscape:connector-curvature="0" />
                <path
                   d="m 1079.62,512.539 c 6.97,-2.816 11.45,-5.234 16.99,-8.062 l 1.99,21.871 c -2.15,-0.793 -10.8,-3.364 -18.17,-4.875 -7.88,-1.621 -14.98,-2.578 -19.54,-2.735 4.46,-0.972 11.27,-3.191 18.73,-6.199"
                   style="fill:#ffffff;fill-opacity:1;fill-rule:nonzero;stroke:none"
                   id="path23334"
                   inkscape:connector-curvature="0" />
                <path
                   d="m 1198.27,506.258 -108,9.793"
                   style="fill:none;stroke:#4f4c4c;stroke-width:4.35311985;stroke-linecap:butt;stroke-linejoin:miter;stroke-miterlimit:4;stroke-dasharray:none;stroke-opacity:1"
                   id="path23336"
                   inkscape:connector-curvature="0" />
                <path
                   d="m 1079.62,512.539 c 6.97,-2.816 11.45,-5.234 16.99,-8.062 l 1.99,21.871 c -2.15,-0.793 -10.8,-3.364 -18.17,-4.875 -7.88,-1.621 -14.98,-2.578 -19.54,-2.735 4.46,-0.972 11.27,-3.191 18.73,-6.199"
                   style="fill:#4f4c4c;fill-opacity:1;fill-rule:nonzero;stroke:none"
                   id="path23338"
                   inkscape:connector-curvature="0" />
                <path
                   d="m 1248.97,514.691 -3.26,-42.261"
                   style="fill:none;stroke:#ed1c24;stroke-width:8.70623016;stroke-linecap:butt;stroke-linejoin:miter;stroke-miterlimit:4;stroke-dasharray:none;stroke-opacity:1"
                   id="path23340"
                   inkscape:connector-curvature="0" />
                <path
                   d="m 1263.24,466.926 c 7.01,-2.703 11.53,-5.043 17.12,-7.778 l 1.62,21.899 c -2.13,-0.828 -10.75,-3.539 -18.08,-5.176 -7.85,-1.75 -14.94,-2.824 -19.5,-3.055 4.48,-0.902 11.33,-3.003 18.84,-5.89"
                   style="fill:#ffffff;fill-opacity:1;fill-rule:nonzero;stroke:none"
                   id="path23342"
                   inkscape:connector-curvature="0" />
                <path
                   d="m 1325.33,466.805 -51.51,3.812"
                   style="fill:none;stroke:#4f4c4c;stroke-width:4.35311985;stroke-linecap:butt;stroke-linejoin:miter;stroke-miterlimit:4;stroke-dasharray:none;stroke-opacity:1"
                   id="path23344"
                   inkscape:connector-curvature="0" />
                <path
                   d="m 1263.24,466.926 c 7.01,-2.703 11.53,-5.043 17.12,-7.778 l 1.62,21.899 c -2.13,-0.828 -10.75,-3.539 -18.08,-5.176 -7.85,-1.75 -14.94,-2.824 -19.5,-3.055 4.48,-0.902 11.33,-3.003 18.84,-5.89"
                   style="fill:#4f4c4c;fill-opacity:1;fill-rule:nonzero;stroke:none"
                   id="path23346"
                   inkscape:connector-curvature="0" />
                <path
                   d="m 1266.26,508.547 c 6.97,-2.817 11.45,-5.231 16.99,-8.063 l 1.98,21.871 c -2.14,-0.789 -10.8,-3.359 -18.16,-4.875 -7.88,-1.621 -14.98,-2.574 -19.54,-2.73 4.46,-0.977 11.27,-3.191 18.73,-6.203"
                   style="fill:#ffffff;fill-opacity:1;fill-rule:nonzero;stroke:none"
                   id="path23348"
                   inkscape:connector-curvature="0" />
                <path
                   d="m 1384.91,502.266 -108.01,9.797"
                   style="fill:none;stroke:#4f4c4c;stroke-width:4.35311985;stroke-linecap:butt;stroke-linejoin:miter;stroke-miterlimit:4;stroke-dasharray:none;stroke-opacity:1"
                   id="path23350"
                   inkscape:connector-curvature="0" />
                <path
                   d="m 1266.26,508.547 c 6.97,-2.817 11.45,-5.231 16.99,-8.063 l 1.98,21.871 c -2.14,-0.789 -10.8,-3.359 -18.16,-4.875 -7.88,-1.621 -14.98,-2.574 -19.54,-2.73 4.46,-0.977 11.27,-3.191 18.73,-6.203"
                   style="fill:#4f4c4c;fill-opacity:1;fill-rule:nonzero;stroke:none"
                   id="path23352"
                   inkscape:connector-curvature="0" />
                <path
                   d="m 1470.98,527.75 -3.27,-42.262"
                   style="fill:none;stroke:#ed1c24;stroke-width:8.70623016;stroke-linecap:butt;stroke-linejoin:miter;stroke-miterlimit:4;stroke-dasharray:none;stroke-opacity:1"
                   id="path23354"
                   inkscape:connector-curvature="0" />
                <path
                   d="m 1485.25,479.984 c 7.01,-2.699 11.53,-5.039 17.12,-7.777 l 1.62,21.898 c -2.13,-0.828 -10.74,-3.539 -18.08,-5.175 -7.85,-1.75 -14.94,-2.825 -19.5,-3.055 4.48,-0.902 11.32,-3.004 18.84,-5.891"
                   style="fill:#ffffff;fill-opacity:1;fill-rule:nonzero;stroke:none"
                   id="path23356"
                   inkscape:connector-curvature="0" />
                <path
                   d="m 1547.34,479.863 -51.51,3.813"
                   style="fill:none;stroke:#4f4c4c;stroke-width:4.35311985;stroke-linecap:butt;stroke-linejoin:miter;stroke-miterlimit:4;stroke-dasharray:none;stroke-opacity:1"
                   id="path23358"
                   inkscape:connector-curvature="0" />
                <path
                   d="m 1485.25,479.984 c 7.01,-2.699 11.53,-5.039 17.12,-7.777 l 1.62,21.898 c -2.13,-0.828 -10.74,-3.539 -18.08,-5.175 -7.85,-1.75 -14.94,-2.825 -19.5,-3.055 4.48,-0.902 11.32,-3.004 18.84,-5.891"
                   style="fill:#4f4c4c;fill-opacity:1;fill-rule:nonzero;stroke:none"
                   id="path23360"
                   inkscape:connector-curvature="0" />
                <path
                   d="m 1488.27,521.605 c 6.97,-2.812 11.45,-5.23 16.99,-8.058 l 1.99,21.867 c -2.16,-0.789 -10.81,-3.359 -18.17,-4.871 -7.88,-1.625 -14.98,-2.578 -19.54,-2.734 4.46,-0.973 11.26,-3.192 18.73,-6.204"
                   style="fill:#ffffff;fill-opacity:1;fill-rule:nonzero;stroke:none"
                   id="path23362"
                   inkscape:connector-curvature="0" />
                <path
                   d="m 1606.92,515.328 -108.01,9.793"
                   style="fill:none;stroke:#4f4c4c;stroke-width:4.35311985;stroke-linecap:butt;stroke-linejoin:miter;stroke-miterlimit:4;stroke-dasharray:none;stroke-opacity:1"
                   id="path23364"
                   inkscape:connector-curvature="0" />
                <path
                   d="m 1488.27,521.605 c 6.97,-2.812 11.45,-5.23 16.99,-8.058 l 1.99,21.867 c -2.16,-0.789 -10.81,-3.359 -18.17,-4.871 -7.88,-1.625 -14.98,-2.578 -19.54,-2.734 4.46,-0.973 11.26,-3.192 18.73,-6.204"
                   style="fill:#4f4c4c;fill-opacity:1;fill-rule:nonzero;stroke:none"
                   id="path23366"
                   inkscape:connector-curvature="0" />
                <path
                   d="m 1032.52,597.492 -238.618,25.824 1.129,9.055 239.179,-25.293 z m -234.957,16.285 -43.938,18.543 46.977,8.793"
                   style="fill:#8c2b99;fill-opacity:1;fill-rule:nonzero;stroke:none"
                   id="path23368"
                   inkscape:connector-curvature="0" />
                <g
                   id="g23370"
                   transform="scale(4.35312)">
                  <text
                     transform="matrix(1,0,0,-1,205.172,145.032)"
                     style="font-variant:normal;font-weight:bold;font-size:18px;font-family:TimesNewRomanPS;-inkscape-font-specification:TimesNewRomanPS-BoldMT;writing-mode:lr-tb;fill:#231f20;fill-opacity:1;fill-rule:nonzero;stroke:none"
                     id="text23374">
                    <tspan
                       x="0"
                       y="0"
                       id="tspan23372">v</tspan>
                  </text>
                </g>
                <path
                   d="M 400.594,514.605 347.863,482.758"
                   style="fill:none;stroke:#ed1c24;stroke-width:15.99769974;stroke-linecap:butt;stroke-linejoin:round;stroke-miterlimit:10;stroke-dasharray:none;stroke-opacity:1"
                   id="path23376"
                   inkscape:connector-curvature="0" />
                <path
                   d="M 564.035,509.238 518.156,481.207"
                   style="fill:none;stroke:#ed1c24;stroke-width:15.99769974;stroke-linecap:butt;stroke-linejoin:round;stroke-miterlimit:10;stroke-dasharray:none;stroke-opacity:1"
                   id="path23378"
                   inkscape:connector-curvature="0" />
                <path
                   d="M 730.465,511.402 680.902,481.594"
                   style="fill:none;stroke:#ed1c24;stroke-width:15.99769974;stroke-linecap:butt;stroke-linejoin:round;stroke-miterlimit:10;stroke-dasharray:none;stroke-opacity:1"
                   id="path23380"
                   inkscape:connector-curvature="0" />
                <path
                   d="M 950.441,501.082 906.34,473.508"
                   style="fill:none;stroke:#ed1c24;stroke-width:15.99769974;stroke-linecap:butt;stroke-linejoin:round;stroke-miterlimit:10;stroke-dasharray:none;stroke-opacity:1"
                   id="path23382"
                   inkscape:connector-curvature="0" />
                <path
                   d="m 1198.91,506.422 -60.3,-36.359"
                   style="fill:none;stroke:#ed1c24;stroke-width:15.99769974;stroke-linecap:butt;stroke-linejoin:round;stroke-miterlimit:10;stroke-dasharray:none;stroke-opacity:1"
                   id="path23384"
                   inkscape:connector-curvature="0" />
                <path
                   d="m 1384.87,503.188 -60.3,-35.93"
                   style="fill:none;stroke:#ed1c24;stroke-width:15.99769974;stroke-linecap:butt;stroke-linejoin:round;stroke-miterlimit:10;stroke-dasharray:none;stroke-opacity:1"
                   id="path23386"
                   inkscape:connector-curvature="0" />
                <path
                   d="m 1606.88,516.246 -60.31,-35.93"
                   style="fill:none;stroke:#ed1c24;stroke-width:15.99769974;stroke-linecap:butt;stroke-linejoin:round;stroke-miterlimit:10;stroke-dasharray:none;stroke-opacity:1"
                   id="path23388"
                   inkscape:connector-curvature="0" />
                <path
                   d="m 272.023,243.301 c 6.969,-2.832 11.442,-5.25 16.977,-8.09 l 2.016,21.867 c -2.149,-0.789 -10.805,-3.344 -18.172,-4.844 -7.883,-1.613 -14.985,-2.558 -19.543,-2.703 4.457,-0.984 11.265,-3.211 18.722,-6.23"
                   style="fill:#ffffff;fill-opacity:1;fill-rule:nonzero;stroke:none"
                   id="path23390"
                   inkscape:connector-curvature="0" />
                <path
                   d="M 530.797,223.945 282.672,246.801"
                   style="fill:none;stroke:#4f4c4c;stroke-width:6.52966976;stroke-linecap:butt;stroke-linejoin:miter;stroke-miterlimit:4;stroke-dasharray:none;stroke-opacity:1"
                   id="path23392"
                   inkscape:connector-curvature="0" />
                <path
                   d="m 266.699,241.551 c 10.449,-4.242 17.164,-7.875 25.469,-12.129 l 3.02,32.801 c -3.219,-1.184 -16.208,-5.02 -27.254,-7.274 -11.829,-2.418 -22.477,-3.832 -29.321,-4.058 6.688,-1.469 16.903,-4.809 28.086,-9.34"
                   style="fill:#4f4c4c;fill-opacity:1;fill-rule:nonzero;stroke:none"
                   id="path23394"
                   inkscape:connector-curvature="0" />
                <path
                   d="M 242.949,252.781 226.625,29.1406"
                   style="fill:none;stroke:#33b540;stroke-width:13.05930042;stroke-linecap:butt;stroke-linejoin:miter;stroke-miterlimit:4;stroke-dasharray:none;stroke-opacity:1"
                   id="path23396"
                   inkscape:connector-curvature="0" />
                <path
                   d="m 257.879,22.3789 c 6.965,-2.8281 11.437,-5.2539 16.973,-8.0937 l 2.023,21.8671 c -2.145,-0.789 -10.805,-3.3398 -18.172,-4.8359 -7.883,-1.6094 -14.984,-2.5508 -19.547,-2.6992 4.457,-0.9844 11.266,-3.2109 18.723,-6.2383"
                   style="fill:#ffffff;fill-opacity:1;fill-rule:nonzero;stroke:none"
                   id="path23398"
                   inkscape:connector-curvature="0" />
                <path
                   d="M 513.059,3.25 268.527,25.875"
                   style="fill:none;stroke:#4f4c4c;stroke-width:6.52966976;stroke-linecap:butt;stroke-linejoin:miter;stroke-miterlimit:4;stroke-dasharray:none;stroke-opacity:1"
                   id="path23400"
                   inkscape:connector-curvature="0" />
                <path
                   d="m 252.555,20.6328 c 10.449,-4.2422 17.16,-7.8828 25.461,-12.14061 l 3.035,32.80081 c -3.223,-1.1797 -16.207,-5.0078 -27.258,-7.2617 -11.828,-2.4102 -22.477,-3.8204 -29.324,-4.0469 6.687,-1.4727 16.902,-4.8164 28.086,-9.3516"
                   style="fill:#4f4c4c;fill-opacity:1;fill-rule:nonzero;stroke:none"
                   id="path23402"
                   inkscape:connector-curvature="0" />
                <path
                   d="M 213.152,88.3164 208.121,32.6836"
                   style="fill:none;stroke:#ed1c24;stroke-width:13.05930042;stroke-linecap:butt;stroke-linejoin:miter;stroke-miterlimit:4;stroke-dasharray:none;stroke-opacity:1"
                   id="path23404"
                   inkscape:connector-curvature="0" />
                <path
                   d="M 203.766,139.609 199.418,88.1914"
                   style="fill:none;stroke:#ed1c24;stroke-width:13.05930042;stroke-linecap:butt;stroke-linejoin:miter;stroke-miterlimit:4;stroke-dasharray:none;stroke-opacity:1"
                   id="path23406"
                   inkscape:connector-curvature="0" />
                <path
                   d="m 221.18,192.113 -4.356,-52.508"
                   style="fill:none;stroke:#ed1c24;stroke-width:13.05930042;stroke-linecap:butt;stroke-linejoin:miter;stroke-miterlimit:4;stroke-dasharray:none;stroke-opacity:1"
                   id="path23408"
                   inkscape:connector-curvature="0" />
                <path
                   d="m 211.66,241.359 -3.539,-48.972"
                   style="fill:none;stroke:#ed1c24;stroke-width:13.05930042;stroke-linecap:butt;stroke-linejoin:miter;stroke-miterlimit:4;stroke-dasharray:none;stroke-opacity:1"
                   id="path23410"
                   inkscape:connector-curvature="0" />
                <path
                   d="M 225.805,291.691 222.27,242.723"
                   style="fill:none;stroke:#ed1c24;stroke-width:13.05930042;stroke-linecap:butt;stroke-linejoin:miter;stroke-miterlimit:4;stroke-dasharray:none;stroke-opacity:1"
                   id="path23412"
                   inkscape:connector-curvature="0" />
                <path
                   d="m 216.008,355.898 -4.895,-63.39"
                   style="fill:none;stroke:#ed1c24;stroke-width:13.05930042;stroke-linecap:butt;stroke-linejoin:miter;stroke-miterlimit:4;stroke-dasharray:none;stroke-opacity:1"
                   id="path23414"
                   inkscape:connector-curvature="0" />
                <path
                   d="M 234.781,416.305 229.883,352.91"
                   style="fill:none;stroke:#ed1c24;stroke-width:13.05930042;stroke-linecap:butt;stroke-linejoin:miter;stroke-miterlimit:4;stroke-dasharray:none;stroke-opacity:1"
                   id="path23416"
                   inkscape:connector-curvature="0" />
                <path
                   d="m 1289.44,271.547 c 6.97,-2.824 11.45,-5.246 16.98,-8.082 l 2.02,21.867 c -2.15,-0.789 -10.81,-3.344 -18.17,-4.848 -7.89,-1.613 -14.99,-2.558 -19.55,-2.707 4.46,-0.98 11.27,-3.207 18.72,-6.23"
                   style="fill:#ffffff;fill-opacity:1;fill-rule:nonzero;stroke:none"
                   id="path23418"
                   inkscape:connector-curvature="0" />
                <path
                   d="m 1548.22,252.195 -248.13,22.852"
                   style="fill:none;stroke:#4f4c4c;stroke-width:6.52966976;stroke-linecap:butt;stroke-linejoin:miter;stroke-miterlimit:4;stroke-dasharray:none;stroke-opacity:1"
                   id="path23420"
                   inkscape:connector-curvature="0" />
                <path
                   d="m 1284.12,269.801 c 10.45,-4.238 17.17,-7.875 25.47,-12.125 l 3.02,32.797 c -3.22,-1.184 -16.2,-5.016 -27.25,-7.274 -11.83,-2.414 -22.48,-3.832 -29.32,-4.054 6.68,-1.473 16.89,-4.813 28.08,-9.344"
                   style="fill:#4f4c4c;fill-opacity:1;fill-rule:nonzero;stroke:none"
                   id="path23422"
                   inkscape:connector-curvature="0" />
                <path
                   d="M 1260.37,281.031 1244.05,57.3906"
                   style="fill:none;stroke:#33b540;stroke-width:13.05930042;stroke-linecap:butt;stroke-linejoin:miter;stroke-miterlimit:4;stroke-dasharray:none;stroke-opacity:1"
                   id="path23424"
                   inkscape:connector-curvature="0" />
                <path
                   d="m 1275.3,50.6328 c 6.97,-2.832 11.44,-5.2578 16.97,-8.0937 l 2.03,21.8672 c -2.15,-0.7891 -10.81,-3.3399 -18.17,-4.8438 -7.89,-1.6055 -14.99,-2.5508 -19.55,-2.6953 4.46,-0.9805 11.26,-3.2109 18.72,-6.2344"
                   style="fill:#ffffff;fill-opacity:1;fill-rule:nonzero;stroke:none"
                   id="path23426"
                   inkscape:connector-curvature="0" />
                <path
                   d="M 1530.48,31.5039 1285.95,54.125"
                   style="fill:none;stroke:#4f4c4c;stroke-width:6.52966976;stroke-linecap:butt;stroke-linejoin:miter;stroke-miterlimit:4;stroke-dasharray:none;stroke-opacity:1"
                   id="path23428"
                   inkscape:connector-curvature="0" />
                <path
                   d="m 1269.98,48.8828 c 10.45,-4.2422 17.15,-7.8789 25.45,-12.1367 l 3.04,32.8008 c -3.22,-1.1836 -16.2,-5.0156 -27.26,-7.2617 -11.82,-2.4141 -22.48,-3.8282 -29.32,-4.0508 6.69,-1.4688 16.9,-4.8125 28.09,-9.3516"
                   style="fill:#4f4c4c;fill-opacity:1;fill-rule:nonzero;stroke:none"
                   id="path23430"
                   inkscape:connector-curvature="0" />
                <path
                   d="m 1133.36,135.855 -5.04,-55.6323"
                   style="fill:none;stroke:#ed1c24;stroke-width:13.05930042;stroke-linecap:butt;stroke-linejoin:miter;stroke-miterlimit:4;stroke-dasharray:none;stroke-opacity:1"
                   id="path23432"
                   inkscape:connector-curvature="0" />
                <path
                   d="m 1149.88,145.313 -4.34,-51.4107"
                   style="fill:none;stroke:#ed1c24;stroke-width:13.05930042;stroke-linecap:butt;stroke-linejoin:miter;stroke-miterlimit:4;stroke-dasharray:none;stroke-opacity:1"
                   id="path23434"
                   inkscape:connector-curvature="0" />
                <path
                   d="m 1167.63,168.785 -4.36,-52.512"
                   style="fill:none;stroke:#ed1c24;stroke-width:13.05930042;stroke-linecap:butt;stroke-linejoin:miter;stroke-miterlimit:4;stroke-dasharray:none;stroke-opacity:1"
                   id="path23436"
                   inkscape:connector-curvature="0" />
                <path
                   d="m 1184.89,180.781 -3.55,-48.972"
                   style="fill:none;stroke:#ed1c24;stroke-width:13.05930042;stroke-linecap:butt;stroke-linejoin:miter;stroke-miterlimit:4;stroke-dasharray:none;stroke-opacity:1"
                   id="path23438"
                   inkscape:connector-curvature="0" />
                <path
                   d="m 1202.95,218.191 -4.9,-63.394"
                   style="fill:none;stroke:#ed1c24;stroke-width:13.05930042;stroke-linecap:butt;stroke-linejoin:miter;stroke-miterlimit:4;stroke-dasharray:none;stroke-opacity:1"
                   id="path23440"
                   inkscape:connector-curvature="0" />
                <path
                   d="m 1221.23,236.738 -4.89,-63.386"
                   style="fill:none;stroke:#ed1c24;stroke-width:13.05930042;stroke-linecap:butt;stroke-linejoin:miter;stroke-miterlimit:4;stroke-dasharray:none;stroke-opacity:1"
                   id="path23442"
                   inkscape:connector-curvature="0" />
                <path
                   d="m 1240.93,283.738 -4.89,-63.39"
                   style="fill:none;stroke:#ed1c24;stroke-width:13.05930042;stroke-linecap:butt;stroke-linejoin:miter;stroke-miterlimit:4;stroke-dasharray:none;stroke-opacity:1"
                   id="path23444"
                   inkscape:connector-curvature="0" />
              </g>
            </g>
          </g>
        </g>
      </g>
    </g>
  </g>
</svg>
