<?xml version="1.0" encoding="UTF-8" standalone="no"?>
<!-- Created with Inkscape (http://www.inkscape.org/) -->

<svg
   xmlns:ns0="http://www.iki.fi/pav/software/textext/"
   xmlns:dc="http://purl.org/dc/elements/1.1/"
   xmlns:cc="http://creativecommons.org/ns#"
   xmlns:rdf="http://www.w3.org/1999/02/22-rdf-syntax-ns#"
   xmlns:svg="http://www.w3.org/2000/svg"
   xmlns="http://www.w3.org/2000/svg"
   xmlns:xlink="http://www.w3.org/1999/xlink"
   xmlns:sodipodi="http://sodipodi.sourceforge.net/DTD/sodipodi-0.dtd"
   xmlns:inkscape="http://www.inkscape.org/namespaces/inkscape"
   width="220.12453"
   height="185.4944"
   id="svg2"
   inkscape:label="Pozadí"
   version="1.1"
   inkscape:version="0.47 r22583"
   sodipodi:docname="Nový dokument 15">
  <sodipodi:namedview
     id="base"
     pagecolor="#ffffff"
     bordercolor="#666666"
     borderopacity="1.0"
     inkscape:pageopacity="0.0"
     inkscape:pageshadow="2"
     inkscape:zoom="0.98994949"
     inkscape:cx="4.2074068"
     inkscape:cy="47.014857"
     inkscape:document-units="px"
     inkscape:current-layer="layer1"
     showgrid="false"
     inkscape:window-width="1365"
     inkscape:window-height="750"
     inkscape:window-x="1"
     inkscape:window-y="0"
     inkscape:window-maximized="1" />
  <defs
     id="defs5578">
    <inkscape:perspective
       id="perspective5584"
       inkscape:persp3d-origin="372.04724 : 350.78739 : 1"
       inkscape:vp_z="744.09448 : 526.18109 : 1"
       inkscape:vp_y="0 : 1000 : 0"
       inkscape:vp_x="0 : 526.18109 : 1"
       sodipodi:type="inkscape:persp3d" />
    <inkscape:perspective
       sodipodi:type="inkscape:persp3d"
       inkscape:vp_x="0 : 0.5 : 1"
       inkscape:vp_y="0 : 1000 : 0"
       inkscape:vp_z="1 : 0.5 : 1"
       inkscape:persp3d-origin="0.5 : 0.33333333 : 1"
       id="perspective5562" />
    <linearGradient
       y2="52.816238"
       x2="226.7691"
       y1="65.948219"
       x1="180.82747"
       gradientTransform="translate(18.687822,-18.182746)"
       gradientUnits="userSpaceOnUse"
       id="linearGradient5443"
       xlink:href="#linearGradient3589"
       inkscape:collect="always" />
    <linearGradient
       id="linearGradient3589">
      <stop
         style="stop-color:#f900ff;stop-opacity:1;"
         offset="0"
         id="stop3591" />
      <stop
         id="stop3599"
         offset="0.25"
         style="stop-color:#ffda00;stop-opacity:0.74901962;" />
      <stop
         style="stop-color:#ff6d00;stop-opacity:0.62352941;"
         offset="0.375"
         id="stop3601" />
      <stop
         id="stop3597"
         offset="0.5"
         style="stop-color:#ff0000;stop-opacity:0.49803922;" />
      <stop
         style="stop-color:#ff0000;stop-opacity:0;"
         offset="1"
         id="stop3593" />
    </linearGradient>
    <linearGradient
       y2="52.816238"
       x2="226.7691"
       y1="65.948219"
       x1="180.82747"
       gradientTransform="matrix(2.3900673,0,0,2.3900673,-159.57538,230.42584)"
       gradientUnits="userSpaceOnUse"
       id="linearGradient5618"
       xlink:href="#linearGradient3589"
       inkscape:collect="always" />
    <inkscape:perspective
       sodipodi:type="inkscape:persp3d"
       inkscape:vp_x="0 : 0.5 : 1"
       inkscape:vp_y="0 : 1000 : 0"
       inkscape:vp_z="1 : 0.5 : 1"
       inkscape:persp3d-origin="0.5 : 0.33333333 : 1"
       id="perspective6005" />
    <inkscape:perspective
       sodipodi:type="inkscape:persp3d"
       inkscape:vp_x="0 : 0.5 : 1"
       inkscape:vp_y="0 : 1000 : 0"
       inkscape:vp_z="1 : 0.5 : 1"
       inkscape:persp3d-origin="0.5 : 0.33333333 : 1"
       id="perspective6005-3" />
    <inkscape:perspective
       sodipodi:type="inkscape:persp3d"
       inkscape:vp_x="0 : 0.5 : 1"
       inkscape:vp_y="0 : 1000 : 0"
       inkscape:vp_z="1 : 0.5 : 1"
       inkscape:persp3d-origin="0.5 : 0.33333333 : 1"
       id="perspective6005-5" />
    <defs
       id="defs6146">
      <g
         id="g6148">
        <symbol
           overflow="visible"
           id="textext-14ffc4fb-0"
           style="overflow:visible">
          <path
             style="stroke:none"
             d=""
             id="path6151" />
        </symbol>
        <symbol
           overflow="visible"
           id="textext-14ffc4fb-1"
           style="overflow:visible">
          <path
             style="stroke:none"
             d="m 3.296875,2.390625 c 0,-0.03125 0,-0.046875 -0.171875,-0.21875 C 1.890625,0.921875 1.5625,-0.96875 1.5625,-2.5 c 0,-1.734375 0.375,-3.46875 1.609375,-4.703125 0.125,-0.125 0.125,-0.140625 0.125,-0.171875 0,-0.078125 -0.03125,-0.109375 -0.09375,-0.109375 -0.109375,0 -1,0.6875 -1.59375,1.953125 -0.5,1.09375 -0.625,2.203125 -0.625,3.03125 0,0.78125 0.109375,1.984375 0.65625,3.125 C 2.25,1.84375 3.09375,2.5 3.203125,2.5 c 0.0625,0 0.09375,-0.03125 0.09375,-0.109375 z m 0,0"
             id="path6154" />
        </symbol>
        <symbol
           overflow="visible"
           id="textext-14ffc4fb-2"
           style="overflow:visible">
          <path
             style="stroke:none"
             d="m 2.9375,-6.375 c 0,-0.25 0,-0.265625 -0.234375,-0.265625 C 2.078125,-6 1.203125,-6 0.890625,-6 l 0,0.3125 c 0.203125,0 0.78125,0 1.296875,-0.265625 l 0,5.171875 c 0,0.359375 -0.03125,0.46875 -0.921875,0.46875 l -0.3125,0 0,0.3125 c 0.34375,-0.03125 1.203125,-0.03125 1.609375,-0.03125 0.390625,0 1.265625,0 1.609375,0.03125 l 0,-0.3125 -0.3125,0 c -0.90625,0 -0.921875,-0.109375 -0.921875,-0.46875 l 0,-5.59375 z m 0,0"
             id="path6157" />
        </symbol>
        <symbol
           overflow="visible"
           id="textext-14ffc4fb-3"
           style="overflow:visible">
          <path
             style="stroke:none"
             d="m 4.578125,-3.1875 c 0,-0.796875 -0.046875,-1.59375 -0.390625,-2.328125 -0.453125,-0.96875 -1.28125,-1.125 -1.6875,-1.125 -0.609375,0 -1.328125,0.265625 -1.75,1.1875 -0.3125,0.6875 -0.359375,1.46875 -0.359375,2.265625 0,0.75 0.03125,1.640625 0.453125,2.40625 0.421875,0.796875 1.15625,1 1.640625,1 0.53125,0 1.296875,-0.203125 1.734375,-1.15625 0.3125,-0.6875 0.359375,-1.46875 0.359375,-2.25 z M 2.484375,0 C 2.09375,0 1.5,-0.25 1.328125,-1.203125 1.21875,-1.796875 1.21875,-2.71875 1.21875,-3.3125 c 0,-0.640625 0,-1.296875 0.078125,-1.828125 0.1875,-1.1875 0.9375,-1.28125 1.1875,-1.28125 0.328125,0 0.984375,0.1875 1.171875,1.171875 0.109375,0.5625 0.109375,1.3125 0.109375,1.9375 0,0.75 0,1.421875 -0.109375,2.0625 C 3.5,-0.296875 2.9375,0 2.484375,0 z m 0,0"
             id="path6160" />
        </symbol>
        <symbol
           overflow="visible"
           id="textext-14ffc4fb-4"
           style="overflow:visible">
          <path
             style="stroke:none"
             d="m 2.875,-2.5 c 0,-0.765625 -0.109375,-1.96875 -0.65625,-3.109375 -0.59375,-1.21875 -1.453125,-1.875 -1.546875,-1.875 -0.0625,0 -0.109375,0.046875 -0.109375,0.109375 0,0.03125 0,0.046875 0.1875,0.234375 0.984375,0.984375 1.546875,2.5625 1.546875,4.640625 0,1.71875 -0.359375,3.46875 -1.59375,4.71875 C 0.5625,2.34375 0.5625,2.359375 0.5625,2.390625 0.5625,2.453125 0.609375,2.5 0.671875,2.5 0.765625,2.5 1.671875,1.8125 2.25,0.546875 2.765625,-0.546875 2.875,-1.65625 2.875,-2.5 z m 0,0"
             id="path6163" />
        </symbol>
        <symbol
           overflow="visible"
           id="textext-14ffc4fb-5"
           style="overflow:visible">
          <path
             style="stroke:none"
             d=""
             id="path6166" />
        </symbol>
        <symbol
           overflow="visible"
           id="textext-14ffc4fb-6"
           style="overflow:visible">
          <path
             style="stroke:none"
             d="m 1.90625,-0.53125 c 0,-0.28125 -0.234375,-0.53125 -0.515625,-0.53125 -0.296875,0 -0.53125,0.25 -0.53125,0.53125 C 0.859375,-0.234375 1.09375,0 1.390625,0 1.671875,0 1.90625,-0.234375 1.90625,-0.53125 z m 0,0"
             id="path6169" />
        </symbol>
        <symbol
           overflow="visible"
           id="textext-14ffc4fb-7"
           style="overflow:visible">
          <path
             style="stroke:none"
             d="m 3.65625,-3.984375 0.859375,0 c 0.203125,0 0.296875,0 0.296875,-0.203125 0,-0.109375 -0.09375,-0.109375 -0.265625,-0.109375 l -0.828125,0 0.203125,-1.140625 c 0.046875,-0.203125 0.1875,-0.90625 0.25,-1.03125 0.078125,-0.1875 0.25,-0.34375 0.46875,-0.34375 0.03125,0 0.296875,0 0.484375,0.1875 -0.4375,0.03125 -0.546875,0.390625 -0.546875,0.53125 0,0.234375 0.1875,0.359375 0.375,0.359375 C 5.21875,-5.734375 5.5,-5.96875 5.5,-6.34375 c 0,-0.453125 -0.453125,-0.6875 -0.859375,-0.6875 -0.34375,0 -0.96875,0.1875 -1.265625,1.171875 -0.0625,0.203125 -0.09375,0.3125 -0.328125,1.5625 l -0.6875,0 c -0.203125,0 -0.3125,0 -0.3125,0.1875 0,0.125 0.09375,0.125 0.28125,0.125 l 0.65625,0 -0.734375,3.9375 c -0.1875,0.96875 -0.359375,1.875 -0.875,1.875 -0.046875,0 -0.28125,0 -0.484375,-0.1875 C 1.359375,1.609375 1.453125,1.25 1.453125,1.109375 1.453125,0.875 1.265625,0.75 1.078125,0.75 0.8125,0.75 0.53125,0.984375 0.53125,1.359375 c 0,0.4375 0.4375,0.6875 0.84375,0.6875 0.546875,0 0.953125,-0.59375 1.125,-0.96875 0.328125,-0.625 0.546875,-1.828125 0.5625,-1.90625 l 0.59375,-3.15625 z m 0,0"
             id="path6172" />
        </symbol>
        <symbol
           overflow="visible"
           id="textext-14ffc4fb-8"
           style="overflow:visible">
          <path
             style="stroke:none"
             d="m 2.03125,-0.015625 c 0,-0.65625 -0.25,-1.046875 -0.640625,-1.046875 -0.328125,0 -0.53125,0.25 -0.53125,0.53125 C 0.859375,-0.265625 1.0625,0 1.390625,0 1.5,0 1.640625,-0.046875 1.734375,-0.125 1.765625,-0.15625 1.78125,-0.15625 1.78125,-0.15625 c 0.015625,0 0.015625,0 0.015625,0.140625 0,0.75 -0.34375,1.34375 -0.671875,1.671875 -0.109375,0.109375 -0.109375,0.125 -0.109375,0.15625 0,0.078125 0.046875,0.109375 0.09375,0.109375 0.109375,0 0.921875,-0.765625 0.921875,-1.9375 z m 0,0"
             id="path6175" />
        </symbol>
      </g>
    </defs>
    <linearGradient
       inkscape:collect="always"
       xlink:href="#linearGradient3589"
       id="linearGradient6723"
       gradientUnits="userSpaceOnUse"
       gradientTransform="matrix(2.3900673,0,0,2.3900673,-159.57538,230.42584)"
       x1="180.82747"
       y1="65.948219"
       x2="226.7691"
       y2="52.816238" />
  </defs>
  <metadata
     id="metadata5581">
    <rdf:RDF>
      <cc:Work
         rdf:about="">
        <dc:format>image/svg+xml</dc:format>
        <dc:type
           rdf:resource="http://purl.org/dc/dcmitype/StillImage" />
        <dc:title></dc:title>
      </cc:Work>
    </rdf:RDF>
  </metadata>
  <g
     id="layer1"
     inkscape:groupmode="layer"
     inkscape:label="Vrstva 1"
     transform="translate(-199.85659,-264.49237)">
    <g
       id="g6588">
      <rect
         y="286.64456"
         x="239.99667"
         height="140.0313"
         width="140.0313"
         id="rect2815"
         style="fill:url(#linearGradient6723);fill-opacity:1;stroke:#000000;stroke-width:2.39006734;stroke-linecap:butt;stroke-linejoin:round;stroke-miterlimit:4;stroke-opacity:1;stroke-dasharray:none;stroke-dashoffset:0" />
      <g
         transform="matrix(1.5,0,0,1.5,-136.76798,244.08926)"
         ns0:text="$(0.0f,0.0f)$"
         ns0:preamble=""
         id="g5636">
        <defs
           id="defs5638">
          <g
             id="g5640">
            <symbol
               style="overflow:visible"
               overflow="visible"
               id="textext-018465c3-0">
              <path
                 style="stroke:none"
                 d=""
                 id="path5643" />
            </symbol>
            <symbol
               style="overflow:visible"
               overflow="visible"
               id="textext-018465c3-1">
              <path
                 style="stroke:none"
                 d="m 3.296875,2.390625 c 0,-0.03125 0,-0.046875 -0.171875,-0.21875 C 1.890625,0.921875 1.5625,-0.96875 1.5625,-2.5 c 0,-1.734375 0.375,-3.46875 1.609375,-4.703125 0.125,-0.125 0.125,-0.140625 0.125,-0.171875 0,-0.078125 -0.03125,-0.109375 -0.09375,-0.109375 -0.109375,0 -1,0.6875 -1.59375,1.953125 -0.5,1.09375 -0.625,2.203125 -0.625,3.03125 0,0.78125 0.109375,1.984375 0.65625,3.125 C 2.25,1.84375 3.09375,2.5 3.203125,2.5 c 0.0625,0 0.09375,-0.03125 0.09375,-0.109375 z m 0,0"
                 id="path5646" />
            </symbol>
            <symbol
               style="overflow:visible"
               overflow="visible"
               id="textext-018465c3-2">
              <path
                 style="stroke:none"
                 d="m 4.578125,-3.1875 c 0,-0.796875 -0.046875,-1.59375 -0.390625,-2.328125 -0.453125,-0.96875 -1.28125,-1.125 -1.6875,-1.125 -0.609375,0 -1.328125,0.265625 -1.75,1.1875 -0.3125,0.6875 -0.359375,1.46875 -0.359375,2.265625 0,0.75 0.03125,1.640625 0.453125,2.40625 0.421875,0.796875 1.15625,1 1.640625,1 0.53125,0 1.296875,-0.203125 1.734375,-1.15625 0.3125,-0.6875 0.359375,-1.46875 0.359375,-2.25 z M 2.484375,0 C 2.09375,0 1.5,-0.25 1.328125,-1.203125 1.21875,-1.796875 1.21875,-2.71875 1.21875,-3.3125 c 0,-0.640625 0,-1.296875 0.078125,-1.828125 0.1875,-1.1875 0.9375,-1.28125 1.1875,-1.28125 0.328125,0 0.984375,0.1875 1.171875,1.171875 0.109375,0.5625 0.109375,1.3125 0.109375,1.9375 0,0.75 0,1.421875 -0.109375,2.0625 C 3.5,-0.296875 2.9375,0 2.484375,0 z m 0,0"
                 id="path5649" />
            </symbol>
            <symbol
               style="overflow:visible"
               overflow="visible"
               id="textext-018465c3-3">
              <path
                 style="stroke:none"
                 d="m 2.875,-2.5 c 0,-0.765625 -0.109375,-1.96875 -0.65625,-3.109375 -0.59375,-1.21875 -1.453125,-1.875 -1.546875,-1.875 -0.0625,0 -0.109375,0.046875 -0.109375,0.109375 0,0.03125 0,0.046875 0.1875,0.234375 0.984375,0.984375 1.546875,2.5625 1.546875,4.640625 0,1.71875 -0.359375,3.46875 -1.59375,4.71875 C 0.5625,2.34375 0.5625,2.359375 0.5625,2.390625 0.5625,2.453125 0.609375,2.5 0.671875,2.5 0.765625,2.5 1.671875,1.8125 2.25,0.546875 2.765625,-0.546875 2.875,-1.65625 2.875,-2.5 z m 0,0"
                 id="path5652" />
            </symbol>
            <symbol
               style="overflow:visible"
               overflow="visible"
               id="textext-018465c3-4">
              <path
                 style="stroke:none"
                 d=""
                 id="path5655" />
            </symbol>
            <symbol
               style="overflow:visible"
               overflow="visible"
               id="textext-018465c3-5">
              <path
                 style="stroke:none"
                 d="m 1.90625,-0.53125 c 0,-0.28125 -0.234375,-0.53125 -0.515625,-0.53125 -0.296875,0 -0.53125,0.25 -0.53125,0.53125 C 0.859375,-0.234375 1.09375,0 1.390625,0 1.671875,0 1.90625,-0.234375 1.90625,-0.53125 z m 0,0"
                 id="path5658" />
            </symbol>
            <symbol
               style="overflow:visible"
               overflow="visible"
               id="textext-018465c3-6">
              <path
                 style="stroke:none"
                 d="m 3.65625,-3.984375 0.859375,0 c 0.203125,0 0.296875,0 0.296875,-0.203125 0,-0.109375 -0.09375,-0.109375 -0.265625,-0.109375 l -0.828125,0 0.203125,-1.140625 c 0.046875,-0.203125 0.1875,-0.90625 0.25,-1.03125 0.078125,-0.1875 0.25,-0.34375 0.46875,-0.34375 0.03125,0 0.296875,0 0.484375,0.1875 -0.4375,0.03125 -0.546875,0.390625 -0.546875,0.53125 0,0.234375 0.1875,0.359375 0.375,0.359375 C 5.21875,-5.734375 5.5,-5.96875 5.5,-6.34375 c 0,-0.453125 -0.453125,-0.6875 -0.859375,-0.6875 -0.34375,0 -0.96875,0.1875 -1.265625,1.171875 -0.0625,0.203125 -0.09375,0.3125 -0.328125,1.5625 l -0.6875,0 c -0.203125,0 -0.3125,0 -0.3125,0.1875 0,0.125 0.09375,0.125 0.28125,0.125 l 0.65625,0 -0.734375,3.9375 c -0.1875,0.96875 -0.359375,1.875 -0.875,1.875 -0.046875,0 -0.28125,0 -0.484375,-0.1875 C 1.359375,1.609375 1.453125,1.25 1.453125,1.109375 1.453125,0.875 1.265625,0.75 1.078125,0.75 0.8125,0.75 0.53125,0.984375 0.53125,1.359375 c 0,0.4375 0.4375,0.6875 0.84375,0.6875 0.546875,0 0.953125,-0.59375 1.125,-0.96875 0.328125,-0.625 0.546875,-1.828125 0.5625,-1.90625 l 0.59375,-3.15625 z m 0,0"
                 id="path5661" />
            </symbol>
            <symbol
               style="overflow:visible"
               overflow="visible"
               id="textext-018465c3-7">
              <path
                 style="stroke:none"
                 d="m 2.03125,-0.015625 c 0,-0.65625 -0.25,-1.046875 -0.640625,-1.046875 -0.328125,0 -0.53125,0.25 -0.53125,0.53125 C 0.859375,-0.265625 1.0625,0 1.390625,0 1.5,0 1.640625,-0.046875 1.734375,-0.125 1.765625,-0.15625 1.78125,-0.15625 1.78125,-0.15625 c 0.015625,0 0.015625,0 0.015625,0.140625 0,0.75 -0.34375,1.34375 -0.671875,1.671875 -0.109375,0.109375 -0.109375,0.125 -0.109375,0.15625 0,0.078125 0.046875,0.109375 0.09375,0.109375 0.109375,0 0.921875,-0.765625 0.921875,-1.9375 z m 0,0"
                 id="path5664" />
            </symbol>
          </g>
        </defs>
        <g
           id="textext-018465c3-8">
          <g
             style="fill:#000000;fill-opacity:1"
             id="g5667">
            <use
               height="1052.3622"
               width="744.09448"
               xlink:href="#textext-018465c3-1"
               x="223.43201"
               y="134.765"
               id="use5669" />
            <use
               height="1052.3622"
               width="744.09448"
               xlink:href="#textext-018465c3-2"
               x="227.30646"
               y="134.765"
               id="use5671" />
          </g>
          <g
             style="fill:#000000;fill-opacity:1"
             id="g5673">
            <use
               height="1052.3622"
               width="744.09448"
               xlink:href="#textext-018465c3-5"
               x="232.28799"
               y="134.765"
               id="use5675" />
          </g>
          <g
             style="fill:#000000;fill-opacity:1"
             id="g5677">
            <use
               height="1052.3622"
               width="744.09448"
               xlink:href="#textext-018465c3-2"
               x="235.05499"
               y="134.765"
               id="use5679" />
          </g>
          <g
             style="fill:#000000;fill-opacity:1"
             id="g5681">
            <use
               height="1052.3622"
               width="744.09448"
               xlink:href="#textext-018465c3-6"
               x="240.037"
               y="134.765"
               id="use5683" />
          </g>
          <g
             style="fill:#000000;fill-opacity:1"
             id="g5685">
            <use
               height="1052.3622"
               width="744.09448"
               xlink:href="#textext-018465c3-7"
               x="245.43274"
               y="134.765"
               id="use5687" />
          </g>
          <g
             style="fill:#000000;fill-opacity:1"
             id="g5689">
            <use
               height="1052.3622"
               width="744.09448"
               xlink:href="#textext-018465c3-2"
               x="249.86099"
               y="134.765"
               id="use5691" />
          </g>
          <g
             style="fill:#000000;fill-opacity:1"
             id="g5693">
            <use
               height="1052.3622"
               width="744.09448"
               xlink:href="#textext-018465c3-5"
               x="254.842"
               y="134.765"
               id="use5695" />
          </g>
          <g
             style="fill:#000000;fill-opacity:1"
             id="g5697">
            <use
               height="1052.3622"
               width="744.09448"
               xlink:href="#textext-018465c3-2"
               x="257.60999"
               y="134.765"
               id="use5699" />
          </g>
          <g
             style="fill:#000000;fill-opacity:1"
             id="g5701">
            <use
               height="1052.3622"
               width="744.09448"
               xlink:href="#textext-018465c3-6"
               x="262.591"
               y="134.765"
               id="use5703" />
          </g>
          <g
             style="fill:#000000;fill-opacity:1"
             id="g5705">
            <use
               height="1052.3622"
               width="744.09448"
               xlink:href="#textext-018465c3-3"
               x="268.54099"
               y="134.765"
               id="use5707" />
          </g>
        </g>
      </g>
      <g
         id="g5821"
         ns0:preamble=""
         ns0:text="$(1.0f,1.0f)$"
         transform="matrix(1.5,0,0,1.5,12.857143,73.571429)">
        <defs
           id="defs5823">
          <g
             id="g5825">
            <symbol
               id="textext-8fe8a2c2-0"
               overflow="visible"
               style="overflow:visible">
              <path
                 id="path5828"
                 d=""
                 style="stroke:none" />
            </symbol>
            <symbol
               id="textext-8fe8a2c2-1"
               overflow="visible"
               style="overflow:visible">
              <path
                 id="path5831"
                 d="m 3.296875,2.390625 c 0,-0.03125 0,-0.046875 -0.171875,-0.21875 C 1.890625,0.921875 1.5625,-0.96875 1.5625,-2.5 c 0,-1.734375 0.375,-3.46875 1.609375,-4.703125 0.125,-0.125 0.125,-0.140625 0.125,-0.171875 0,-0.078125 -0.03125,-0.109375 -0.09375,-0.109375 -0.109375,0 -1,0.6875 -1.59375,1.953125 -0.5,1.09375 -0.625,2.203125 -0.625,3.03125 0,0.78125 0.109375,1.984375 0.65625,3.125 C 2.25,1.84375 3.09375,2.5 3.203125,2.5 c 0.0625,0 0.09375,-0.03125 0.09375,-0.109375 z m 0,0"
                 style="stroke:none" />
            </symbol>
            <symbol
               id="textext-8fe8a2c2-2"
               overflow="visible"
               style="overflow:visible">
              <path
                 id="path5834"
                 d="m 2.9375,-6.375 c 0,-0.25 0,-0.265625 -0.234375,-0.265625 C 2.078125,-6 1.203125,-6 0.890625,-6 l 0,0.3125 c 0.203125,0 0.78125,0 1.296875,-0.265625 l 0,5.171875 c 0,0.359375 -0.03125,0.46875 -0.921875,0.46875 l -0.3125,0 0,0.3125 c 0.34375,-0.03125 1.203125,-0.03125 1.609375,-0.03125 0.390625,0 1.265625,0 1.609375,0.03125 l 0,-0.3125 -0.3125,0 c -0.90625,0 -0.921875,-0.109375 -0.921875,-0.46875 l 0,-5.59375 z m 0,0"
                 style="stroke:none" />
            </symbol>
            <symbol
               id="textext-8fe8a2c2-3"
               overflow="visible"
               style="overflow:visible">
              <path
                 id="path5837"
                 d="m 4.578125,-3.1875 c 0,-0.796875 -0.046875,-1.59375 -0.390625,-2.328125 -0.453125,-0.96875 -1.28125,-1.125 -1.6875,-1.125 -0.609375,0 -1.328125,0.265625 -1.75,1.1875 -0.3125,0.6875 -0.359375,1.46875 -0.359375,2.265625 0,0.75 0.03125,1.640625 0.453125,2.40625 0.421875,0.796875 1.15625,1 1.640625,1 0.53125,0 1.296875,-0.203125 1.734375,-1.15625 0.3125,-0.6875 0.359375,-1.46875 0.359375,-2.25 z M 2.484375,0 C 2.09375,0 1.5,-0.25 1.328125,-1.203125 1.21875,-1.796875 1.21875,-2.71875 1.21875,-3.3125 c 0,-0.640625 0,-1.296875 0.078125,-1.828125 0.1875,-1.1875 0.9375,-1.28125 1.1875,-1.28125 0.328125,0 0.984375,0.1875 1.171875,1.171875 0.109375,0.5625 0.109375,1.3125 0.109375,1.9375 0,0.75 0,1.421875 -0.109375,2.0625 C 3.5,-0.296875 2.9375,0 2.484375,0 z m 0,0"
                 style="stroke:none" />
            </symbol>
            <symbol
               id="textext-8fe8a2c2-4"
               overflow="visible"
               style="overflow:visible">
              <path
                 id="path5840"
                 d="m 2.875,-2.5 c 0,-0.765625 -0.109375,-1.96875 -0.65625,-3.109375 -0.59375,-1.21875 -1.453125,-1.875 -1.546875,-1.875 -0.0625,0 -0.109375,0.046875 -0.109375,0.109375 0,0.03125 0,0.046875 0.1875,0.234375 0.984375,0.984375 1.546875,2.5625 1.546875,4.640625 0,1.71875 -0.359375,3.46875 -1.59375,4.71875 C 0.5625,2.34375 0.5625,2.359375 0.5625,2.390625 0.5625,2.453125 0.609375,2.5 0.671875,2.5 0.765625,2.5 1.671875,1.8125 2.25,0.546875 2.765625,-0.546875 2.875,-1.65625 2.875,-2.5 z m 0,0"
                 style="stroke:none" />
            </symbol>
            <symbol
               id="textext-8fe8a2c2-5"
               overflow="visible"
               style="overflow:visible">
              <path
                 id="path5843"
                 d=""
                 style="stroke:none" />
            </symbol>
            <symbol
               id="textext-8fe8a2c2-6"
               overflow="visible"
               style="overflow:visible">
              <path
                 id="path5846"
                 d="m 1.90625,-0.53125 c 0,-0.28125 -0.234375,-0.53125 -0.515625,-0.53125 -0.296875,0 -0.53125,0.25 -0.53125,0.53125 C 0.859375,-0.234375 1.09375,0 1.390625,0 1.671875,0 1.90625,-0.234375 1.90625,-0.53125 z m 0,0"
                 style="stroke:none" />
            </symbol>
            <symbol
               id="textext-8fe8a2c2-7"
               overflow="visible"
               style="overflow:visible">
              <path
                 id="path5849"
                 d="m 3.65625,-3.984375 0.859375,0 c 0.203125,0 0.296875,0 0.296875,-0.203125 0,-0.109375 -0.09375,-0.109375 -0.265625,-0.109375 l -0.828125,0 0.203125,-1.140625 c 0.046875,-0.203125 0.1875,-0.90625 0.25,-1.03125 0.078125,-0.1875 0.25,-0.34375 0.46875,-0.34375 0.03125,0 0.296875,0 0.484375,0.1875 -0.4375,0.03125 -0.546875,0.390625 -0.546875,0.53125 0,0.234375 0.1875,0.359375 0.375,0.359375 C 5.21875,-5.734375 5.5,-5.96875 5.5,-6.34375 c 0,-0.453125 -0.453125,-0.6875 -0.859375,-0.6875 -0.34375,0 -0.96875,0.1875 -1.265625,1.171875 -0.0625,0.203125 -0.09375,0.3125 -0.328125,1.5625 l -0.6875,0 c -0.203125,0 -0.3125,0 -0.3125,0.1875 0,0.125 0.09375,0.125 0.28125,0.125 l 0.65625,0 -0.734375,3.9375 c -0.1875,0.96875 -0.359375,1.875 -0.875,1.875 -0.046875,0 -0.28125,0 -0.484375,-0.1875 C 1.359375,1.609375 1.453125,1.25 1.453125,1.109375 1.453125,0.875 1.265625,0.75 1.078125,0.75 0.8125,0.75 0.53125,0.984375 0.53125,1.359375 c 0,0.4375 0.4375,0.6875 0.84375,0.6875 0.546875,0 0.953125,-0.59375 1.125,-0.96875 0.328125,-0.625 0.546875,-1.828125 0.5625,-1.90625 l 0.59375,-3.15625 z m 0,0"
                 style="stroke:none" />
            </symbol>
            <symbol
               id="textext-8fe8a2c2-8"
               overflow="visible"
               style="overflow:visible">
              <path
                 id="path5852"
                 d="m 2.03125,-0.015625 c 0,-0.65625 -0.25,-1.046875 -0.640625,-1.046875 -0.328125,0 -0.53125,0.25 -0.53125,0.53125 C 0.859375,-0.265625 1.0625,0 1.390625,0 1.5,0 1.640625,-0.046875 1.734375,-0.125 1.765625,-0.15625 1.78125,-0.15625 1.78125,-0.15625 c 0.015625,0 0.015625,0 0.015625,0.140625 0,0.75 -0.34375,1.34375 -0.671875,1.671875 -0.109375,0.109375 -0.109375,0.125 -0.109375,0.15625 0,0.078125 0.046875,0.109375 0.09375,0.109375 0.109375,0 0.921875,-0.765625 0.921875,-1.9375 z m 0,0"
                 style="stroke:none" />
            </symbol>
          </g>
        </defs>
        <g
           id="textext-8fe8a2c2-9">
          <g
             id="g5855"
             style="fill:#000000;fill-opacity:1">
            <use
               id="use5857"
               y="134.765"
               x="223.43201"
               xlink:href="#textext-8fe8a2c2-1"
               width="744.09448"
               height="1052.3622" />
            <use
               id="use5859"
               y="134.765"
               x="227.30646"
               xlink:href="#textext-8fe8a2c2-2"
               width="744.09448"
               height="1052.3622" />
          </g>
          <g
             id="g5861"
             style="fill:#000000;fill-opacity:1">
            <use
               id="use5863"
               y="134.765"
               x="232.28799"
               xlink:href="#textext-8fe8a2c2-6"
               width="744.09448"
               height="1052.3622" />
          </g>
          <g
             id="g5865"
             style="fill:#000000;fill-opacity:1">
            <use
               id="use5867"
               y="134.765"
               x="235.05499"
               xlink:href="#textext-8fe8a2c2-3"
               width="744.09448"
               height="1052.3622" />
          </g>
          <g
             id="g5869"
             style="fill:#000000;fill-opacity:1">
            <use
               id="use5871"
               y="134.765"
               x="240.037"
               xlink:href="#textext-8fe8a2c2-7"
               width="744.09448"
               height="1052.3622" />
          </g>
          <g
             id="g5873"
             style="fill:#000000;fill-opacity:1">
            <use
               id="use5875"
               y="134.765"
               x="245.43274"
               xlink:href="#textext-8fe8a2c2-8"
               width="744.09448"
               height="1052.3622" />
          </g>
          <g
             id="g5877"
             style="fill:#000000;fill-opacity:1">
            <use
               id="use5879"
               y="134.765"
               x="249.86099"
               xlink:href="#textext-8fe8a2c2-2"
               width="744.09448"
               height="1052.3622" />
          </g>
          <g
             id="g5881"
             style="fill:#000000;fill-opacity:1">
            <use
               id="use5883"
               y="134.765"
               x="254.842"
               xlink:href="#textext-8fe8a2c2-6"
               width="744.09448"
               height="1052.3622" />
          </g>
          <g
             id="g5885"
             style="fill:#000000;fill-opacity:1">
            <use
               id="use5887"
               y="134.765"
               x="257.60999"
               xlink:href="#textext-8fe8a2c2-3"
               width="744.09448"
               height="1052.3622" />
          </g>
          <g
             id="g5889"
             style="fill:#000000;fill-opacity:1">
            <use
               id="use5891"
               y="134.765"
               x="262.591"
               xlink:href="#textext-8fe8a2c2-7"
               width="744.09448"
               height="1052.3622" />
          </g>
          <g
             id="g5893"
             style="fill:#000000;fill-opacity:1">
            <use
               id="use5895"
               y="134.765"
               x="268.54099"
               xlink:href="#textext-8fe8a2c2-4"
               width="744.09448"
               height="1052.3622" />
          </g>
        </g>
      </g>
      <path
         sodipodi:type="arc"
         style="fill:#000000;fill-opacity:1;stroke:#000000;stroke-width:1;stroke-linecap:butt;stroke-linejoin:round;stroke-miterlimit:4;stroke-opacity:1;stroke-dasharray:none;stroke-dashoffset:0"
         id="path5995"
         sodipodi:cx="123.57143"
         sodipodi:cy="318.79074"
         sodipodi:rx="5"
         sodipodi:ry="5"
         d="m 128.57143,318.79074 c 0,2.76142 -2.23858,5 -5,5 -2.76143,0 -5,-2.23858 -5,-5 0,-2.76142 2.23857,-5 5,-5 2.76142,0 5,2.23858 5,5 z"
         transform="translate(116.07143,106.78572)" />
      <path
         sodipodi:type="arc"
         style="fill:#000000;fill-opacity:1;stroke:#000000;stroke-width:1;stroke-linecap:butt;stroke-linejoin:round;stroke-miterlimit:4;stroke-opacity:1;stroke-dasharray:none;stroke-dashoffset:0"
         id="path5995-9"
         sodipodi:cx="123.57143"
         sodipodi:cy="318.79074"
         sodipodi:rx="5"
         sodipodi:ry="5"
         d="m 128.57143,318.79074 c 0,2.76142 -2.23858,5 -5,5 -2.76143,0 -5,-2.23858 -5,-5 0,-2.76142 2.23857,-5 5,-5 2.76142,0 5,2.23858 5,5 z"
         transform="translate(255.89286,107.85716)" />
      <path
         sodipodi:type="arc"
         style="fill:#000000;fill-opacity:1;stroke:#000000;stroke-width:1;stroke-linecap:butt;stroke-linejoin:round;stroke-miterlimit:4;stroke-opacity:1;stroke-dasharray:none;stroke-dashoffset:0"
         id="path5995-7"
         sodipodi:cx="123.57143"
         sodipodi:cy="318.79074"
         sodipodi:rx="5"
         sodipodi:ry="5"
         d="m 128.57143,318.79074 c 0,2.76142 -2.23858,5 -5,5 -2.76143,0 -5,-2.23858 -5,-5 0,-2.76142 2.23857,-5 5,-5 2.76142,0 5,2.23858 5,5 z"
         transform="translate(255.66964,-32.633916)" />
      <path
         sodipodi:type="arc"
         style="fill:#000000;fill-opacity:1;stroke:#000000;stroke-width:1;stroke-linecap:butt;stroke-linejoin:round;stroke-miterlimit:4;stroke-opacity:1;stroke-dasharray:none;stroke-dashoffset:0"
         id="path5995-4"
         sodipodi:cx="123.57143"
         sodipodi:cy="318.79074"
         sodipodi:rx="5"
         sodipodi:ry="5"
         d="m 128.57143,318.79074 c 0,2.76142 -2.23858,5 -5,5 -2.76143,0 -5,-2.23858 -5,-5 0,-2.76142 2.23857,-5 5,-5 2.76142,0 5,2.23858 5,5 z"
         transform="translate(116.56251,-31.473202)" />
      <g
         transform="translate(10.714286,244.08926)"
         id="g6538">
        <g
           id="g6178"
           style="fill:#000000;fill-opacity:1"
           transform="scale(1.5,1.5)">
          <use
             id="use6180"
             y="134.765"
             x="223.43201"
             xlink:href="#textext-14ffc4fb-1"
             width="744.09448"
             height="1052.3622" />
          <use
             id="use6182"
             y="134.765"
             x="227.30646"
             xlink:href="#textext-14ffc4fb-2"
             width="744.09448"
             height="1052.3622" />
        </g>
        <g
           id="g6184"
           style="fill:#000000;fill-opacity:1"
           transform="scale(1.5,1.5)">
          <use
             id="use6186"
             y="134.765"
             x="232.28799"
             xlink:href="#textext-14ffc4fb-6"
             width="744.09448"
             height="1052.3622" />
        </g>
        <g
           id="g6188"
           style="fill:#000000;fill-opacity:1"
           transform="scale(1.5,1.5)">
          <use
             id="use6190"
             y="134.765"
             x="235.05499"
             xlink:href="#textext-14ffc4fb-3"
             width="744.09448"
             height="1052.3622" />
        </g>
        <g
           id="g6192"
           style="fill:#000000;fill-opacity:1"
           transform="scale(1.5,1.5)">
          <use
             id="use6194"
             y="134.765"
             x="240.037"
             xlink:href="#textext-14ffc4fb-7"
             width="744.09448"
             height="1052.3622" />
        </g>
        <g
           id="g6196"
           style="fill:#000000;fill-opacity:1"
           transform="scale(1.5,1.5)">
          <use
             id="use6198"
             y="134.765"
             x="245.43274"
             xlink:href="#textext-14ffc4fb-8"
             width="744.09448"
             height="1052.3622" />
        </g>
        <g
           id="g6200"
           style="fill:#000000;fill-opacity:1"
           transform="scale(1.5,1.5)">
          <use
             id="use6202"
             y="134.765"
             x="249.86099"
             xlink:href="#textext-14ffc4fb-3"
             width="744.09448"
             height="1052.3622" />
        </g>
        <g
           id="g6204"
           style="fill:#000000;fill-opacity:1"
           transform="scale(1.5,1.5)">
          <use
             id="use6206"
             y="134.765"
             x="254.842"
             xlink:href="#textext-14ffc4fb-6"
             width="744.09448"
             height="1052.3622" />
        </g>
        <g
           id="g6208"
           style="fill:#000000;fill-opacity:1"
           transform="scale(1.5,1.5)">
          <use
             id="use6210"
             y="134.765"
             x="257.60999"
             xlink:href="#textext-14ffc4fb-3"
             width="744.09448"
             height="1052.3622" />
        </g>
        <g
           id="g6212"
           style="fill:#000000;fill-opacity:1"
           transform="scale(1.5,1.5)">
          <use
             id="use6214"
             y="134.765"
             x="262.591"
             xlink:href="#textext-14ffc4fb-7"
             width="744.09448"
             height="1052.3622" />
        </g>
        <g
           id="g6216"
           style="fill:#000000;fill-opacity:1"
           transform="scale(1.5,1.5)">
          <use
             id="use6218"
             y="134.765"
             x="268.54099"
             xlink:href="#textext-14ffc4fb-4"
             width="744.09448"
             height="1052.3622" />
        </g>
      </g>
      <g
         transform="translate(-213.57143,73.571429)"
         id="g6561">
        <g
           id="g6220"
           style="fill:#000000;fill-opacity:1"
           transform="scale(1.5,1.5)">
          <use
             id="use6222"
             y="134.765"
             x="275.733"
             xlink:href="#textext-14ffc4fb-1"
             width="744.09448"
             height="1052.3622" />
          <use
             id="use6224"
             y="134.765"
             x="279.60745"
             xlink:href="#textext-14ffc4fb-3"
             width="744.09448"
             height="1052.3622" />
        </g>
        <g
           id="g6226"
           style="fill:#000000;fill-opacity:1"
           transform="scale(1.5,1.5)">
          <use
             id="use6228"
             y="134.765"
             x="284.59201"
             xlink:href="#textext-14ffc4fb-6"
             width="744.09448"
             height="1052.3622" />
        </g>
        <g
           id="g6230"
           style="fill:#000000;fill-opacity:1"
           transform="scale(1.5,1.5)">
          <use
             id="use6232"
             y="134.765"
             x="287.35901"
             xlink:href="#textext-14ffc4fb-3"
             width="744.09448"
             height="1052.3622" />
        </g>
        <g
           id="g6234"
           style="fill:#000000;fill-opacity:1"
           transform="scale(1.5,1.5)">
          <use
             id="use6236"
             y="134.765"
             x="292.341"
             xlink:href="#textext-14ffc4fb-7"
             width="744.09448"
             height="1052.3622" />
        </g>
        <g
           id="g6238"
           style="fill:#000000;fill-opacity:1"
           transform="scale(1.5,1.5)">
          <use
             id="use6240"
             y="134.765"
             x="297.73676"
             xlink:href="#textext-14ffc4fb-8"
             width="744.09448"
             height="1052.3622" />
        </g>
        <g
           id="g6242"
           style="fill:#000000;fill-opacity:1"
           transform="scale(1.5,1.5)">
          <use
             id="use6244"
             y="134.765"
             x="302.16501"
             xlink:href="#textext-14ffc4fb-2"
             width="744.09448"
             height="1052.3622" />
        </g>
        <g
           id="g6246"
           style="fill:#000000;fill-opacity:1"
           transform="scale(1.5,1.5)">
          <use
             id="use6248"
             y="134.765"
             x="307.146"
             xlink:href="#textext-14ffc4fb-6"
             width="744.09448"
             height="1052.3622" />
        </g>
        <g
           id="g6250"
           style="fill:#000000;fill-opacity:1"
           transform="scale(1.5,1.5)">
          <use
             id="use6252"
             y="134.765"
             x="309.914"
             xlink:href="#textext-14ffc4fb-3"
             width="744.09448"
             height="1052.3622" />
        </g>
        <g
           id="g6254"
           style="fill:#000000;fill-opacity:1"
           transform="scale(1.5,1.5)">
          <use
             id="use6256"
             y="134.765"
             x="314.89499"
             xlink:href="#textext-14ffc4fb-7"
             width="744.09448"
             height="1052.3622" />
        </g>
        <g
           id="g6258"
           style="fill:#000000;fill-opacity:1"
           transform="scale(1.5,1.5)">
          <use
             id="use6260"
             y="134.765"
             x="320.845"
             xlink:href="#textext-14ffc4fb-4"
             width="744.09448"
             height="1052.3622" />
        </g>
      </g>
    </g>
    <text
       xml:space="preserve"
       style="font-size:11px;font-style:normal;font-variant:normal;font-weight:bold;font-stretch:normal;fill:#000000;fill-opacity:1;stroke:none;font-family:Arial Black;-inkscape-font-specification:'Arial Black, Bold'"
       x="172.14285"
       y="362.36218"
       id="text6584"><tspan
         sodipodi:role="line"
         id="tspan6586"
         x="172.14285"
         y="362.36218" /></text>
  </g>
</svg>
