<?xml version="1.0" encoding="UTF-8" standalone="no"?>
<!-- Created with Inkscape (http://www.inkscape.org/) -->

<svg
   xmlns:dc="http://purl.org/dc/elements/1.1/"
   xmlns:cc="http://creativecommons.org/ns#"
   xmlns:rdf="http://www.w3.org/1999/02/22-rdf-syntax-ns#"
   xmlns:svg="http://www.w3.org/2000/svg"
   xmlns="http://www.w3.org/2000/svg"
   xmlns:xlink="http://www.w3.org/1999/xlink"
   xmlns:sodipodi="http://sodipodi.sourceforge.net/DTD/sodipodi-0.dtd"
   xmlns:inkscape="http://www.inkscape.org/namespaces/inkscape"
   width="380.22485"
   height="214.48915"
   id="svg2"
   inkscape:label="Pozadí"
   version="1.1"
   inkscape:version="0.47 r22583"
   sodipodi:docname="Nový dokument 1">
  <sodipodi:namedview
     id="base"
     pagecolor="#ffffff"
     bordercolor="#666666"
     borderopacity="1.0"
     inkscape:pageopacity="0.0"
     inkscape:pageshadow="2"
     inkscape:zoom="0.98994949"
     inkscape:cx="220.84928"
     inkscape:cy="98.847939"
     inkscape:document-units="px"
     inkscape:current-layer="layer1"
     showgrid="false"
     inkscape:window-width="1365"
     inkscape:window-height="750"
     inkscape:window-x="1"
     inkscape:window-y="0"
     inkscape:window-maximized="1"
     showguides="true"
     inkscape:guide-bbox="true" />
  <defs
     id="defs3">
    <marker
       inkscape:stockid="Arrow1Mend"
       orient="auto"
       refY="0"
       refX="0"
       id="Arrow1Mend"
       style="overflow:visible">
      <path
         id="path4166"
         d="M 0,0 5,-5 -12.5,0 5,5 0,0 z"
         style="fill-rule:evenodd;stroke:#000000;stroke-width:1pt;marker-start:none"
         transform="matrix(-0.4,0,0,-0.4,-4,0)" />
    </marker>
    <linearGradient
       id="linearGradient3650"
       inkscape:collect="always">
      <stop
         id="stop3652"
         offset="0"
         style="stop-color:#000000;stop-opacity:1;" />
      <stop
         id="stop3654"
         offset="1"
         style="stop-color:#000000;stop-opacity:0;" />
    </linearGradient>
    <linearGradient
       id="linearGradient3589">
      <stop
         id="stop3591"
         offset="0"
         style="stop-color:#f900ff;stop-opacity:1;" />
      <stop
         style="stop-color:#ffda00;stop-opacity:0.74901962;"
         offset="0.25"
         id="stop3599" />
      <stop
         id="stop3601"
         offset="0.375"
         style="stop-color:#ff6d00;stop-opacity:0.62352941;" />
      <stop
         style="stop-color:#ff0000;stop-opacity:0.49803922;"
         offset="0.5"
         id="stop3597" />
      <stop
         id="stop3593"
         offset="1"
         style="stop-color:#ff0000;stop-opacity:0;" />
    </linearGradient>
    <inkscape:perspective
       id="perspective9"
       inkscape:persp3d-origin="372.04724 : 350.78739 : 1"
       inkscape:vp_z="744.09448 : 526.18109 : 1"
       inkscape:vp_y="0 : 1000 : 0"
       inkscape:vp_x="0 : 526.18109 : 1"
       sodipodi:type="inkscape:persp3d" />
    <linearGradient
       gradientTransform="translate(18.687822,-18.182746)"
       gradientUnits="userSpaceOnUse"
       y2="52.816238"
       x2="226.7691"
       y1="65.948219"
       x1="180.82747"
       id="linearGradient3595"
       xlink:href="#linearGradient3589"
       inkscape:collect="always" />
    <inkscape:perspective
       sodipodi:type="inkscape:persp3d"
       inkscape:vp_x="0 : 0.5 : 1"
       inkscape:vp_y="0 : 1000 : 0"
       inkscape:vp_z="1 : 0.5 : 1"
       inkscape:persp3d-origin="0.5 : 0.33333333 : 1"
       id="perspective3611" />
    <linearGradient
       gradientTransform="translate(-8.5862966,-6.0609153)"
       gradientUnits="userSpaceOnUse"
       y2="52.816238"
       x2="226.7691"
       y1="65.948219"
       x1="180.82747"
       id="linearGradient3595-2"
       xlink:href="#linearGradient3589-7"
       inkscape:collect="always" />
    <linearGradient
       id="linearGradient3589-7">
      <stop
         id="stop3591-8"
         offset="0"
         style="stop-color:#fee8ff;stop-opacity:1;" />
      <stop
         style="stop-color:#ffda00;stop-opacity:0.74901962;"
         offset="0.25"
         id="stop3599-2" />
      <stop
         id="stop3601-5"
         offset="0.40721649"
         style="stop-color:#95ff32;stop-opacity:0.62352943;" />
      <stop
         style="stop-color:#4bff00;stop-opacity:0.49803922;"
         offset="0.5"
         id="stop3597-7" />
      <stop
         id="stop3593-7"
         offset="1"
         style="stop-color:#d6ff00;stop-opacity:0;" />
    </linearGradient>
    <linearGradient
       gradientTransform="translate(27.779218,-1.0101523)"
       gradientUnits="userSpaceOnUse"
       y2="123.52691"
       x2="217.67772"
       y1="123.52691"
       x1="157.08887"
       id="linearGradient3656"
       xlink:href="#linearGradient3650"
       inkscape:collect="always" />
    <defs
       id="defs3694">
      <g
         id="g3696">
        <symbol
           overflow="visible"
           id="textext-af3a0364-0"
           style="overflow:visible">
          <path
             style="stroke:none"
             d=""
             id="path3699" />
        </symbol>
        <symbol
           overflow="visible"
           id="textext-af3a0364-1"
           style="overflow:visible">
          <path
             style="stroke:none"
             d="m 4.25,-6.046875 c 0.078125,-0.28125 0.109375,-0.34375 0.234375,-0.375 0.09375,-0.015625 0.421875,-0.015625 0.625,-0.015625 1.015625,0 1.453125,0.03125 1.453125,0.8125 0,0.15625 -0.03125,0.546875 -0.078125,0.796875 0,0.046875 -0.03125,0.15625 -0.03125,0.1875 0,0.0625 0.03125,0.140625 0.125,0.140625 0.109375,0 0.125,-0.078125 0.15625,-0.234375 L 7,-6.46875 C 7.015625,-6.515625 7.015625,-6.609375 7.015625,-6.640625 7.015625,-6.75 6.921875,-6.75 6.75,-6.75 l -5.53125,0 c -0.234375,0 -0.25,0.015625 -0.328125,0.203125 l -0.59375,1.75 c 0,0.015625 -0.0625,0.15625 -0.0625,0.1875 0,0.046875 0.0625,0.109375 0.125,0.109375 0.09375,0 0.109375,-0.0625 0.171875,-0.21875 C 1.0625,-6.265625 1.328125,-6.4375 2.796875,-6.4375 l 0.390625,0 c 0.28125,0 0.28125,0.03125 0.28125,0.125 0,0.046875 -0.03125,0.171875 -0.046875,0.203125 L 2.09375,-0.78125 C 2,-0.421875 1.96875,-0.3125 0.90625,-0.3125 c -0.359375,0 -0.421875,0 -0.421875,0.1875 C 0.484375,0 0.59375,0 0.65625,0 c 0.265625,0 0.546875,-0.015625 0.8125,-0.015625 0.28125,0 0.578125,-0.015625 0.859375,-0.015625 0.28125,0 0.546875,0.015625 0.828125,0.015625 C 3.4375,-0.015625 3.734375,0 4.015625,0 c 0.09375,0 0.21875,0 0.21875,-0.203125 0,-0.109375 -0.078125,-0.109375 -0.34375,-0.109375 -0.234375,0 -0.375,0 -0.625,-0.015625 -0.296875,-0.03125 -0.375,-0.0625 -0.375,-0.21875 0,-0.015625 0,-0.0625 0.046875,-0.203125 L 4.25,-6.046875 z m 0,0"
             id="path3702" />
        </symbol>
        <symbol
           overflow="visible"
           id="textext-af3a0364-2"
           style="overflow:visible">
          <path
             style="stroke:none"
             d="M 6.328125,-5.765625 C 6.4375,-6.171875 6.609375,-6.46875 7.40625,-6.5 c 0.046875,0 0.171875,-0.015625 0.171875,-0.203125 0,0 0,-0.109375 -0.125,-0.109375 -0.328125,0 -0.6875,0.03125 -1.015625,0.03125 -0.34375,0 -0.71875,-0.03125 -1.046875,-0.03125 -0.0625,0 -0.171875,0 -0.171875,0.203125 C 5.21875,-6.5 5.3125,-6.5 5.390625,-6.5 c 0.578125,0.015625 0.6875,0.21875 0.6875,0.4375 0,0.03125 -0.03125,0.1875 -0.03125,0.203125 l -0.90625,3.5625 C 4.8125,-0.953125 3.65625,-0.09375 2.65625,-0.09375 c -0.671875,0 -1.203125,-0.4375 -1.203125,-1.296875 0,-0.015625 0,-0.328125 0.109375,-0.765625 L 2.515625,-6.046875 C 2.609375,-6.40625 2.625,-6.5 3.359375,-6.5 c 0.265625,0 0.34375,0 0.34375,-0.203125 0,-0.109375 -0.109375,-0.109375 -0.140625,-0.109375 -0.28125,0 -1,0.03125 -1.28125,0.03125 -0.28125,0 -1,-0.03125 -1.28125,-0.03125 -0.078125,0 -0.1875,0 -0.1875,0.203125 C 0.8125,-6.5 0.890625,-6.5 1.09375,-6.5 c 0.015625,0 0.203125,0 0.375,0.015625 0.171875,0.03125 0.265625,0.03125 0.265625,0.171875 0,0.046875 -0.109375,0.46875 -0.171875,0.703125 l -0.21875,0.875 C 1.25,-4.34375 0.78125,-2.46875 0.734375,-2.265625 0.671875,-2 0.671875,-1.84375 0.671875,-1.6875 c 0,1.203125 0.90625,1.90625 1.953125,1.90625 1.25,0 2.484375,-1.125 2.8125,-2.4375 l 0.890625,-3.546875 z m 0,0"
             id="path3705" />
        </symbol>
        <symbol
           overflow="visible"
           id="textext-af3a0364-3"
           style="overflow:visible">
          <path
             style="stroke:none"
             d=""
             id="path3708" />
        </symbol>
        <symbol
           overflow="visible"
           id="textext-af3a0364-4"
           style="overflow:visible">
          <path
             style="stroke:none"
             d="M 3.59375,-2.21875 C 3.59375,-2.984375 3.5,-3.546875 3.1875,-4.03125 2.96875,-4.34375 2.53125,-4.625 1.984375,-4.625 c -1.625,0 -1.625,1.90625 -1.625,2.40625 0,0.5 0,2.359375 1.625,2.359375 1.609375,0 1.609375,-1.859375 1.609375,-2.359375 z M 1.984375,-0.0625 c -0.328125,0 -0.75,-0.1875 -0.890625,-0.75 C 1,-1.21875 1,-1.796875 1,-2.3125 1,-2.828125 1,-3.359375 1.09375,-3.734375 1.25,-4.28125 1.6875,-4.4375 1.984375,-4.4375 c 0.375,0 0.734375,0.234375 0.859375,0.640625 0.109375,0.375 0.125,0.875 0.125,1.484375 0,0.515625 0,1.03125 -0.09375,1.46875 -0.140625,0.640625 -0.609375,0.78125 -0.890625,0.78125 z m 0,0"
             id="path3711" />
        </symbol>
        <symbol
           overflow="visible"
           id="textext-af3a0364-5"
           style="overflow:visible">
          <path
             style="stroke:none"
             d="m 2.328125,-4.4375 c 0,-0.1875 0,-0.1875 -0.203125,-0.1875 -0.453125,0.4375 -1.078125,0.4375 -1.359375,0.4375 l 0,0.25 c 0.15625,0 0.625,0 1,-0.1875 l 0,3.546875 c 0,0.234375 0,0.328125 -0.6875,0.328125 l -0.265625,0 0,0.25 c 0.125,0 0.984375,-0.03125 1.234375,-0.03125 0.21875,0 1.09375,0.03125 1.25,0.03125 l 0,-0.25 -0.265625,0 c -0.703125,0 -0.703125,-0.09375 -0.703125,-0.328125 l 0,-3.859375 z m 0,0"
             id="path3714" />
        </symbol>
        <symbol
           overflow="visible"
           id="textext-af3a0364-6"
           style="overflow:visible">
          <path
             style="stroke:none"
             d="m 3.515625,-1.265625 -0.234375,0 c -0.015625,0.15625 -0.09375,0.5625 -0.1875,0.625 -0.046875,0.046875 -0.578125,0.046875 -0.6875,0.046875 l -1.28125,0 c 0.734375,-0.640625 0.984375,-0.84375 1.390625,-1.171875 0.515625,-0.40625 1,-0.84375 1,-1.5 0,-0.84375 -0.734375,-1.359375 -1.625,-1.359375 -0.859375,0 -1.453125,0.609375 -1.453125,1.25 0,0.34375 0.296875,0.390625 0.375,0.390625 0.15625,0 0.359375,-0.125 0.359375,-0.375 0,-0.125 -0.046875,-0.375 -0.40625,-0.375 C 0.984375,-4.21875 1.453125,-4.375 1.78125,-4.375 c 0.703125,0 1.0625,0.546875 1.0625,1.109375 0,0.609375 -0.4375,1.078125 -0.65625,1.328125 L 0.515625,-0.265625 C 0.4375,-0.203125 0.4375,-0.1875 0.4375,0 l 2.875,0 0.203125,-1.265625 z m 0,0"
             id="path3717" />
        </symbol>
        <symbol
           overflow="visible"
           id="textext-af3a0364-7"
           style="overflow:visible">
          <path
             style="stroke:none"
             d=""
             id="path3720" />
        </symbol>
        <symbol
           overflow="visible"
           id="textext-af3a0364-8"
           style="overflow:visible">
          <path
             style="stroke:none"
             d="m 0.84375,-0.4375 c -0.015625,0.09375 -0.0625,0.265625 -0.0625,0.28125 0,0.15625 0.125,0.21875 0.234375,0.21875 0.125,0 0.234375,-0.078125 0.28125,-0.140625 0.03125,-0.0625 0.078125,-0.296875 0.125,-0.4375 0.03125,-0.125 0.109375,-0.453125 0.140625,-0.625 0.046875,-0.15625 0.09375,-0.3125 0.125,-0.46875 0.078125,-0.28125 0.09375,-0.34375 0.296875,-0.625 C 2.171875,-2.515625 2.5,-2.875 3.03125,-2.875 c 0.390625,0 0.40625,0.359375 0.40625,0.484375 0,0.421875 -0.296875,1.1875 -0.40625,1.484375 -0.078125,0.203125 -0.109375,0.265625 -0.109375,0.375 0,0.375 0.296875,0.59375 0.65625,0.59375 0.703125,0 1,-0.953125 1,-1.0625 0,-0.09375 -0.078125,-0.09375 -0.109375,-0.09375 -0.09375,0 -0.09375,0.046875 -0.125,0.125 C 4.1875,-0.40625 3.875,-0.125 3.609375,-0.125 c -0.15625,0 -0.1875,-0.09375 -0.1875,-0.25 0,-0.15625 0.046875,-0.25 0.171875,-0.5625 0.078125,-0.21875 0.359375,-0.953125 0.359375,-1.34375 0,-0.671875 -0.53125,-0.796875 -0.90625,-0.796875 -0.578125,0 -0.96875,0.359375 -1.171875,0.640625 -0.046875,-0.484375 -0.453125,-0.640625 -0.75,-0.640625 -0.296875,0 -0.453125,0.21875 -0.546875,0.375 -0.15625,0.265625 -0.25,0.65625 -0.25,0.703125 0,0.078125 0.09375,0.078125 0.125,0.078125 0.09375,0 0.09375,-0.015625 0.140625,-0.203125 0.109375,-0.40625 0.25,-0.75 0.515625,-0.75 0.1875,0 0.234375,0.15625 0.234375,0.34375 0,0.125 -0.0625,0.390625 -0.125,0.578125 -0.046875,0.1875 -0.109375,0.46875 -0.140625,0.625 L 0.84375,-0.4375 z m 0,0"
             id="path3723" />
        </symbol>
      </g>
    </defs>
    <inkscape:perspective
       id="perspective3965"
       inkscape:persp3d-origin="0.5 : 0.33333333 : 1"
       inkscape:vp_z="1 : 0.5 : 1"
       inkscape:vp_y="0 : 1000 : 0"
       inkscape:vp_x="0 : 0.5 : 1"
       sodipodi:type="inkscape:persp3d" />
    <inkscape:perspective
       id="perspective4019"
       inkscape:persp3d-origin="0.5 : 0.33333333 : 1"
       inkscape:vp_z="1 : 0.5 : 1"
       inkscape:vp_y="0 : 1000 : 0"
       inkscape:vp_x="0 : 0.5 : 1"
       sodipodi:type="inkscape:persp3d" />
    <inkscape:perspective
       id="perspective4019-5"
       inkscape:persp3d-origin="0.5 : 0.33333333 : 1"
       inkscape:vp_z="1 : 0.5 : 1"
       inkscape:vp_y="0 : 1000 : 0"
       inkscape:vp_x="0 : 0.5 : 1"
       sodipodi:type="inkscape:persp3d" />
    <inkscape:perspective
       id="perspective4019-9"
       inkscape:persp3d-origin="0.5 : 0.33333333 : 1"
       inkscape:vp_z="1 : 0.5 : 1"
       inkscape:vp_y="0 : 1000 : 0"
       inkscape:vp_x="0 : 0.5 : 1"
       sodipodi:type="inkscape:persp3d" />
    <inkscape:perspective
       id="perspective4114"
       inkscape:persp3d-origin="0.5 : 0.33333333 : 1"
       inkscape:vp_z="1 : 0.5 : 1"
       inkscape:vp_y="0 : 1000 : 0"
       inkscape:vp_x="0 : 0.5 : 1"
       sodipodi:type="inkscape:persp3d" />
    <inkscape:perspective
       id="perspective4114-7"
       inkscape:persp3d-origin="0.5 : 0.33333333 : 1"
       inkscape:vp_z="1 : 0.5 : 1"
       inkscape:vp_y="0 : 1000 : 0"
       inkscape:vp_x="0 : 0.5 : 1"
       sodipodi:type="inkscape:persp3d" />
    <linearGradient
       inkscape:collect="always"
       xlink:href="#linearGradient3650"
       id="linearGradient5361"
       gradientUnits="userSpaceOnUse"
       gradientTransform="translate(27.779218,-1.0101523)"
       x1="157.08887"
       y1="123.52691"
       x2="217.67772"
       y2="123.52691" />
    <linearGradient
       inkscape:collect="always"
       xlink:href="#linearGradient3589"
       id="linearGradient5364"
       gradientUnits="userSpaceOnUse"
       gradientTransform="translate(18.687822,-18.182746)"
       x1="180.82747"
       y1="65.948219"
       x2="226.7691"
       y2="52.816238" />
    <linearGradient
       inkscape:collect="always"
       xlink:href="#linearGradient3589"
       id="linearGradient5443"
       gradientUnits="userSpaceOnUse"
       gradientTransform="translate(18.687822,-18.182746)"
       x1="180.82747"
       y1="65.948219"
       x2="226.7691"
       y2="52.816238" />
    <linearGradient
       inkscape:collect="always"
       xlink:href="#linearGradient3650"
       id="linearGradient5445"
       gradientUnits="userSpaceOnUse"
       gradientTransform="translate(27.779218,-1.0101523)"
       x1="157.08887"
       y1="123.52691"
       x2="217.67772"
       y2="123.52691" />
  </defs>
  <metadata
     id="metadata6">
    <rdf:RDF>
      <cc:Work
         rdf:about="">
        <dc:format>image/svg+xml</dc:format>
        <dc:type
           rdf:resource="http://purl.org/dc/dcmitype/StillImage" />
        <dc:title></dc:title>
      </cc:Work>
    </rdf:RDF>
  </metadata>
  <g
     id="layer1"
     inkscape:groupmode="layer"
     inkscape:label="Vrstva 1"
     transform="translate(-165.25244,14.217548)">
    <g
       id="g5376">
      <g
         transform="translate(13.637059,-15.657364)"
         id="g4042">
        <g
           id="g3947">
          <rect
             style="fill:#ffffff;fill-opacity:1;stroke:#000000;stroke-width:1;stroke-linecap:butt;stroke-linejoin:round;stroke-miterlimit:4;stroke-opacity:1;stroke-dasharray:none;stroke-dashoffset:0"
             id="rect3658"
             width="36.321838"
             height="36.321838"
             x="261.30338"
             y="21.879833" />
          <g
             transform="translate(-69.060806,-158.22334)"
             id="g3915">
            <g
               id="g3726"
               style="fill:#000000;fill-opacity:1"
               transform="scale(1.5,1.5)">
              <use
                 id="use3728"
                 y="134.765"
                 x="223.43201"
                 xlink:href="#textext-af3a0364-1"
                 width="744.09448"
                 height="1052.3622" />
            </g>
            <g
               id="g3730"
               style="fill:#000000;fill-opacity:1"
               transform="scale(1.5,1.5)">
              <use
                 id="use3732"
                 y="134.765"
                 x="230.63895"
                 xlink:href="#textext-af3a0364-2"
                 width="744.09448"
                 height="1052.3622" />
            </g>
            <g
               id="g3734"
               style="fill:#000000;fill-opacity:1"
               transform="scale(1.5,1.5)">
              <use
                 id="use3736"
                 y="136.259"
                 x="237.44"
                 xlink:href="#textext-af3a0364-4"
                 width="744.09448"
                 height="1052.3622" />
            </g>
          </g>
        </g>
      </g>
      <g
         transform="translate(-98.332759,33.097365)"
         id="g4053">
        <rect
           y="12.431964"
           x="373.27319"
           height="36.321838"
           width="36.321838"
           id="rect3658-3"
           style="fill:#ffffff;fill-opacity:1;stroke:#000000;stroke-width:1;stroke-linecap:butt;stroke-linejoin:round;stroke-miterlimit:4;stroke-opacity:1;stroke-dasharray:none;stroke-dashoffset:0" />
        <g
           id="g3923"
           transform="translate(10.434673,-167.56574)">
          <g
             transform="scale(1.5,1.5)"
             style="fill:#000000;fill-opacity:1"
             id="g3738">
            <use
               height="1052.3622"
               width="744.09448"
               xlink:href="#textext-af3a0364-1"
               x="245.23"
               y="134.765"
               id="use3740" />
          </g>
          <g
             transform="scale(1.5,1.5)"
             style="fill:#000000;fill-opacity:1"
             id="g3742">
            <use
               height="1052.3622"
               width="744.09448"
               xlink:href="#textext-af3a0364-2"
               x="252.43695"
               y="134.765"
               id="use3744" />
          </g>
          <g
             transform="scale(1.5,1.5)"
             style="fill:#000000;fill-opacity:1"
             id="g3746">
            <use
               height="1052.3622"
               width="744.09448"
               xlink:href="#textext-af3a0364-5"
               x="259.23801"
               y="136.259"
               id="use3748" />
          </g>
        </g>
      </g>
      <g
         transform="translate(-80.15002,-11.943544)"
         id="g4063">
        <rect
           y="96.779701"
           x="355.09045"
           height="36.321838"
           width="36.321838"
           id="rect3658-3-8"
           style="fill:#ffffff;fill-opacity:1;stroke:#000000;stroke-width:1;stroke-linecap:butt;stroke-linejoin:round;stroke-miterlimit:4;stroke-opacity:1;stroke-dasharray:none;stroke-dashoffset:0" />
        <g
           id="g3931"
           transform="translate(-40.609146,-83.218006)">
          <g
             transform="scale(1.5,1.5)"
             style="fill:#000000;fill-opacity:1"
             id="g3750">
            <use
               height="1052.3622"
               width="744.09448"
               xlink:href="#textext-af3a0364-1"
               x="267.02802"
               y="134.765"
               id="use3752" />
          </g>
          <g
             transform="scale(1.5,1.5)"
             style="fill:#000000;fill-opacity:1"
             id="g3754">
            <use
               height="1052.3622"
               width="744.09448"
               xlink:href="#textext-af3a0364-2"
               x="274.23495"
               y="134.765"
               id="use3756" />
          </g>
          <g
             transform="scale(1.5,1.5)"
             style="fill:#000000;fill-opacity:1"
             id="g3758">
            <use
               height="1052.3622"
               width="744.09448"
               xlink:href="#textext-af3a0364-6"
               x="281.03601"
               y="136.259"
               id="use3760" />
          </g>
        </g>
      </g>
      <g
         transform="translate(-68.028194,11.616754)"
         id="g4073">
        <rect
           y="151.83301"
           x="342.96863"
           height="36.321838"
           width="36.321838"
           id="rect3658-3-82"
           style="fill:#ffffff;fill-opacity:1;stroke:#000000;stroke-width:1;stroke-linecap:butt;stroke-linejoin:round;stroke-miterlimit:4;stroke-opacity:1;stroke-dasharray:none;stroke-dashoffset:0" />
        <g
           id="g3939"
           transform="translate(-86.225586,-28.211575)">
          <g
             transform="scale(1.5,1.5)"
             style="fill:#000000;fill-opacity:1"
             id="g3762">
            <use
               height="1052.3622"
               width="744.09448"
               xlink:href="#textext-af3a0364-1"
               x="288.827"
               y="134.765"
               id="use3764" />
          </g>
          <g
             transform="scale(1.5,1.5)"
             style="fill:#000000;fill-opacity:1"
             id="g3766">
            <use
               height="1052.3622"
               width="744.09448"
               xlink:href="#textext-af3a0364-2"
               x="296.03394"
               y="134.765"
               id="use3768" />
          </g>
          <g
             transform="scale(1.5,1.5)"
             style="fill:#000000;fill-opacity:1"
             id="g3770">
            <use
               height="1052.3622"
               width="744.09448"
               xlink:href="#textext-af3a0364-8"
               x="302.83401"
               y="136.259"
               id="use3772" />
          </g>
        </g>
      </g>
      <text
         transform="matrix(0,1,-1,0,0,0)"
         id="text4083"
         y="-292.00565"
         x="136.79579"
         style="font-size:11px;font-style:normal;font-variant:normal;font-weight:bold;font-stretch:normal;fill:#000000;fill-opacity:1;stroke:none;font-family:Arial Black;-inkscape-font-specification:'Arial Black, Bold'"
         xml:space="preserve"><tspan
           y="-292.00565"
           x="136.79579"
           id="tspan4085"
           sodipodi:role="line">...</tspan></text>
      <rect
         y="17.428989"
         x="348.9758"
         height="98.553688"
         width="196.0334"
         id="rect4087"
         style="fill:#ffffff;fill-opacity:1;stroke:#000000;stroke-width:0.93618143;stroke-linecap:butt;stroke-linejoin:round;stroke-miterlimit:4;stroke-opacity:1;stroke-dasharray:none;stroke-dashoffset:0" />
      <text
         id="text4089"
         y="11.905061"
         x="392.94934"
         style="font-size:11px;font-style:normal;font-variant:normal;font-weight:bold;font-stretch:normal;fill:#000000;fill-opacity:1;stroke:none;font-family:Arial Black;-inkscape-font-specification:'Arial Black, Bold'"
         xml:space="preserve"><tspan
           y="11.905061"
           x="392.94934"
           id="tspan4091"
           sodipodi:role="line">Shader Program</tspan></text>
      <text
         id="text4093"
         y="36.148724"
         x="352.99988"
         style="font-size:11px;font-style:normal;font-variant:normal;font-weight:bold;font-stretch:normal;fill:#000000;fill-opacity:1;stroke:none;font-family:Arial Black;-inkscape-font-specification:'Arial Black, Bold'"
         xml:space="preserve"><tspan
           y="36.148724"
           x="352.99988"
           id="tspan4095"
           sodipodi:role="line">uniform sampler2D Textura;</tspan></text>
      <text
         id="text4093-0"
         y="63.795166"
         x="352.99988"
         style="font-size:11px;font-style:normal;font-variant:normal;font-weight:bold;font-stretch:normal;fill:#000000;fill-opacity:1;stroke:none;font-family:Arial Black;-inkscape-font-specification:'Arial Black, Bold'"
         xml:space="preserve"><tspan
           y="63.795166"
           x="352.99988"
           id="tspan4095-0"
           sodipodi:role="line">uniform sampler2D Terrain;</tspan></text>
      <text
         id="text4093-7"
         y="90.564209"
         x="352.99988"
         style="font-size:11px;font-style:normal;font-variant:normal;font-weight:bold;font-stretch:normal;fill:#000000;fill-opacity:1;stroke:none;font-family:Arial Black;-inkscape-font-specification:'Arial Black, Bold'"
         xml:space="preserve"><tspan
           y="90.564209"
           x="352.99988"
           id="tspan4095-01"
           sodipodi:role="line">uniform sampler2D HeightMap;</tspan></text>
      <path
         id="path4146"
         d="m 244.20438,33.875878 30.55711,32.577419"
         style="fill:none;stroke:#000000;stroke-width:1px;stroke-linecap:butt;stroke-linejoin:miter;stroke-opacity:1;marker-end:url(#Arrow1Mend)" />
      <path
         id="path4150"
         d="M 349.26024,88.929191 311.12698,71.756598"
         style="fill:none;stroke:#000000;stroke-width:1px;stroke-linecap:butt;stroke-linejoin:miter;stroke-opacity:1;marker-end:url(#Arrow1Mend)" />
      <path
         id="path4152"
         d="M 349.26024,32.865725 311.63206,59.634768"
         style="fill:none;stroke:#000000;stroke-width:1px;stroke-linecap:butt;stroke-linejoin:miter;stroke-opacity:1;marker-end:url(#Arrow1Mend)" />
      <path
         id="path4970"
         d="M 244.45692,118.98123 275.01403,24.02689"
         style="fill:none;stroke:#000000;stroke-width:1px;stroke-linecap:butt;stroke-linejoin:miter;stroke-opacity:1;marker-end:url(#Arrow1Mend)" />
      <path
         id="path5156"
         d="M 349.13397,61.781341 311.12698,23.016737"
         style="fill:none;stroke:#000000;stroke-width:1px;stroke-linecap:butt;stroke-linejoin:miter;stroke-opacity:1;marker-end:url(#Arrow1Mend)" />
      <text
         id="text5342"
         y="80.219322"
         x="165"
         style="font-size:11px;font-style:normal;font-variant:normal;font-weight:bold;font-stretch:normal;fill:#000000;fill-opacity:1;stroke:none;font-family:Arial Black;-inkscape-font-specification:'Arial Black, Bold'"
         xml:space="preserve"><tspan
           y="80.219322"
           x="165"
           id="tspan5344"
           sodipodi:role="line">Textury</tspan></text>
      <text
         id="text5346"
         y="-6.2092471"
         x="235.71428"
         style="font-size:11px;font-style:normal;font-variant:normal;font-weight:bold;font-stretch:normal;fill:#000000;fill-opacity:1;stroke:none;font-family:Arial Black;-inkscape-font-specification:'Arial Black, Bold'"
         xml:space="preserve"><tspan
           y="-6.2092471"
           x="235.71428"
           id="tspan5348"
           sodipodi:role="line">Texturovací jednotky</tspan></text>
      <g
         id="g5366">
        <rect
           y="5.3390689"
           x="185.86807"
           height="58.588848"
           width="58.588848"
           id="rect2815"
           style="fill:url(#linearGradient5443);fill-opacity:1;stroke:#000000;stroke-width:1;stroke-linecap:butt;stroke-linejoin:round;stroke-miterlimit:4;stroke-opacity:1;stroke-dasharray:none;stroke-dashoffset:0" />
        <text
           xml:space="preserve"
           style="font-size:11px;font-style:normal;font-variant:normal;font-weight:bold;font-stretch:normal;fill:#000000;fill-opacity:1;stroke:none;font-family:Arial Black;-inkscape-font-specification:'Arial Black, Bold'"
           x="205.59389"
           y="38.637642"
           id="text5350"><tspan
             sodipodi:role="line"
             id="tspan5352"
             x="205.59389"
             y="38.637642">ID1</tspan></text>
      </g>
      <g
         id="g5371">
        <rect
           y="93.222328"
           x="185.86807"
           height="58.588848"
           width="58.588848"
           id="rect2815-9"
           style="fill:url(#linearGradient5445);fill-opacity:1;stroke:#000000;stroke-width:1;stroke-linecap:butt;stroke-linejoin:round;stroke-miterlimit:4;stroke-opacity:1;stroke-dasharray:none;stroke-dashoffset:0" />
        <text
           xml:space="preserve"
           style="font-size:11px;font-style:normal;font-variant:normal;font-weight:bold;font-stretch:normal;fill:#000000;fill-opacity:1;stroke:none;font-family:Arial Black;-inkscape-font-specification:'Arial Black, Bold'"
           x="204.87148"
           y="126.5209"
           id="text5354"><tspan
             sodipodi:role="line"
             id="tspan5356"
             x="204.87148"
             y="126.5209">ID2</tspan></text>
      </g>
    </g>
  </g>
</svg>
